{
.appVersion = "1140";
DisplayStrings = (
Ypsikl,
"/zero.dnom/one.dnom/four.dnom/six.dnom",
"/two.dnom/three.dnom/five.dnom/seven.dnom/eight.dnom/nine.dnom",
"/eight.tf",
"/nine.tf",
"/nine.tosf",
"/eight.tosf",
"/eight.tf",
"/eight.tosf",
"/zero.tosf",
"/four.tosf",
"}",
"{",
"/braceleft.case",
"/braceright.case",
"®",
"®",
"®",
"/published",
"/kip",
"/minute",
"/second",
"/notequal",
"×",
"/commercialMinusSign",
"/radical",
"/partialdiff",
"/estimated",
"/literSign",
"/pi",
"/summation",
"/product",
C,
"/fi",
"/Omega",
"µu"
);
classes = (
{
automatic = 1;

glyphs = (
{
glyphname = A;
layers = (
{
anchors = (
{
name = bottom;
position = "{388, 0}";
},
{
name = ogonek;
position = "{717, 0}";
},
{
name = top;
position = "{388, 735}";
}
);
guideLines = (
{
angle = -110;
position = "{221, 246}";
},
{
angle = 110.6787;
position = "{566, 403}";
},
{
angle = 110.6787;
position = "{440, 403}";
},
{
angle = 90;
position = "{358, 621}";
},
{
angle = 90;
position = "{336, 621}";
},
{
angle = 90;
position = "{388, 704}";
}
);
layerId = "EE746D13-63D7-48F9-B77E-C723CA6A668B";
paths = (
{
closed = 1;
nodes = (
"274 0 LINE",
"274 70 LINE",
"157 70 LINE",
"221 246 LINE",
"499 246 LINE",
"566 70 LINE",
"464 70 LINE",
"464 0 LINE",
"763 0 LINE",
"763 70 LINE",
"691 70 LINE",
"440 735 LINE",
"336 735 LINE",
"74 70 LINE",
"-4 70 LINE",
"-4 0 LINE"
);
},
{
closed = 1;
nodes = (
"358 621 LINE",
"476 308 LINE",
"244 308 LINE"
);
}
);
width = 759;
}
);
leftKerningGroup = A;
note = A;
rightKerningGroup = A;
unicode = 0041;
},
{
glyphname = AE;
layers = (
{
layerId = "EE746D13-63D7-48F9-B77E-C723CA6A668B";
paths = (
{
closed = 1;
nodes = (
"-4 0 LINE",
"298 0 LINE",
"298 67 LINE",
"177 67 LINE",
"283 249 LINE",
"513 249 LINE",
"513 67 LINE",
"423 67 LINE",
"423 0 LINE",
"1046 0 LINE",
"1046 279 LINE",
"958 279 LINE",
"958 67 LINE",
"619 67 LINE",
"619 341 LINE",
"782 341 LINE",
"782 214 LINE",
"847 214 LINE",
"847 517 LINE",
"782 517 LINE",
"782 397 LINE",
"619 397 LINE",
"619 652 LINE",
"958 652 LINE",
"958 439 LINE",
"1046 439 LINE",
"1046 722 LINE",
"293 722 LINE",
"293 652 LINE",
"423 652 LINE",
"84 67 LINE",
"-4 67 LINE"
);
},
{
closed = 1;
nodes = (
"317 308 LINE",
"513 646 LINE",
"513 308 LINE"
);
}
);
width = 1121;
}
);
leftKerningGroup = AE;
leftMetricsKey = A;
rightKerningGroup = E;
rightMetricsKey = E;
unicode = 00C6;
},
{
glyphname = B;
layers = (
{
anchors = (
{
name = bottom;
position = "{354, 0}";
},
{
name = top;
position = "{354, 735}";
}
);
guideLines = (
{
angle = 90;
position = "{354, 35}";
}
);
layerId = "EE746D13-63D7-48F9-B77E-C723CA6A668B";
paths = (
{
closed = 1;
nodes = (
"335 0 LINE SMOOTH",
"517 0 OFFCURVE",
"661 44 OFFCURVE",
"661 210 CURVE SMOOTH",
"661 302 OFFCURVE",
"604 368 OFFCURVE",
"492 395 CURVE",
"580 423 OFFCURVE",
"627 483 OFFCURVE",
"627 546 CURVE SMOOTH",
"627 684 OFFCURVE",
"516 735 OFFCURVE",
"351 735 CURVE SMOOTH",
"42 735 LINE",
"42 665 LINE",
"161 665 LINE",
"161 70 LINE",
"42 70 LINE",
"42 0 LINE"
);
},
{
closed = 1;
nodes = (
"276 356 LINE",
"352 356 LINE SMOOTH",
"455 356 OFFCURVE",
"546 316 OFFCURVE",
"546 213 CURVE SMOOTH",
"546 92 OFFCURVE",
"466 70 OFFCURVE",
"304 70 CURVE SMOOTH",
"276 70 LINE"
);
},
{
closed = 1;
nodes = (
"276 665 LINE",
"295 665 LINE SMOOTH",
"420 665 OFFCURVE",
"521 657 OFFCURVE",
"521 543 CURVE SMOOTH",
"521 457 OFFCURVE",
"440 421 OFFCURVE",
"352 421 CURVE SMOOTH",
"276 421 LINE"
);
}
);
width = 696;
}
);
leftKerningGroup = H;
leftMetricsKey = H;
note = B;
rightKerningGroup = B;
unicode = 0042;
},
{
glyphname = C;
layers = (
{
anchors = (
{
name = bottom;
position = "{415, 0}";
},
{
name = top;
position = "{395, 735}";
}
);
background = {
paths = (
{
closed = 1;
nodes = (
"461 -13 OFFCURVE",
"502 -6 OFFCURVE",
"541 9 CURVE SMOOTH",
"617 38 OFFCURVE",
"669 87 OFFCURVE",
"707 153 CURVE SMOOTH",
"744 218 OFFCURVE",
"762 292 OFFCURVE",
"762 368 CURVE SMOOTH",
"762 406 OFFCURVE",
"757 443 OFFCURVE",
"749 480 CURVE SMOOTH",
"731 552 OFFCURVE",
"692 620 OFFCURVE",
"638 669 CURVE SMOOTH",
"585 719 OFFCURVE",
"506 750 OFFCURVE",
"415 750 CURVE SMOOTH",
"370 750 OFFCURVE",
"328 743 OFFCURVE",
"290 729 CURVE SMOOTH",
"213 699 OFFCURVE",
"161 649 OFFCURVE",
"123 583 CURVE SMOOTH",
"86 518 OFFCURVE",
"68 444 OFFCURVE",
"68 368 CURVE SMOOTH",
"68 330 OFFCURVE",
"72 293 OFFCURVE",
"82 256 CURVE SMOOTH",
"99 184 OFFCURVE",
"138 116 OFFCURVE",
"192 67 CURVE SMOOTH",
"246 18 OFFCURVE",
"325 -13 OFFCURVE",
"415 -13 CURVE SMOOTH"
);
},
{
closed = 1;
nodes = (
"387 55 OFFCURVE",
"361 61 OFFCURVE",
"337 73 CURVE SMOOTH",
"288 96 OFFCURVE",
"255 137 OFFCURVE",
"230 190 CURVE SMOOTH",
"205 244 OFFCURVE",
"193 305 OFFCURVE",
"193 369 CURVE SMOOTH",
"193 449 OFFCURVE",
"213 525 OFFCURVE",
"250 584 CURVE SMOOTH",
"286 643 OFFCURVE",
"345 682 OFFCURVE",
"415 682 CURVE SMOOTH",
"443 682 OFFCURVE",
"469 676 OFFCURVE",
"493 664 CURVE SMOOTH",
"542 640 OFFCURVE",
"575 598 OFFCURVE",
"600 545 CURVE SMOOTH",
"625 492 OFFCURVE",
"637 430 OFFCURVE",
"637 367 CURVE SMOOTH",
"637 288 OFFCURVE",
"617 211 OFFCURVE",
"581 153 CURVE SMOOTH",
"545 94 OFFCURVE",
"485 55 OFFCURVE",
"415 55 CURVE SMOOTH"
);
}
);
};
guideLines = (
{
angle = 90;
position = "{298, 685}";
},
{
angle = 90;
position = "{415, 642}";
},
{
position = "{644, 239}";
},
{
angle = 76.569;
position = "{711, 239}";
},
{
angle = 166.569;
position = "{678, 247}";
},
{
angle = 76.569;
position = "{628, 259}";
}
);
layerId = "EE746D13-63D7-48F9-B77E-C723CA6A668B";
paths = (
{
closed = 1;
nodes = (
"557 -13 OFFCURVE",
"673 78 OFFCURVE",
"711 239 CURVE",
"628 259 LINE",
"601 148 OFFCURVE",
"524 70 OFFCURVE",
"405 70 CURVE SMOOTH",
"248 70 OFFCURVE",
"163 192 OFFCURVE",
"163 373 CURVE SMOOTH",
"163 558 OFFCURVE",
"260 678 OFFCURVE",
"421 678 CURVE SMOOTH",
"528 678 OFFCURVE",
"588 623 OFFCURVE",
"605 584 CURVE",
"561 584 OFFCURVE",
"523 556 OFFCURVE",
"523 506 CURVE SMOOTH",
"523 456 OFFCURVE",
"557 425 OFFCURVE",
"606 425 CURVE SMOOTH",
"664 425 OFFCURVE",
"702 469 OFFCURVE",
"702 524 CURVE SMOOTH",
"702 655 OFFCURVE",
"567 750 OFFCURVE",
"411 750 CURVE SMOOTH",
"171 750 OFFCURVE",
"38 576 OFFCURVE",
"38 368 CURVE SMOOTH",
"38 161 OFFCURVE",
"173 -13 OFFCURVE",
"395 -13 CURVE SMOOTH"
);
}
);
width = 755;
}
);
leftKerningGroup = O;
leftMetricsKey = O;
rightKerningGroup = O;
unicode = 0043;
},
{
glyphname = D;
layers = (
{
anchors = (
{
name = bottom;
position = "{408, 0}";
},
{
name = strokelong;
position = "{438, 548}";
},
{
name = strokeshort;
position = "{383, 354}";
},
{
name = top;
position = "{408, 735}";
}
);
background = {
paths = (
{
closed = 1;
nodes = (
"378 0 LINE",
"378 70 LINE",
"266 70 LINE",
"266 354 LINE",
"611 354 LINE",
"611 70 LINE",
"498 70 LINE",
"498 0 LINE",
"835 0 LINE",
"835 70 LINE",
"726 70 LINE",
"726 665 LINE",
"835 665 LINE",
"835 735 LINE",
"498 735 LINE",
"498 665 LINE",
"611 665 LINE",
"611 416 LINE",
"266 416 LINE",
"266 665 LINE",
"378 665 LINE",
"378 735 LINE",
"42 735 LINE",
"42 665 LINE",
"151 665 LINE",
"151 70 LINE",
"42 70 LINE",
"42 0 LINE"
);
}
);
};
guideLines = (
{
angle = 90;
position = "{408, 375}";
}
);
layerId = "EE746D13-63D7-48F9-B77E-C723CA6A668B";
paths = (
{
closed = 1;
nodes = (
"328 0 LINE SMOOTH",
"587 0 OFFCURVE",
"752 112 OFFCURVE",
"752 373 CURVE SMOOTH",
"752 638 OFFCURVE",
"568 735 OFFCURVE",
"328 735 CURVE SMOOTH",
"42 735 LINE",
"42 665 LINE",
"152 665 LINE",
"152 70 LINE",
"42 70 LINE",
"42 0 LINE"
);
},
{
closed = 1;
nodes = (
"267 664 LINE",
"338 664 LINE",
"532 664 OFFCURVE",
"632 583 OFFCURVE",
"632 372 CURVE SMOOTH",
"632 158 OFFCURVE",
"521 70 OFFCURVE",
"328 70 CURVE",
"339 70 OFFCURVE",
"267 70 OFFCURVE",
"267 70 CURVE"
);
}
);
width = 782;
}
);
leftKerningGroup = H;
leftMetricsKey = H;
note = D;
rightKerningGroup = D;
unicode = 0044;
},
{
glyphname = E;
layers = (
{
anchors = (
{
name = bottom;
position = "{394, 0}";
},
{
name = ogonek;
position = "{648, 0}";
},
{
name = top;
position = "{386, 735}";
}
);
guideLines = (
{
angle = 90;
position = "{373, 735}";
}
);
layerId = "EE746D13-63D7-48F9-B77E-C723CA6A668B";
paths = (
{
closed = 1;
nodes = (
"703 0 LINE",
"703 279 LINE",
"615 279 LINE",
"615 70 LINE",
"276 70 LINE",
"276 343 LINE",
"435 343 LINE",
"435 218 LINE",
"504 218 LINE",
"504 521 LINE",
"435 521 LINE",
"435 403 LINE",
"276 403 LINE",
"276 665 LINE",
"615 665 LINE",
"615 457 LINE",
"703 457 LINE",
"703 735 LINE",
"42 735 LINE",
"42 665 LINE",
"159 665 LINE",
"159 70 LINE",
"42 70 LINE",
"42 0 LINE"
);
}
);
width = 778;
}
);
leftKerningGroup = H;
leftMetricsKey = H;
note = E;
rightKerningGroup = E;
unicode = 0045;
},
{
glyphname = F;
layers = (
{
anchors = (
{
name = bottom;
position = "{218, 0}";
},
{
name = ogonek;
position = "{648, 0}";
},
{
name = top;
position = "{355, 735}";
}
);
background = {
paths = (
{
closed = 1;
nodes = (
"703 0 LINE",
"703 279 LINE",
"615 279 LINE",
"615 70 LINE",
"276 70 LINE",
"276 343 LINE",
"437 343 LINE",
"437 218 LINE",
"504 218 LINE",
"504 521 LINE",
"437 521 LINE",
"437 403 LINE",
"276 403 LINE",
"276 665 LINE",
"615 665 LINE",
"615 457 LINE",
"703 457 LINE",
"703 735 LINE",
"42 735 LINE",
"42 665 LINE",
"161 665 LINE",
"161 70 LINE",
"42 70 LINE",
"42 0 LINE"
);
}
);
};
layerId = "EE746D13-63D7-48F9-B77E-C723CA6A668B";
paths = (
{
closed = 1;
nodes = (
"423 0 LINE",
"423 70 LINE",
"276 70 LINE",
"276 343 LINE",
"427 343 LINE",
"427 228 LINE",
"496 228 LINE",
"496 516 LINE",
"427 516 LINE",
"427 403 LINE",
"276 403 LINE",
"276 665 LINE",
"578 665 LINE",
"578 469 LINE",
"667 469 LINE",
"667 735 LINE",
"42 735 LINE",
"42 665 LINE",
"161 665 LINE",
"161 70 LINE",
"42 70 LINE",
"42 0 LINE"
);
}
);
width = 697;
}
);
leftKerningGroup = H;
leftMetricsKey = H;
note = F;
rightKerningGroup = F;
unicode = 0046;
},
{
glyphname = G;
layers = (
{
anchors = (
{
name = bottom;
position = "{415, 0}";
},
{
name = top;
position = "{395, 735}";
}
);
guideLines = (
{
angle = 90;
position = "{606, 395}";
},
{
angle = 103.1164;
position = "{640, 0}";
}
);
layerId = "EE746D13-63D7-48F9-B77E-C723CA6A668B";
paths = (
{
closed = 1;
nodes = (
"461 258 LINE",
"591 258 LINE",
"591 206 LINE SMOOTH",
"591 151 OFFCURVE",
"524 70 OFFCURVE",
"405 70 CURVE SMOOTH",
"248 70 OFFCURVE",
"160 182 OFFCURVE",
"160 373 CURVE SMOOTH",
"160 568 OFFCURVE",
"270 678 OFFCURVE",
"421 678 CURVE SMOOTH",
"518 678 OFFCURVE",
"584 636 OFFCURVE",
"606 597 CURVE",
"567 597 OFFCURVE",
"529 569 OFFCURVE",
"529 519 CURVE SMOOTH",
"529 469 OFFCURVE",
"563 438 OFFCURVE",
"615 438 CURVE SMOOTH",
"670 438 OFFCURVE",
"708 482 OFFCURVE",
"708 537 CURVE SMOOTH",
"708 648 OFFCURVE",
"578 750 OFFCURVE",
"412 750 CURVE SMOOTH",
"182 750 OFFCURVE",
"38 586 OFFCURVE",
"38 368 CURVE SMOOTH",
"38 144 OFFCURVE",
"163 -13 OFFCURVE",
"385 -13 CURVE SMOOTH",
"524 -13 OFFCURVE",
"591 59 OFFCURVE",
"613 80 CURVE",
"632 0 LINE",
"698 0 LINE",
"698 258 LINE",
"769 258 LINE",
"769 335 LINE",
"461 335 LINE"
);
}
);
width = 799;
}
);
leftKerningGroup = O;
leftMetricsKey = O;
note = G;
rightKerningGroup = G;
unicode = 0047;
},
{
glyphname = H;
layers = (
{
anchors = (
{
name = bottom;
position = "{438, 0}";
},
{
name = strokelong;
position = "{438, 548}";
},
{
name = top;
position = "{438, 735}";
}
);
guideLines = (
{
angle = 90;
position = "{438, 700}";
}
);
layerId = "EE746D13-63D7-48F9-B77E-C723CA6A668B";
paths = (
{
closed = 1;
nodes = (
"378 0 LINE",
"378 70 LINE",
"266 70 LINE",
"266 354 LINE",
"611 354 LINE",
"611 70 LINE",
"498 70 LINE",
"498 0 LINE",
"835 0 LINE",
"835 70 LINE",
"726 70 LINE",
"726 665 LINE",
"835 665 LINE",
"835 735 LINE",
"498 735 LINE",
"498 665 LINE",
"611 665 LINE",
"611 416 LINE",
"266 416 LINE",
"266 665 LINE",
"378 665 LINE",
"378 735 LINE",
"42 735 LINE",
"42 665 LINE",
"151 665 LINE",
"151 70 LINE",
"42 70 LINE",
"42 0 LINE"
);
}
);
width = 877;
}
);
leftKerningGroup = H;
note = H;
rightKerningGroup = H;
unicode = 0048;
},
{
glyphname = I;
layers = (
{
anchors = (
{
name = bottom;
position = "{223, 0}";
},
{
name = ogonek;
position = "{350, 0}";
},
{
name = top;
position = "{223, 735}";
}
);
background = {
paths = (
{
closed = 1;
nodes = (
"405 0 LINE",
"405 70 LINE",
"275 70 LINE",
"275 665 LINE",
"405 665 LINE",
"405 735 LINE",
"40 735 LINE",
"40 665 LINE",
"156 665 LINE",
"156 70 LINE",
"40 70 LINE",
"40 0 LINE"
);
}
);
};
guideLines = (
{
angle = 90;
position = "{223, 368}";
}
);
layerId = "EE746D13-63D7-48F9-B77E-C723CA6A668B";
paths = (
{
closed = 1;
nodes = (
"405 0 LINE",
"405 70 LINE",
"281 70 LINE",
"281 665 LINE",
"405 665 LINE",
"405 735 LINE",
"40 735 LINE",
"40 665 LINE",
"164 665 LINE",
"164 70 LINE",
"40 70 LINE",
"40 0 LINE"
);
}
);
width = 445;
}
);
leftKerningGroup = H;
note = I;
rightKerningGroup = H;
unicode = 0049;
},
{
glyphname = IJ;
layers = (
{
anchors = (
{
name = bottom;
position = "{182, 0}";
},
{
name = ogonek;
position = "{309, 0}";
},
{
name = top;
position = "{182, 735}";
}
);
layerId = "EE746D13-63D7-48F9-B77E-C723CA6A668B";
paths = (
{
closed = 1;
nodes = (
"405 0 LINE",
"405 70 LINE",
"280 70 LINE",
"280 665 LINE",
"405 665 LINE",
"405 735 LINE",
"40 735 LINE",
"40 665 LINE",
"165 665 LINE",
"165 70 LINE",
"40 70 LINE",
"40 0 LINE"
);
},
{
closed = 1;
nodes = (
"606 -281 OFFCURVE",
"666 -188 OFFCURVE",
"666 -18 CURVE SMOOTH",
"666 665 LINE",
"797 665 LINE",
"797 735 LINE",
"405 735 LINE",
"405 665 LINE",
"556 665 LINE",
"556 -31 LINE SMOOTH",
"556 -145 OFFCURVE",
"544 -226 OFFCURVE",
"441 -226 CURVE SMOOTH",
"410 -226 OFFCURVE",
"363 -214 OFFCURVE",
"351 -196 CURVE",
"378 -180 OFFCURVE",
"405 -149 OFFCURVE",
"405 -114 CURVE SMOOTH",
"405 -67 OFFCURVE",
"367 -36 OFFCURVE",
"324 -36 CURVE SMOOTH",
"279 -36 OFFCURVE",
"241 -68 OFFCURVE",
"241 -123 CURVE SMOOTH",
"241 -210 OFFCURVE",
"325 -281 OFFCURVE",
"444 -281 CURVE SMOOTH"
);
}
);
width = 813;
}
);
leftKerningGroup = H;
leftMetricsKey = I;
rightKerningGroup = H;
rightMetricsKey = J;
unicode = 0132;
},
{
glyphname = J;
layers = (
{
anchors = (
{
name = bottom;
position = "{400, 0}";
},
{
name = top;
position = "{400, 735}";
}
);
guideLines = (
{
angle = 90;
position = "{400, 451}";
}
);
layerId = "EE746D13-63D7-48F9-B77E-C723CA6A668B";
paths = (
{
closed = 1;
nodes = (
"395 -13 OFFCURVE",
"455 80 OFFCURVE",
"455 250 CURVE SMOOTH",
"455 665 LINE",
"586 665 LINE",
"586 735 LINE",
"194 735 LINE",
"194 665 LINE",
"345 665 LINE",
"345 237 LINE SMOOTH",
"345 123 OFFCURVE",
"333 42 OFFCURVE",
"230 42 CURVE SMOOTH",
"199 42 OFFCURVE",
"152 54 OFFCURVE",
"140 72 CURVE",
"167 88 OFFCURVE",
"194 119 OFFCURVE",
"194 154 CURVE SMOOTH",
"194 201 OFFCURVE",
"156 232 OFFCURVE",
"113 232 CURVE SMOOTH",
"68 232 OFFCURVE",
"30 200 OFFCURVE",
"30 145 CURVE SMOOTH",
"30 58 OFFCURVE",
"114 -13 OFFCURVE",
"233 -13 CURVE SMOOTH"
);
}
);
width = 602;
}
);
leftKerningGroup = J;
rightKerningGroup = J;
rightMetricsKey = U;
unicode = 004A;
},
{
glyphname = J.alt;
layers = (
{
anchors = (
{
name = bottom;
position = "{344, 0}";
},
{
name = top;
position = "{339, 735}";
}
);
guideLines = (
{
angle = 90;
position = "{344, 344}";
}
);
layerId = "EE746D13-63D7-48F9-B77E-C723CA6A668B";
paths = (
{
closed = 1;
nodes = (
"339 -228 OFFCURVE",
"399 -135 OFFCURVE",
"399 35 CURVE SMOOTH",
"399 665 LINE",
"530 665 LINE",
"530 735 LINE",
"138 735 LINE",
"138 665 LINE",
"289 665 LINE",
"289 22 LINE SMOOTH",
"289 -92 OFFCURVE",
"277 -173 OFFCURVE",
"174 -173 CURVE SMOOTH",
"143 -173 OFFCURVE",
"96 -161 OFFCURVE",
"84 -143 CURVE",
"111 -127 OFFCURVE",
"138 -96 OFFCURVE",
"138 -61 CURVE SMOOTH",
"138 -14 OFFCURVE",
"100 17 OFFCURVE",
"57 17 CURVE SMOOTH",
"12 17 OFFCURVE",
"-26 -15 OFFCURVE",
"-26 -70 CURVE SMOOTH",
"-26 -157 OFFCURVE",
"58 -228 OFFCURVE",
"177 -228 CURVE SMOOTH"
);
}
);
width = 530;
}
);
leftKerningGroup = J;
note = J;
rightKerningGroup = J;
},
{
glyphname = K;
layers = (
{
anchors = (
{
name = bottom;
position = "{433, 0}";
},
{
name = top;
position = "{433, 735}";
}
);
guideLines = (
{
angle = 42.8789;
position = "{444, 509}";
},
{
angle = 42.8789;
position = "{537, 509}";
},
{
angle = 128.7351;
position = "{582, 70}";
},
{
angle = 128.7351;
position = "{606, 209}";
}
);
layerId = "EE746D13-63D7-48F9-B77E-C723CA6A668B";
paths = (
{
closed = 1;
nodes = (
"379 0 LINE",
"379 70 LINE",
"276 70 LINE",
"276 267 LINE",
"361 346 LINE",
"582 70 LINE",
"473 70 LINE",
"473 0 LINE",
"804 0 LINE",
"804 70 LINE",
"717 70 LINE",
"439 418 LINE",
"705 665 LINE",
"795 665 LINE",
"795 735 LINE",
"488 735 LINE",
"488 665 LINE",
"600 665 LINE",
"276 359 LINE",
"276 665 LINE",
"379 665 LINE",
"379 735 LINE",
"42 735 LINE",
"42 665 LINE",
"161 665 LINE",
"161 70 LINE",
"42 70 LINE",
"42 0 LINE"
);
}
);
width = 822;
}
);
leftKerningGroup = H;
leftMetricsKey = H;
note = K;
rightKerningGroup = B;
unicode = 004B;
},
{
glyphname = L;
layers = (
{
anchors = (
{
name = bottom;
position = "{351, 0}";
},
{
name = caron;
position = "{569, 524}";
},
{
name = slashshort;
position = "{218, 340}";
},
{
name = top;
position = "{220, 735}";
}
);
layerId = "EE746D13-63D7-48F9-B77E-C723CA6A668B";
paths = (
{
closed = 1;
nodes = (
"660 0 LINE",
"660 305 LINE",
"569 305 LINE",
"569 70 LINE",
"276 70 LINE",
"276 665 LINE",
"388 665 LINE",
"388 735 LINE",
"42 735 LINE",
"42 665 LINE",
"160 665 LINE",
"160 70 LINE",
"42 70 LINE",
"42 0 LINE"
);
}
);
width = 696;
}
);
leftKerningGroup = H;
leftMetricsKey = H;
note = L;
rightKerningGroup = L;
unicode = 004C;
},
{
glyphname = Lslash;
layers = (
{
anchors = (
{
name = _slashshort;
position = "{208, 340}";
}
);
components = (
{
name = L;
}
);
layerId = "EE746D13-63D7-48F9-B77E-C723CA6A668B";
paths = (
{
closed = 1;
nodes = (
"173 277 LINE",
"241 322 LINE",
"450 472 LINE",
"402 530 LINE",
"227 405 LINE",
"167 366 LINE",
"21 262 LINE",
"69 204 LINE"
);
}
);
width = 686;
}
);
leftKerningGroup = H;
rightKerningGroup = L;
unicode = 0141;
},
{
glyphname = M;
layers = (
{
anchors = (
{
name = bottom;
position = "{540, 0}";
},
{
name = top;
position = "{539, 735}";
}
);
guideLines = (
{
position = "{498, 106}";
},
{
angle = 64.9228;
position = "{650, 501}";
},
{
angle = 64.9228;
position = "{733, 501}";
},
{
angle = 113.9625;
position = "{436, 501}";
},
{
angle = 113.9625;
position = "{316, 501}";
},
{
position = "{100, 665}";
},
{
angle = 90;
position = "{539, 269}";
}
);
layerId = "EE746D13-63D7-48F9-B77E-C723CA6A668B";
paths = (
{
closed = 1;
nodes = (
"364 0 LINE",
"364 70 LINE",
"241 70 LINE",
"241 665 LINE",
"243 665 LINE",
"492 106 LINE",
"548 106 LINE",
"805 655 LINE",
"805 70 LINE",
"698 70 LINE",
"698 0 LINE",
"1041 0 LINE",
"1041 70 LINE",
"920 70 LINE",
"920 665 LINE",
"1034 665 LINE",
"1034 735 LINE",
"843 735 LINE",
"759 735 LINE",
"540 267 LINE",
"332 735 LINE",
"212 735 LINE",
"42 735 LINE",
"42 665 LINE",
"158 665 LINE",
"158 70 LINE",
"51 70 LINE",
"51 0 LINE"
);
}
);
width = 1083;
}
);
leftKerningGroup = H;
leftMetricsKey = H;
note = M;
rightKerningGroup = H;
rightMetricsKey = H;
unicode = 004D;
},
{
glyphname = N;
layers = (
{
anchors = (
{
name = bottom;
position = "{449, 0}";
},
{
name = top;
position = "{449, 735}";
}
);
guideLines = (
{
angle = 121.1028;
position = "{479, 433}";
},
{
angle = 121.1028;
position = "{363, 433}";
},
{
angle = 90;
position = "{449, 368}";
}
);
layerId = "EE746D13-63D7-48F9-B77E-C723CA6A668B";
paths = (
{
closed = 1;
nodes = (
"355 0 LINE",
"355 70 LINE",
"243 70 LINE",
"243 631 LINE",
"612 0 LINE",
"744 0 LINE",
"744 665 LINE",
"856 665 LINE",
"856 735 LINE",
"542 735 LINE",
"542 665 LINE",
"661 665 LINE",
"661 130 LINE",
"308 735 LINE",
"181 735 LINE",
"42 735 LINE",
"42 665 LINE",
"160 665 LINE",
"160 70 LINE",
"42 70 LINE",
"42 0 LINE"
);
}
);
width = 868;
}
);
leftKerningGroup = H;
leftMetricsKey = H;
note = N;
rightKerningGroup = H;
unicode = 004E;
},
{
glyphname = Eng;
layers = (
{
anchors = (
{
name = bottom;
position = "{449, 0}";
},
{
name = top;
position = "{449, 735}";
}
);
layerId = "EE746D13-63D7-48F9-B77E-C723CA6A668B";
paths = (
{
closed = 1;
nodes = (
"355 0 LINE",
"355 70 LINE",
"243 70 LINE",
"243 631 LINE",
"609 0 LINE",
"744 0 LINE",
"744 665 LINE",
"856 665 LINE",
"856 735 LINE",
"542 735 LINE",
"542 665 LINE",
"661 665 LINE",
"661 130 LINE",
"311 735 LINE",
"181 735 LINE",
"42 735 LINE",
"42 665 LINE",
"160 665 LINE",
"160 70 LINE",
"42 70 LINE",
"42 0 LINE"
);
},
{
closed = 1;
nodes = (
"675 -230 OFFCURVE",
"744 -164 OFFCURVE",
"744 -44 CURVE SMOOTH",
"744 114 LINE",
"661 114 LINE",
"661 -59 LINE SMOOTH",
"661 -129 OFFCURVE",
"628 -181 OFFCURVE",
"570 -181 CURVE SMOOTH",
"557 -181 OFFCURVE",
"534 -178 OFFCURVE",
"525 -171 CURVE",
"536 -163 OFFCURVE",
"552 -146 OFFCURVE",
"552 -119 CURVE SMOOTH",
"552 -84 OFFCURVE",
"523 -55 OFFCURVE",
"488 -55 CURVE SMOOTH",
"453 -55 OFFCURVE",
"424 -84 OFFCURVE",
"424 -119 CURVE SMOOTH",
"424 -181 OFFCURVE",
"476 -230 OFFCURVE",
"572 -230 CURVE SMOOTH"
);
}
);
width = 872;
}
);
leftKerningGroup = H;
leftMetricsKey = N;
rightKerningGroup = J;
rightMetricsKey = J;
unicode = 014A;
},
{
glyphname = O;
layers = (
{
anchors = (
{
name = bottom;
position = "{392, 0}";
},
{
name = horn;
position = "{500, 735}";
},
{
name = slashlong;
position = "{392, 369}";
},
{
name = top;
position = "{392, 735}";
}
);
guideLines = (
{
angle = 90;
position = "{392, 369}";
}
);
layerId = "EE746D13-63D7-48F9-B77E-C723CA6A668B";
paths = (
{
closed = 1;
nodes = (
"613 -13 OFFCURVE",
"746 153 OFFCURVE",
"746 369 CURVE SMOOTH",
"746 585 OFFCURVE",
"613 750 OFFCURVE",
"392 750 CURVE SMOOTH",
"171 750 OFFCURVE",
"38 585 OFFCURVE",
"38 369 CURVE SMOOTH",
"38 153 OFFCURVE",
"171 -13 OFFCURVE",
"392 -13 CURVE SMOOTH"
);
},
{
closed = 1;
nodes = (
"243 57 OFFCURVE",
"165 215 OFFCURVE",
"165 369 CURVE SMOOTH",
"165 523 OFFCURVE",
"243 680 OFFCURVE",
"392 680 CURVE SMOOTH",
"537 680 OFFCURVE",
"619 523 OFFCURVE",
"619 369 CURVE SMOOTH",
"619 215 OFFCURVE",
"545 57 OFFCURVE",
"392 57 CURVE SMOOTH"
);
}
);
width = 784;
}
);
leftKerningGroup = O;
note = O;
rightKerningGroup = O;
unicode = 004F;
},
{
glyphname = OE;
layers = (
{
layerId = "EE746D13-63D7-48F9-B77E-C723CA6A668B";
paths = (
{
closed = 1;
nodes = (
"1043 0 LINE",
"1043 279 LINE",
"955 279 LINE",
"955 67 LINE",
"616 67 LINE",
"616 341 LINE",
"779 341 LINE",
"779 214 LINE",
"844 214 LINE",
"844 517 LINE",
"779 517 LINE",
"779 397 LINE",
"616 397 LINE",
"616 652 LINE",
"955 652 LINE",
"955 439 LINE",
"1043 439 LINE",
"1043 722 LINE",
"374 722 LINE SMOOTH",
"176 722 OFFCURVE",
"38 573 OFFCURVE",
"38 362 CURVE SMOOTH",
"38 154 OFFCURVE",
"172 0 OFFCURVE",
"372 0 CURVE SMOOTH"
);
},
{
closed = 1;
nodes = (
"375 67 LINE SMOOTH",
"254 67 OFFCURVE",
"163 181 OFFCURVE",
"163 363 CURVE SMOOTH",
"163 527 OFFCURVE",
"242 652 OFFCURVE",
"390 652 CURVE SMOOTH",
"506 652 LINE",
"506 67 LINE"
);
}
);
width = 1118;
}
);
leftKerningGroup = O;
leftMetricsKey = O;
rightKerningGroup = E;
rightMetricsKey = E;
unicode = 0152;
},
{
glyphname = P;
layers = (
{
anchors = (
{
name = top;
position = "{355, 735}";
}
);
guideLines = (
{
angle = 90;
position = "{342, 700}";
}
);
layerId = "EE746D13-63D7-48F9-B77E-C723CA6A668B";
paths = (
{
closed = 1;
nodes = (
"408 0 LINE",
"408 70 LINE",
"276 70 LINE",
"276 309 LINE",
"352 309 LINE SMOOTH",
"518 309 OFFCURVE",
"668 364 OFFCURVE",
"668 523 CURVE SMOOTH",
"668 681 OFFCURVE",
"551 735 OFFCURVE",
"392 735 CURVE SMOOTH",
"42 735 LINE",
"42 665 LINE",
"161 665 LINE",
"161 70 LINE",
"42 70 LINE",
"42 0 LINE"
);
},
{
closed = 1;
nodes = (
"276 665 LINE",
"362 665 LINE SMOOTH",
"481 665 OFFCURVE",
"550 628 OFFCURVE",
"550 519 CURVE SMOOTH",
"550 426 OFFCURVE",
"471 373 OFFCURVE",
"352 373 CURVE SMOOTH",
"276 373 LINE"
);
}
);
width = 686;
}
);
leftKerningGroup = H;
leftMetricsKey = H;
note = P;
rightKerningGroup = P;
unicode = 0050;
},
{
glyphname = Thorn;
layers = (
{
layerId = "EE746D13-63D7-48F9-B77E-C723CA6A668B";
paths = (
{
closed = 1;
nodes = (
"42 0 LINE",
"407 0 LINE",
"407 67 LINE",
"282 67 LINE",
"282 185 LINE",
"378 185 LINE SMOOTH",
"507 185 OFFCURVE",
"674 199 OFFCURVE",
"674 379 CURVE SMOOTH",
"674 559 OFFCURVE",
"507 572 OFFCURVE",
"378 572 CURVE SMOOTH",
"282 572 LINE",
"282 665 LINE",
"397 665 LINE",
"397 735 LINE",
"42 735 LINE",
"42 665 LINE",
"167 665 LINE",
"167 67 LINE",
"42 67 LINE"
);
},
{
closed = 1;
nodes = (
"282 248 LINE",
"282 502 LINE",
"378 502 LINE SMOOTH",
"467 502 OFFCURVE",
"556 480 OFFCURVE",
"556 375 CURVE SMOOTH",
"556 270 OFFCURVE",
"467 248 OFFCURVE",
"380 248 CURVE SMOOTH"
);
}
);
width = 692;
}
);
leftKerningGroup = H;
leftMetricsKey = H;
rightKerningGroup = B;
rightMetricsKey = P;
unicode = 00DE;
},
{
glyphname = Q;
layers = (
{
layerId = "EE746D13-63D7-48F9-B77E-C723CA6A668B";
paths = (
{
closed = 1;
nodes = (
"756 -118 OFFCURVE",
"821 -59 OFFCURVE",
"821 85 CURVE",
"755 85 LINE",
"755 -1 OFFCURVE",
"726 -32 OFFCURVE",
"685 -32 CURVE SMOOTH",
"647 -32 OFFCURVE",
"631 -7 OFFCURVE",
"600 52 CURVE",
"692 129 OFFCURVE",
"746 248 OFFCURVE",
"746 369 CURVE SMOOTH",
"746 585 OFFCURVE",
"613 750 OFFCURVE",
"392 750 CURVE SMOOTH",
"171 750 OFFCURVE",
"38 585 OFFCURVE",
"38 369 CURVE SMOOTH",
"38 153 OFFCURVE",
"179 -13 OFFCURVE",
"392 -13 CURVE SMOOTH",
"438 -13 OFFCURVE",
"479 -6 OFFCURVE",
"516 7 CURVE",
"551 -71 OFFCURVE",
"594 -118 OFFCURVE",
"670 -118 CURVE SMOOTH"
);
},
{
closed = 1;
nodes = (
"320 57 OFFCURVE",
"261 85 OFFCURVE",
"261 109 CURVE",
"258 158 OFFCURVE",
"308 183 OFFCURVE",
"342 183 CURVE SMOOTH",
"399 183 OFFCURVE",
"444 146 OFFCURVE",
"475 74 CURVE",
"450 62 OFFCURVE",
"423 57 OFFCURVE",
"392 57 CURVE SMOOTH"
);
},
{
closed = 1;
nodes = (
"512 207 OFFCURVE",
"441 245 OFFCURVE",
"369 245 CURVE SMOOTH",
"280 245 OFFCURVE",
"231 194 OFFCURVE",
"224 154 CURVE",
"190 210 OFFCURVE",
"165 291 OFFCURVE",
"165 369 CURVE SMOOTH",
"165 523 OFFCURVE",
"243 680 OFFCURVE",
"392 680 CURVE SMOOTH",
"541 680 OFFCURVE",
"619 523 OFFCURVE",
"619 369 CURVE SMOOTH",
"619 285 OFFCURVE",
"592 196 OFFCURVE",
"551 141 CURVE"
);
}
);
width = 805;
}
);
leftKerningGroup = O;
leftMetricsKey = O;
note = Q;
rightKerningGroup = Q;
unicode = 0051;
},
{
glyphname = R;
layers = (
{
anchors = (
{
name = bottom;
position = "{395, 0}";
},
{
name = top;
position = "{375, 735}";
}
);
background = {
paths = (
{
closed = 1;
nodes = (
"749 -16 OFFCURVE",
"798 42 OFFCURVE",
"798 162 CURVE",
"798 187 LINE",
"732 187 LINE",
"732 162 LINE",
"732 101 OFFCURVE",
"715 70 OFFCURVE",
"682 70 CURVE SMOOTH",
"665 70 OFFCURVE",
"651 81 OFFCURVE",
"644 94 CURVE SMOOTH",
"635 108 OFFCURVE",
"627 135 OFFCURVE",
"623 156 CURVE SMOOTH",
"619 177 OFFCURVE",
"611 213 OFFCURVE",
"605 235 CURVE SMOOTH",
"595 272 OFFCURVE",
"587 294 OFFCURVE",
"569 317 CURVE SMOOTH",
"552 339 OFFCURVE",
"527 352 OFFCURVE",
"490 360 CURVE",
"545 371 OFFCURVE",
"584 386 OFFCURVE",
"619 414 CURVE SMOOTH",
"653 441 OFFCURVE",
"672 484 OFFCURVE",
"672 541 CURVE SMOOTH",
"672 568 OFFCURVE",
"668 591 OFFCURVE",
"660 612 CURVE SMOOTH",
"643 654 OFFCURVE",
"622 679 OFFCURVE",
"580 698 CURVE SMOOTH",
"538 717 OFFCURVE",
"510 725 OFFCURVE",
"455 730 CURVE SMOOTH",
"400 735 OFFCURVE",
"378 735 OFFCURVE",
"323 735 CURVE SMOOTH",
"42 735 LINE",
"42 665 LINE",
"161 665 LINE",
"161 70 LINE",
"42 70 LINE",
"42 0 LINE",
"387 0 LINE",
"387 70 LINE",
"276 70 LINE",
"276 335 LINE",
"391 335 LINE SMOOTH",
"395 335 OFFCURVE",
"400 334 OFFCURVE",
"406 333 CURVE SMOOTH",
"417 330 OFFCURVE",
"437 318 OFFCURVE",
"453 302 CURVE SMOOTH",
"468 286 OFFCURVE",
"484 254 OFFCURVE",
"491 215 CURVE SMOOTH",
"496 184 OFFCURVE",
"502 157 OFFCURVE",
"507 135 CURVE SMOOTH",
"518 91 OFFCURVE",
"535 47 OFFCURVE",
"557 23 CURVE SMOOTH",
"579 0 OFFCURVE",
"611 -16 OFFCURVE",
"652 -16 CURVE SMOOTH"
);
},
{
closed = 1;
nodes = (
"276 665 LINE",
"333 665 LINE SMOOTH",
"417 665 OFFCURVE",
"469 658 OFFCURVE",
"510 639 CURVE SMOOTH",
"551 619 OFFCURVE",
"569 585 OFFCURVE",
"569 532 CURVE SMOOTH",
"569 501 OFFCURVE",
"560 477 OFFCURVE",
"541 458 CURVE SMOOTH",
"503 421 OFFCURVE",
"439 408 OFFCURVE",
"337 408 CURVE SMOOTH",
"276 408 LINE"
);
}
);
};
guideLines = (
{
angle = 90;
position = "{357, 700}";
},
{
angle = 270;
position = "{375, 531}";
}
);
layerId = "EE746D13-63D7-48F9-B77E-C723CA6A668B";
paths = (
{
closed = 1;
nodes = (
"750 -19 OFFCURVE",
"795 34 OFFCURVE",
"795 139 CURVE",
"795 178 LINE",
"729 178 LINE",
"729 139 LINE",
"729 84 OFFCURVE",
"717 57 OFFCURVE",
"680 57 CURVE SMOOTH",
"648 57 OFFCURVE",
"635 84 OFFCURVE",
"633 139 CURVE SMOOTH",
"629 239 OFFCURVE",
"610 354 OFFCURVE",
"448 354 CURVE",
"473 344 LINE",
"586 359 OFFCURVE",
"688 411 OFFCURVE",
"688 531 CURVE SMOOTH",
"688 710 OFFCURVE",
"532 735 OFFCURVE",
"357 735 CURVE SMOOTH",
"42 735 LINE",
"42 665 LINE",
"161 665 LINE",
"161 70 LINE",
"42 70 LINE",
"42 0 LINE",
"387 0 LINE",
"387 70 LINE",
"274 70 LINE",
"274 325 LINE",
"372 325 LINE",
"501 325 OFFCURVE",
"512 225 OFFCURVE",
"512 129 CURVE SMOOTH",
"512 42 OFFCURVE",
"548 -19 OFFCURVE",
"652 -19 CURVE SMOOTH"
);
},
{
closed = 1;
nodes = (
"274 665 LINE",
"357 665 LINE SMOOTH",
"458 665 OFFCURVE",
"573 651 OFFCURVE",
"573 531 CURVE SMOOTH",
"573 429 OFFCURVE",
"488 397 OFFCURVE",
"397 397 CURVE SMOOTH",
"274 397 LINE"
);
}
);
width = 804;
}
);
leftKerningGroup = H;
leftMetricsKey = H;
note = R;
rightKerningGroup = B;
unicode = 0052;
},
{
glyphname = S;
layers = (
{
anchors = (
{
name = bottom;
position = "{345, 0}";
},
{
name = top;
position = "{335, 735}";
}
);
guideLines = (
{
angle = 90;
position = "{335, 430}";
}
);
layerId = "EE746D13-63D7-48F9-B77E-C723CA6A668B";
paths = (
{
closed = 1;
nodes = (
"518 -13 OFFCURVE",
"618 75 OFFCURVE",
"618 194 CURVE SMOOTH",
"618 333 OFFCURVE",
"505 381 OFFCURVE",
"335 429 CURVE SMOOTH",
"244 455 OFFCURVE",
"159 480 OFFCURVE",
"159 563 CURVE SMOOTH",
"159 639 OFFCURVE",
"243 678 OFFCURVE",
"340 678 CURVE SMOOTH",
"411 678 OFFCURVE",
"467 667 OFFCURVE",
"505 636 CURVE",
"469 636 OFFCURVE",
"438 612 OFFCURVE",
"438 565 CURVE SMOOTH",
"438 519 OFFCURVE",
"477 491 OFFCURVE",
"520 491 CURVE SMOOTH",
"573 491 OFFCURVE",
"603 532 OFFCURVE",
"603 584 CURVE SMOOTH",
"603 700 OFFCURVE",
"459 750 OFFCURVE",
"338 750 CURVE SMOOTH",
"172 750 OFFCURVE",
"57 663 OFFCURVE",
"57 543 CURVE SMOOTH",
"57 422 OFFCURVE",
"146 368 OFFCURVE",
"309 322 CURVE SMOOTH",
"433 287 OFFCURVE",
"517 259 OFFCURVE",
"517 177 CURVE SMOOTH",
"517 94 OFFCURVE",
"432 59 OFFCURVE",
"323 59 CURVE SMOOTH",
"239 59 OFFCURVE",
"176 83 OFFCURVE",
"145 115 CURVE",
"187 120 OFFCURVE",
"214 154 OFFCURVE",
"214 197 CURVE SMOOTH",
"214 233 OFFCURVE",
"180 267 OFFCURVE",
"136 267 CURVE SMOOTH",
"89 267 OFFCURVE",
"48 228 OFFCURVE",
"48 174 CURVE SMOOTH",
"48 55 OFFCURVE",
"186 -13 OFFCURVE",
"329 -13 CURVE SMOOTH"
);
}
);
width = 672;
}
);
leftKerningGroup = S;
rightKerningGroup = S;
unicode = 0053;
},
{
glyphname = Germandbls;
layers = (
{
anchors = (
{
name = bottom;
position = "{189, 0}";
}
);
layerId = "EE746D13-63D7-48F9-B77E-C723CA6A668B";
paths = (
{
closed = 1;
nodes = (
"513 681 OFFCURVE",
"581 633 OFFCURVE",
"581 564 CURVE",
"405 397 LINE",
"446 353 LINE",
"588 353 OFFCURVE",
"647 289 OFFCURVE",
"647 204 CURVE SMOOTH",
"647 97 OFFCURVE",
"583 52 OFFCURVE",
"504 52 CURVE SMOOTH",
"440 52 OFFCURVE",
"394 85 OFFCURVE",
"387 121 CURVE",
"412 128 OFFCURVE",
"430 156 OFFCURVE",
"430 188 CURVE SMOOTH",
"430 230 OFFCURVE",
"403 259 OFFCURVE",
"359 259 CURVE SMOOTH",
"305 259 OFFCURVE",
"288 213 OFFCURVE",
"288 188 CURVE SMOOTH",
"288 86 OFFCURVE",
"358 -14 OFFCURVE",
"523 -14 CURVE SMOOTH",
"660 -14 OFFCURVE",
"772 72 OFFCURVE",
"772 204 CURVE SMOOTH",
"772 310 OFFCURVE",
"686 412 OFFCURVE",
"527 416 CURVE",
"682 554 LINE",
"682 646 OFFCURVE",
"611 751 OFFCURVE",
"416 751 CURVE SMOOTH",
"240 751 OFFCURVE",
"113 662 OFFCURVE",
"113 471 CURVE SMOOTH",
"113 70 LINE",
"18 70 LINE",
"18 0 LINE",
"228 0 LINE",
"228 471 LINE SMOOTH",
"228 618 OFFCURVE",
"304 681 OFFCURVE",
"426 681 CURVE SMOOTH"
);
}
);
width = 818;
}
);
leftMetricsKey = U;
rightMetricsKey = three;
unicode = 1E9E;
},
{
glyphname = Schwa;
layers = (
{
layerId = "EE746D13-63D7-48F9-B77E-C723CA6A668B";
paths = (
{
closed = 1;
nodes = (
"228 750 OFFCURVE",
"112 659 OFFCURVE",
"64 498 CURVE",
"147 478 LINE",
"184 589 OFFCURVE",
"261 667 OFFCURVE",
"380 667 CURVE SMOOTH",
"535 667 OFFCURVE",
"619 523 OFFCURVE",
"619 369 CURVE",
"36 369 LINE",
"36 153 OFFCURVE",
"169 -13 OFFCURVE",
"390 -13 CURVE SMOOTH",
"611 -13 OFFCURVE",
"744 153 OFFCURVE",
"744 369 CURVE SMOOTH",
"744 585 OFFCURVE",
"611 750 OFFCURVE",
"390 750 CURVE SMOOTH"
);
},
{
closed = 1;
nodes = (
"261 57 OFFCURVE",
"184 175 OFFCURVE",
"165 307 CURVE",
"615 307 LINE",
"597 175 OFFCURVE",
"522 57 OFFCURVE",
"390 57 CURVE SMOOTH"
);
}
);
width = 780;
}
);
leftKerningGroup = O;
leftMetricsKey = O;
rightKerningGroup = O;
rightMetricsKey = O;
unicode = 018F;
},
{
glyphname = T;
layers = (
{
anchors = (
{
name = bottom;
position = "{384, 0}";
},
{
name = strokeshort;
position = "{539, 286}";
},
{
name = top;
position = "{374, 735}";
}
);
guideLines = (
{
angle = 90;
position = "{374, 368}";
}
);
layerId = "EE746D13-63D7-48F9-B77E-C723CA6A668B";
paths = (
{
closed = 1;
nodes = (
"561 0 LINE",
"561 70 LINE",
"431 70 LINE",
"431 665 LINE",
"616 665 LINE",
"616 438 LINE",
"707 438 LINE",
"707 735 LINE",
"40 735 LINE",
"40 438 LINE",
"131 438 LINE",
"131 665 LINE",
"316 665 LINE",
"316 70 LINE",
"186 70 LINE",
"186 0 LINE"
);
}
);
width = 747;
}
);
leftKerningGroup = T;
note = T;
rightKerningGroup = T;
unicode = 0054;
},
{
glyphname = U;
layers = (
{
anchors = (
{
name = bottom;
position = "{401, 0}";
},
{
name = horn;
position = "{543, 735}";
},
{
name = ogonek;
position = "{444, 0}";
},
{
name = top;
position = "{401, 735}";
}
);
guideLines = (
{
angle = 90;
position = "{401, 700}";
}
);
layerId = "EE746D13-63D7-48F9-B77E-C723CA6A668B";
paths = (
{
closed = 1;
nodes = (
"590 -13 OFFCURVE",
"682 90 OFFCURVE",
"682 277 CURVE SMOOTH",
"682 665 LINE",
"774 665 LINE",
"774 735 LINE",
"485 735 LINE",
"485 665 LINE",
"599 665 LINE",
"599 263 LINE SMOOTH",
"599 138 OFFCURVE",
"529 60 OFFCURVE",
"410 60 CURVE SMOOTH",
"288 60 OFFCURVE",
"221 137 OFFCURVE",
"221 260 CURVE SMOOTH",
"221 665 LINE",
"329 665 LINE",
"329 735 LINE",
"18 735 LINE",
"18 665 LINE",
"106 665 LINE",
"106 262 LINE SMOOTH",
"106 97 OFFCURVE",
"203 -13 OFFCURVE",
"391 -13 CURVE SMOOTH"
);
}
);
width = 790;
}
);
leftKerningGroup = U;
note = U;
rightKerningGroup = J;
unicode = 0055;
},
{
glyphname = Uhorn;
layers = (
{
anchors = (
{
name = bottom;
position = "{403, 0}";
},
{
name = ogonek;
position = "{446, 0}";
},
{
name = top;
position = "{403, 735}";
}
);
layerId = "EE746D13-63D7-48F9-B77E-C723CA6A668B";
paths = (
{
closed = 1;
nodes = (
"659 802 LINE",
"635 854 LINE",
"668 854 OFFCURVE",
"730 833 OFFCURVE",
"730 784 CURVE SMOOTH",
"730 748 OFFCURVE",
"710 735 OFFCURVE",
"644 735 CURVE",
"684 667 LINE",
"741 667 OFFCURVE",
"804 701 OFFCURVE",
"804 770 CURVE SMOOTH",
"804 843 OFFCURVE",
"766 906 OFFCURVE",
"646 912 CURVE",
"772 949 LINE"
);
},
{
closed = 1;
nodes = (
"592 -13 OFFCURVE",
"684 90 OFFCURVE",
"684 277 CURVE SMOOTH",
"684 667 LINE",
"776 735 LINE",
"487 735 LINE",
"487 665 LINE",
"601 665 LINE",
"601 263 LINE SMOOTH",
"601 138 OFFCURVE",
"531 60 OFFCURVE",
"412 60 CURVE SMOOTH",
"290 60 OFFCURVE",
"223 137 OFFCURVE",
"223 260 CURVE SMOOTH",
"223 665 LINE",
"331 665 LINE",
"331 735 LINE",
"18 735 LINE",
"18 665 LINE",
"108 665 LINE",
"108 262 LINE SMOOTH",
"108 97 OFFCURVE",
"205 -13 OFFCURVE",
"393 -13 CURVE SMOOTH"
);
}
);
width = 793;
}
);
leftKerningGroup = U;
leftMetricsKey = U;
rightKerningGroup = J;
unicode = 01AF;
},
{
glyphname = V;
layers = (
{
guideLines = (
{
angle = 90;
position = "{381, 549}";
},
{
angle = 250.4877;
position = "{560, 396}";
},
{
angle = 109.6067;
position = "{165, 396}";
},
{
angle = 109.6067;
position = "{285, 396}";
}
);
layerId = "EE746D13-63D7-48F9-B77E-C723CA6A668B";
paths = (
{
closed = 1;
nodes = (
"420 0 LINE",
"655 665 LINE",
"750 665 LINE",
"750 735 LINE",
"448 735 LINE",
"448 665 LINE",
"572 665 LINE",
"364 77 LINE",
"391 77 LINE",
"193 665 LINE",
"297 665 LINE",
"297 735 LINE",
"-15 735 LINE",
"-15 665 LINE",
"69 665 LINE",
"306 0 LINE"
);
}
);
width = 730;
}
);
leftKerningGroup = V;
rightKerningGroup = V;
unicode = 0056;
},
{
glyphname = W;
layers = (
{
anchors = (
{
name = bottom;
position = "{539, 0}";
},
{
name = top;
position = "{539, 735}";
}
);
guideLines = (
{
position = "{525, 504}";
},
{
position = "{327, 119}";
},
{
angle = 72;
position = "{743, 126}";
},
{
angle = 107.8384;
position = "{291, 333}";
},
{
angle = 72;
position = "{826, 126}";
},
{
angle = 107.8384;
position = "{171, 333}";
},
{
angle = 104.0867;
position = "{570, 398}";
},
{
angle = 90;
position = "{539, 520}";
}
);
layerId = "EE746D13-63D7-48F9-B77E-C723CA6A668B";
paths = (
{
closed = 1;
nodes = (
"820 665 LINE",
"967 665 LINE",
"931 714 LINE",
"731 70 LINE",
"759 70 LINE",
"608 665 LINE",
"500 665 LINE",
"339 81 LINE",
"360 81 LINE",
"191 714 LINE",
"154 665 LINE",
"325 665 LINE",
"325 735 LINE",
"-12 735 LINE",
"-12 665 LINE",
"86 665 LINE",
"279 0 LINE",
"391 0 LINE",
"550 570 LINE",
"523 570 LINE",
"675 0 LINE",
"789 0 LINE",
"998 665 LINE",
"1086 665 LINE",
"1086 735 LINE",
"820 735 LINE"
);
}
);
width = 1074;
}
);
leftKerningGroup = V;
rightKerningGroup = V;
unicode = 0057;
},
{
glyphname = X;
layers = (
{
anchors = (
{
name = bottom;
position = "{381, 0}";
},
{
name = top;
position = "{381, 736}";
}
);
guideLines = (
{
angle = -56.0409;
position = "{220, 518}";
},
{
angle = -57.4042;
position = "{322, 561}";
},
{
angle = 54.2026;
position = "{488, 561}";
},
{
angle = 54.2515;
position = "{545, 524}";
},
{
angle = 123.4564;
position = "{448, 184}";
},
{
angle = 233.3326;
position = "{265, 184}";
}
);
layerId = "EE746D13-63D7-48F9-B77E-C723CA6A668B";
paths = (
{
closed = 1;
nodes = (
"280 0 LINE",
"280 70 LINE",
"180 70 LINE",
"362 314 LINE",
"523 70 LINE",
"427 70 LINE",
"427 0 LINE",
"754 0 LINE",
"754 70 LINE",
"658 70 LINE",
"443 383 LINE",
"646 665 LINE",
"735 665 LINE",
"735 735 LINE",
"465 735 LINE",
"465 665 LINE",
"563 665 LINE",
"400 439 LINE",
"256 665 LINE",
"347 665 LINE",
"347 735 LINE",
"25 735 LINE",
"25 665 LINE",
"121 665 LINE",
"319 371 LINE",
"97 70 LINE",
"8 70 LINE",
"8 0 LINE"
);
}
);
width = 762;
}
);
leftKerningGroup = V;
note = X;
rightKerningGroup = V;
unicode = 0058;
},
{
glyphname = Y;
layers = (
{
anchors = (
{
name = bottom;
position = "{369, 0}";
},
{
name = top;
position = "{384, 735}";
}
);
guideLines = (
{
angle = -59.4208;
position = "{215, 665}";
},
{
angle = 59.8476;
position = "{508, 574}";
},
{
angle = 90;
position = "{384, 700}";
}
);
layerId = "EE746D13-63D7-48F9-B77E-C723CA6A668B";
paths = (
{
closed = 1;
nodes = (
"538 0 LINE",
"538 70 LINE",
"426 70 LINE",
"426 291 LINE",
"645 665 LINE",
"737 665 LINE",
"737 735 LINE",
"441 735 LINE",
"441 665 LINE",
"562 665 LINE",
"390 369 LINE",
"215 665 LINE",
"327 665 LINE",
"327 735 LINE",
"0 735 LINE",
"0 665 LINE",
"90 665 LINE",
"311 291 LINE",
"311 70 LINE",
"192 70 LINE",
"192 0 LINE"
);
}
);
width = 737;
}
);
leftKerningGroup = V;
note = Y;
rightKerningGroup = V;
unicode = 0059;
},
{
glyphname = Z;
layers = (
{
anchors = (
{
name = bottom;
position = "{348, 0}";
},
{
name = top;
position = "{348, 735}";
}
);
guideLines = (
{
angle = 90;
position = "{613, 735}";
},
{
angle = 90;
position = "{105, 81}";
},
{
angle = 233.619;
position = "{415, 376}";
},
{
angle = 90;
position = "{348, 599}";
}
);
layerId = "EE746D13-63D7-48F9-B77E-C723CA6A668B";
paths = (
{
closed = 1;
nodes = (
"629 0 LINE",
"629 288 LINE",
"538 288 LINE",
"538 70 LINE",
"186 70 LINE",
"613 644 LINE",
"613 735 LINE",
"82 735 LINE",
"82 462 LINE",
"173 462 LINE",
"173 668 LINE",
"500 668 LINE",
"65 83 LINE",
"65 0 LINE"
);
}
);
width = 684;
}
);
leftKerningGroup = Z;
rightKerningGroup = Z;
unicode = 005A;
},
{
glyphname = a;
layers = (
{
anchors = (
{
name = bottom;
position = "{268, 0}";
},
{
name = ogonek;
position = "{482, 0}";
},
{
name = top;
position = "{268, 524}";
}
);
guideLines = (
{
angle = 90;
position = "{268, 538}";
}
);
layerId = "EE746D13-63D7-48F9-B77E-C723CA6A668B";
paths = (
{
closed = 1;
nodes = (
"257 -13 OFFCURVE",
"331 38 OFFCURVE",
"359 109 CURVE",
"364 45 OFFCURVE",
"411 -13 OFFCURVE",
"479 -13 CURVE SMOOTH",
"567 -13 OFFCURVE",
"594 51 OFFCURVE",
"594 137 CURVE",
"594 157 LINE",
"541 157 LINE",
"541 138 LINE",
"541 91 OFFCURVE",
"534 56 OFFCURVE",
"499 56 CURVE SMOOTH",
"463 56 OFFCURVE",
"458 91 OFFCURVE",
"458 138 CURVE SMOOTH",
"458 363 LINE SMOOTH",
"458 427 OFFCURVE",
"436 474 OFFCURVE",
"401 500 CURVE SMOOTH",
"365 527 OFFCURVE",
"321 538 OFFCURVE",
"268 538 CURVE SMOOTH",
"202 538 OFFCURVE",
"144 517 OFFCURVE",
"111 487 CURVE SMOOTH",
"79 458 OFFCURVE",
"61 426 OFFCURVE",
"61 399 CURVE SMOOTH",
"61 348 OFFCURVE",
"94 320 OFFCURVE",
"133 320 CURVE SMOOTH",
"170 320 OFFCURVE",
"201 348 OFFCURVE",
"201 389 CURVE SMOOTH",
"201 420 OFFCURVE",
"174 446 OFFCURVE",
"133 446 CURVE",
"156 471 OFFCURVE",
"201 487 OFFCURVE",
"247 487 CURVE SMOOTH",
"313 487 OFFCURVE",
"351 451 OFFCURVE",
"351 377 CURVE SMOOTH",
"351 347 OFFCURVE",
"332 322 OFFCURVE",
"303 305 CURVE SMOOTH",
"274 288 OFFCURVE",
"236 271 OFFCURVE",
"198 257 CURVE SMOOTH",
"160 243 OFFCURVE",
"121 224 OFFCURVE",
"92 203 CURVE SMOOTH",
"63 181 OFFCURVE",
"44 148 OFFCURVE",
"44 109 CURVE SMOOTH",
"44 34 OFFCURVE",
"100 -13 OFFCURVE",
"180 -13 CURVE SMOOTH"
);
},
{
closed = 1;
nodes = (
"168 57 OFFCURVE",
"149 81 OFFCURVE",
"149 114 CURVE SMOOTH",
"149 153 OFFCURVE",
"177 178 OFFCURVE",
"213 196 CURVE SMOOTH",
"247 213 OFFCURVE",
"324 256 OFFCURVE",
"354 285 CURVE",
"354 181 LINE SMOOTH",
"354 163 OFFCURVE",
"347 145 OFFCURVE",
"332 125 CURVE SMOOTH",
"302 86 OFFCURVE",
"251 57 OFFCURVE",
"205 57 CURVE SMOOTH"
);
}
);
width = 596;
}
);
leftKerningGroup = a;
rightKerningGroup = a;
unicode = 0061;
},
{
glyphname = ae;
layers = (
{
anchors = (
{
name = bottom;
position = "{412, 0}";
},
{
name = top;
position = "{440, 524}";
}
);
layerId = "EE746D13-63D7-48F9-B77E-C723CA6A668B";
paths = (
{
closed = 1;
nodes = (
"707 80 OFFCURVE",
"663 60 OFFCURVE",
"618 60 CURVE SMOOTH",
"567 60 OFFCURVE",
"525 83 OFFCURVE",
"501 122 CURVE SMOOTH",
"477 160 OFFCURVE",
"465 208 OFFCURVE",
"465 264 CURVE SMOOTH",
"465 268 LINE",
"840 268 LINE",
"839 352 OFFCURVE",
"813 423 OFFCURVE",
"769 468 CURVE SMOOTH",
"726 512 OFFCURVE",
"668 536 OFFCURVE",
"602 536 CURVE SMOOTH",
"535 536 OFFCURVE",
"473 513 OFFCURVE",
"427 455 CURVE",
"397 517 OFFCURVE",
"336 538 OFFCURVE",
"268 538 CURVE SMOOTH",
"202 538 OFFCURVE",
"144 517 OFFCURVE",
"111 487 CURVE SMOOTH",
"79 458 OFFCURVE",
"61 426 OFFCURVE",
"61 399 CURVE SMOOTH",
"61 348 OFFCURVE",
"94 320 OFFCURVE",
"133 320 CURVE SMOOTH",
"170 320 OFFCURVE",
"201 348 OFFCURVE",
"201 389 CURVE SMOOTH",
"201 420 OFFCURVE",
"174 446 OFFCURVE",
"133 446 CURVE",
"156 471 OFFCURVE",
"201 487 OFFCURVE",
"247 487 CURVE SMOOTH",
"313 487 OFFCURVE",
"355 451 OFFCURVE",
"355 377 CURVE SMOOTH",
"355 321 LINE",
"194 267 OFFCURVE",
"44 235 OFFCURVE",
"44 112 CURVE SMOOTH",
"44 52 OFFCURVE",
"90 -13 OFFCURVE",
"180 -13 CURVE SMOOTH",
"277 -13 OFFCURVE",
"343 38 OFFCURVE",
"400 122 CURVE",
"429 35 OFFCURVE",
"517 -13 OFFCURVE",
"608 -13 CURVE SMOOTH",
"646 -13 OFFCURVE",
"680 -6 OFFCURVE",
"710 8 CURVE SMOOTH",
"771 37 OFFCURVE",
"813 91 OFFCURVE",
"830 163 CURVE",
"773 181 LINE",
"766 156 OFFCURVE",
"755 134 OFFCURVE",
"739 116 CURVE SMOOTH"
);
},
{
closed = 1;
nodes = (
"515 451 OFFCURVE",
"558 478 OFFCURVE",
"605 478 CURVE SMOOTH",
"628 478 OFFCURVE",
"650 471 OFFCURVE",
"669 458 CURVE SMOOTH",
"707 432 OFFCURVE",
"732 382 OFFCURVE",
"733 321 CURVE",
"469 321 LINE",
"471 351 OFFCURVE",
"479 379 OFFCURVE",
"491 403 CURVE SMOOTH"
);
},
{
closed = 1;
nodes = (
"358 171 LINE SMOOTH",
"358 143 OFFCURVE",
"293 57 OFFCURVE",
"209 57 CURVE SMOOTH",
"158 57 OFFCURVE",
"138 85 OFFCURVE",
"138 118 CURVE SMOOTH",
"138 184 OFFCURVE",
"237 222 OFFCURVE",
"358 266 CURVE"
);
}
);
width = 882;
}
);
leftKerningGroup = a;
leftMetricsKey = a;
rightKerningGroup = e;
rightMetricsKey = e;
unicode = 00E6;
},
{
glyphname = ae.alt;
layers = (
{
guideLines = (
{
angle = 180;
position = "{343, 268}";
}
);
layerId = "EE746D13-63D7-48F9-B77E-C723CA6A668B";
paths = (
{
closed = 1;
nodes = (
"707 80 OFFCURVE",
"663 60 OFFCURVE",
"618 60 CURVE SMOOTH",
"567 60 OFFCURVE",
"525 83 OFFCURVE",
"501 122 CURVE SMOOTH",
"477 160 OFFCURVE",
"465 208 OFFCURVE",
"465 264 CURVE SMOOTH",
"465 268 LINE",
"840 268 LINE",
"839 352 OFFCURVE",
"813 423 OFFCURVE",
"769 468 CURVE SMOOTH",
"726 512 OFFCURVE",
"668 536 OFFCURVE",
"602 536 CURVE SMOOTH",
"570 536 OFFCURVE",
"541 531 OFFCURVE",
"515 521 CURVE SMOOTH",
"483 509 OFFCURVE",
"456 490 OFFCURVE",
"432 465 CURVE",
"424 479 OFFCURVE",
"413 491 OFFCURVE",
"401 500 CURVE SMOOTH",
"365 527 OFFCURVE",
"321 538 OFFCURVE",
"268 538 CURVE SMOOTH",
"202 538 OFFCURVE",
"144 517 OFFCURVE",
"111 487 CURVE SMOOTH",
"79 458 OFFCURVE",
"61 426 OFFCURVE",
"61 399 CURVE SMOOTH",
"61 348 OFFCURVE",
"94 320 OFFCURVE",
"133 320 CURVE SMOOTH",
"170 320 OFFCURVE",
"201 348 OFFCURVE",
"201 389 CURVE SMOOTH",
"201 420 OFFCURVE",
"174 446 OFFCURVE",
"133 446 CURVE",
"156 471 OFFCURVE",
"201 487 OFFCURVE",
"247 487 CURVE SMOOTH",
"313 487 OFFCURVE",
"357 451 OFFCURVE",
"357 377 CURVE SMOOTH",
"357 347 OFFCURVE",
"338 322 OFFCURVE",
"303 305 CURVE SMOOTH",
"274 291 OFFCURVE",
"236 271 OFFCURVE",
"198 257 CURVE SMOOTH",
"160 243 OFFCURVE",
"121 222 OFFCURVE",
"92 201 CURVE SMOOTH",
"63 180 OFFCURVE",
"44 146 OFFCURVE",
"44 107 CURVE SMOOTH",
"44 32 OFFCURVE",
"100 -13 OFFCURVE",
"180 -13 CURVE SMOOTH",
"257 -13 OFFCURVE",
"333 38 OFFCURVE",
"383 126 CURVE",
"393 106 OFFCURVE",
"405 87 OFFCURVE",
"419 70 CURVE SMOOTH",
"462 18 OFFCURVE",
"530 -13 OFFCURVE",
"608 -13 CURVE SMOOTH",
"646 -13 OFFCURVE",
"680 -6 OFFCURVE",
"710 8 CURVE SMOOTH",
"771 37 OFFCURVE",
"813 91 OFFCURVE",
"830 163 CURVE",
"773 181 LINE",
"766 156 OFFCURVE",
"755 134 OFFCURVE",
"739 116 CURVE SMOOTH"
);
},
{
closed = 1;
nodes = (
"515 451 OFFCURVE",
"558 478 OFFCURVE",
"605 478 CURVE SMOOTH",
"628 478 OFFCURVE",
"650 471 OFFCURVE",
"669 458 CURVE SMOOTH",
"707 432 OFFCURVE",
"732 382 OFFCURVE",
"733 321 CURVE",
"469 321 LINE",
"471 351 OFFCURVE",
"479 379 OFFCURVE",
"491 403 CURVE SMOOTH"
);
},
{
closed = 1;
nodes = (
"360 163 OFFCURVE",
"347 145 OFFCURVE",
"332 125 CURVE SMOOTH",
"302 86 OFFCURVE",
"251 57 OFFCURVE",
"205 57 CURVE SMOOTH",
"168 57 OFFCURVE",
"148 79 OFFCURVE",
"148 112 CURVE SMOOTH",
"148 151 OFFCURVE",
"177 178 OFFCURVE",
"213 194 CURVE SMOOTH",
"247 209 OFFCURVE",
"319 244 OFFCURVE",
"360 285 CURVE",
"360 181 LINE SMOOTH"
);
}
);
width = 882;
}
);
leftKerningGroup = a;
leftMetricsKey = a;
note = ae;
rightKerningGroup = e;
rightMetricsKey = e;
},
{
glyphname = b;
layers = (
{
anchors = (
{
name = bottom;
position = "{324, 0}";
},
{
name = top;
position = "{324, 524}";
}
);
guideLines = (
{
position = "{409, -194}";
}
);
layerId = "EE746D13-63D7-48F9-B77E-C723CA6A668B";
paths = (
{
closed = 1;
nodes = (
"381 -13 OFFCURVE",
"420 -1 OFFCURVE",
"454 23 CURVE SMOOTH",
"521 72 OFFCURVE",
"559 159 OFFCURVE",
"559 262 CURVE SMOOTH",
"559 424 OFFCURVE",
"470 538 OFFCURVE",
"334 538 CURVE SMOOTH",
"276 538 OFFCURVE",
"222 509 OFFCURVE",
"189 460 CURVE",
"189 735 LINE",
"-17 735 LINE",
"-17 675 LINE",
"85 675 LINE",
"85 0 LINE",
"129 0 LINE",
"167 97 LINE",
"199 22 OFFCURVE",
"267 -13 OFFCURVE",
"339 -13 CURVE SMOOTH"
);
},
{
closed = 1;
nodes = (
"292 46 OFFCURVE",
"269 57 OFFCURVE",
"249 79 CURVE SMOOTH",
"210 122 OFFCURVE",
"189 197 OFFCURVE",
"189 285 CURVE SMOOTH",
"189 328 OFFCURVE",
"200 374 OFFCURVE",
"220 414 CURVE SMOOTH",
"239 455 OFFCURVE",
"276 483 OFFCURVE",
"319 483 CURVE SMOOTH",
"364 483 OFFCURVE",
"399 454 OFFCURVE",
"419 409 CURVE SMOOTH",
"438 364 OFFCURVE",
"447 313 OFFCURVE",
"447 256 CURVE SMOOTH",
"447 220 OFFCURVE",
"442 187 OFFCURVE",
"433 155 CURVE SMOOTH",
"414 93 OFFCURVE",
"372 46 OFFCURVE",
"319 46 CURVE SMOOTH"
);
}
);
width = 607;
}
);
leftKerningGroup = h;
note = b;
rightKerningGroup = b;
unicode = 0062;
},
{
glyphname = c;
layers = (
{
anchors = (
{
name = bottom;
position = "{300, 0}";
},
{
name = top;
position = "{300, 524}";
}
);
guideLines = (
{
position = "{478, 191}";
},
{
angle = 90;
position = "{300, 263}";
},
{
angle = 161.8781;
position = "{504, 172}";
}
);
layerId = "EE746D13-63D7-48F9-B77E-C723CA6A668B";
paths = (
{
closed = 1;
nodes = (
"423 -13 OFFCURVE",
"506 56 OFFCURVE",
"531 163 CURVE",
"476 181 LINE",
"460 124 OFFCURVE",
"391 66 OFFCURVE",
"323 66 CURVE SMOOTH",
"220 66 OFFCURVE",
"159 143 OFFCURVE",
"159 268 CURVE SMOOTH",
"159 381 OFFCURVE",
"217 483 OFFCURVE",
"330 483 CURVE SMOOTH",
"381 483 OFFCURVE",
"422 458 OFFCURVE",
"443 424 CURVE",
"403 424 OFFCURVE",
"368 399 OFFCURVE",
"368 357 CURVE SMOOTH",
"368 315 OFFCURVE",
"401 288 OFFCURVE",
"443 288 CURVE SMOOTH",
"491 288 OFFCURVE",
"520 328 OFFCURVE",
"520 367 CURVE SMOOTH",
"520 472 OFFCURVE",
"421 538 OFFCURVE",
"313 538 CURVE SMOOTH",
"150 538 OFFCURVE",
"48 415 OFFCURVE",
"48 252 CURVE SMOOTH",
"48 98 OFFCURVE",
"152 -13 OFFCURVE",
"301 -13 CURVE SMOOTH"
);
}
);
width = 568;
}
);
leftKerningGroup = o;
note = c;
rightKerningGroup = c;
unicode = 0063;
},
{
glyphname = d;
layers = (
{
anchors = (
{
name = bottom;
position = "{279, 0}";
},
{
name = caron;
position = "{618, 524}";
},
{
name = strokeshort;
position = "{607, 576}";
},
{
name = top;
position = "{166, 524}";
}
);
guideLines = (
{
position = "{405, 83}";
},
{
angle = 90;
position = "{279, 395}";
}
);
layerId = "EE746D13-63D7-48F9-B77E-C723CA6A668B";
paths = (
{
closed = 1;
nodes = (
"320 -13 OFFCURVE",
"382 21 OFFCURVE",
"415 83 CURVE",
"434 0 LINE",
"607 0 LINE",
"607 55 LINE",
"519 55 LINE",
"519 735 LINE",
"299 735 LINE",
"299 675 LINE",
"414 675 LINE",
"414 460 LINE",
"381 508 OFFCURVE",
"324 538 OFFCURVE",
"270 538 CURVE SMOOTH",
"134 538 OFFCURVE",
"48 428 OFFCURVE",
"48 262 CURVE SMOOTH",
"48 97 OFFCURVE",
"134 -13 OFFCURVE",
"263 -13 CURVE SMOOTH"
);
},
{
closed = 1;
nodes = (
"257 49 OFFCURVE",
"234 60 OFFCURVE",
"215 81 CURVE SMOOTH",
"176 123 OFFCURVE",
"160 187 OFFCURVE",
"160 260 CURVE SMOOTH",
"160 315 OFFCURVE",
"169 367 OFFCURVE",
"189 411 CURVE SMOOTH",
"208 455 OFFCURVE",
"243 483 OFFCURVE",
"288 483 CURVE SMOOTH",
"333 483 OFFCURVE",
"369 455 OFFCURVE",
"390 413 CURVE SMOOTH",
"411 370 OFFCURVE",
"421 320 OFFCURVE",
"421 268 CURVE SMOOTH",
"421 141 OFFCURVE",
"363 49 OFFCURVE",
"284 49 CURVE SMOOTH"
);
}
);
width = 622;
}
);
leftKerningGroup = o;
note = d;
rightKerningGroup = l;
unicode = 0064;
},
{
glyphname = eth;
layers = (
{
layerId = "EE746D13-63D7-48F9-B77E-C723CA6A668B";
paths = (
{
closed = 1;
nodes = (
"436 717 LINE",
"405 764 LINE",
"290 680 LINE",
"351 696 LINE",
"279 735 OFFCURVE",
"205 742 OFFCURVE",
"138 735 CURVE",
"124 682 LINE",
"202 693 OFFCURVE",
"252 673 OFFCURVE",
"297 652 CURVE",
"312 698 LINE",
"208 623 LINE",
"239 578 LINE",
"361 665 LINE",
"289 656 LINE",
"358 624 OFFCURVE",
"406 566 OFFCURVE",
"431 475 CURVE",
"392 505 OFFCURVE",
"348 524 OFFCURVE",
"306 524 CURVE SMOOTH",
"151 524 OFFCURVE",
"51 424 OFFCURVE",
"51 256 CURVE SMOOTH",
"51 103 OFFCURVE",
"151 -13 OFFCURVE",
"307 -13 CURVE SMOOTH",
"463 -13 OFFCURVE",
"560 104 OFFCURVE",
"560 255 CURVE SMOOTH",
"560 463 OFFCURVE",
"478 625 OFFCURVE",
"341 700 CURVE",
"338 646 LINE"
);
},
{
closed = 1;
nodes = (
"218 49 OFFCURVE",
"163 131 OFFCURVE",
"163 250 CURVE SMOOTH",
"163 377 OFFCURVE",
"209 466 OFFCURVE",
"311 466 CURVE SMOOTH",
"400 466 OFFCURVE",
"449 394 OFFCURVE",
"457 281 CURVE",
"457 271 OFFCURVE",
"458 260 OFFCURVE",
"458 249 CURVE SMOOTH",
"458 131 OFFCURVE",
"394 49 OFFCURVE",
"312 49 CURVE SMOOTH"
);
}
);
width = 609;
}
);
leftKerningGroup = o;
rightKerningGroup = o;
unicode = 00F0;
},
{
glyphname = e;
layers = (
{
anchors = (
{
name = bottom;
position = "{289, 0}";
},
{
name = ogonek;
position = "{327, 0}";
},
{
name = top;
position = "{289, 524}";
}
);
guideLines = (
{
angle = 90;
position = "{523, 269}";
},
{
angle = 90;
position = "{297, 262}";
},
{
angle = 180;
position = "{345, 268}";
},
{
angle = 90;
position = "{46, 250}";
}
);
layerId = "EE746D13-63D7-48F9-B77E-C723CA6A668B";
paths = (
{
closed = 1;
nodes = (
"338 -13 OFFCURVE",
"372 -6 OFFCURVE",
"402 8 CURVE SMOOTH",
"463 37 OFFCURVE",
"505 91 OFFCURVE",
"522 163 CURVE",
"465 181 LINE",
"458 156 OFFCURVE",
"447 134 OFFCURVE",
"431 116 CURVE SMOOTH",
"399 80 OFFCURVE",
"355 60 OFFCURVE",
"310 60 CURVE SMOOTH",
"259 60 OFFCURVE",
"217 83 OFFCURVE",
"193 122 CURVE SMOOTH",
"169 160 OFFCURVE",
"157 208 OFFCURVE",
"157 264 CURVE SMOOTH",
"157 268 LINE",
"532 268 LINE",
"531 352 OFFCURVE",
"505 423 OFFCURVE",
"461 468 CURVE SMOOTH",
"418 512 OFFCURVE",
"360 536 OFFCURVE",
"294 536 CURVE SMOOTH",
"262 536 OFFCURVE",
"233 531 OFFCURVE",
"207 521 CURVE SMOOTH",
"157 502 OFFCURVE",
"117 467 OFFCURVE",
"87 416 CURVE SMOOTH",
"60 370 OFFCURVE",
"46 313 OFFCURVE",
"46 254 CURVE SMOOTH",
"46 186 OFFCURVE",
"69 121 OFFCURVE",
"111 70 CURVE SMOOTH",
"154 18 OFFCURVE",
"222 -13 OFFCURVE",
"300 -13 CURVE SMOOTH"
);
},
{
closed = 1;
nodes = (
"163 351 OFFCURVE",
"171 379 OFFCURVE",
"183 403 CURVE SMOOTH",
"207 451 OFFCURVE",
"250 478 OFFCURVE",
"297 478 CURVE SMOOTH",
"320 478 OFFCURVE",
"342 471 OFFCURVE",
"361 458 CURVE SMOOTH",
"399 432 OFFCURVE",
"424 382 OFFCURVE",
"425 321 CURVE",
"161 321 LINE"
);
}
);
width = 574;
}
);
leftKerningGroup = o;
leftMetricsKey = o;
rightKerningGroup = e;
unicode = 0065;
},
{
glyphname = schwa;
layers = (
{
layerId = "EE746D13-63D7-48F9-B77E-C723CA6A668B";
paths = (
{
closed = 1;
nodes = (
"240 536 OFFCURVE",
"206 529 OFFCURVE",
"176 515 CURVE SMOOTH",
"115 486 OFFCURVE",
"73 432 OFFCURVE",
"56 360 CURVE",
"113 342 LINE",
"120 367 OFFCURVE",
"131 389 OFFCURVE",
"147 407 CURVE SMOOTH",
"179 443 OFFCURVE",
"223 463 OFFCURVE",
"268 463 CURVE SMOOTH",
"319 463 OFFCURVE",
"361 440 OFFCURVE",
"385 401 CURVE SMOOTH",
"409 363 OFFCURVE",
"421 315 OFFCURVE",
"421 259 CURVE SMOOTH",
"421 255 LINE",
"46 255 LINE",
"47 171 OFFCURVE",
"73 100 OFFCURVE",
"117 55 CURVE SMOOTH",
"160 11 OFFCURVE",
"218 -13 OFFCURVE",
"284 -13 CURVE SMOOTH",
"316 -13 OFFCURVE",
"345 -8 OFFCURVE",
"371 2 CURVE SMOOTH",
"421 21 OFFCURVE",
"461 56 OFFCURVE",
"491 107 CURVE SMOOTH",
"518 153 OFFCURVE",
"532 210 OFFCURVE",
"532 269 CURVE SMOOTH",
"532 337 OFFCURVE",
"509 402 OFFCURVE",
"467 453 CURVE SMOOTH",
"424 505 OFFCURVE",
"356 536 OFFCURVE",
"278 536 CURVE SMOOTH"
);
},
{
closed = 1;
nodes = (
"415 172 OFFCURVE",
"407 144 OFFCURVE",
"395 120 CURVE SMOOTH",
"371 72 OFFCURVE",
"328 45 OFFCURVE",
"281 45 CURVE SMOOTH",
"258 45 OFFCURVE",
"236 52 OFFCURVE",
"217 65 CURVE SMOOTH",
"179 91 OFFCURVE",
"154 141 OFFCURVE",
"153 202 CURVE",
"417 202 LINE"
);
}
);
width = 578;
}
);
leftKerningGroup = o;
leftMetricsKey = o;
rightKerningGroup = o;
rightMetricsKey = o;
unicode = 0259;
},
{
glyphname = f;
layers = (
{
anchors = (
{
name = bottom;
position = "{185, 0}";
}
);
guideLines = (
{
position = "{221, 607}";
},
{
angle = 180;
position = "{288, 773}";
}
);
layerId = "EE746D13-63D7-48F9-B77E-C723CA6A668B";
paths = (
{
closed = 1;
nodes = (
"346 0 LINE",
"346 55 LINE",
"224 55 LINE",
"224 464 LINE",
"377 464 LINE",
"377 524 LINE",
"221 524 LINE",
"221 576 LINE SMOOTH",
"221 673 OFFCURVE",
"249 732 OFFCURVE",
"315 732 CURVE SMOOTH",
"347 732 OFFCURVE",
"371 721 OFFCURVE",
"378 710 CURVE",
"356 710 OFFCURVE",
"330 693 OFFCURVE",
"330 660 CURVE SMOOTH",
"330 629 OFFCURVE",
"349 590 OFFCURVE",
"400 590 CURVE SMOOTH",
"451 590 OFFCURVE",
"470 629 OFFCURVE",
"470 660 CURVE SMOOTH",
"470 715 OFFCURVE",
"415 773 OFFCURVE",
"309 773 CURVE SMOOTH",
"200 773 OFFCURVE",
"122 720 OFFCURVE",
"122 576 CURVE",
"122 524 LINE",
"24 524 LINE",
"24 464 LINE",
"122 464 LINE",
"122 55 LINE",
"24 55 LINE",
"24 0 LINE"
);
}
);
width = 418;
}
);
leftKerningGroup = f;
note = f;
rightKerningGroup = f;
unicode = 0066;
},
{
glyphname = g;
layers = (
{
anchors = (
{
name = top;
position = "{289, 524}";
}
);
guideLines = (
{
angle = 90;
position = "{505, 485}";
},
{
angle = 90;
position = "{138, 369}";
},
{
angle = 270;
position = "{93, 369}";
},
{
angle = 90;
position = "{30, 368}";
},
{
angle = 270;
position = "{556, 384}";
},
{
angle = 180;
position = "{15, 96}";
},
{
angle = 226.5482;
position = "{123, 231}";
},
{
angle = 180;
position = "{291, 631}";
},
{
angle = 226.5482;
position = "{209, 231}";
},
{
angle = 90;
position = "{290, 204}";
}
);
layerId = "EE746D13-63D7-48F9-B77E-C723CA6A668B";
paths = (
{
closed = 1;
nodes = (
"480 -248 OFFCURVE",
"556 -165 OFFCURVE",
"556 -81 CURVE SMOOTH",
"556 -17 OFFCURVE",
"515 78 OFFCURVE",
"353 78 CURVE SMOOTH",
"247 78 LINE SMOOTH",
"177 78 OFFCURVE",
"150 85 OFFCURVE",
"150 115 CURVE SMOOTH",
"150 142 OFFCURVE",
"167 156 OFFCURVE",
"241 154 CURVE",
"289 154 LINE SMOOTH",
"429 154 OFFCURVE",
"511 246 OFFCURVE",
"511 346 CURVE SMOOTH",
"511 415 OFFCURVE",
"482 469 OFFCURVE",
"435 502 CURVE",
"451 520 OFFCURVE",
"482 556 OFFCURVE",
"492 557 CURVE",
"486 550 OFFCURVE",
"485 539 OFFCURVE",
"485 534 CURVE SMOOTH",
"485 504 OFFCURVE",
"510 486 OFFCURVE",
"540 486 CURVE SMOOTH",
"568 486 OFFCURVE",
"593 506 OFFCURVE",
"593 541 CURVE SMOOTH",
"593 571 OFFCURVE",
"572 610 OFFCURVE",
"514 610 CURVE SMOOTH",
"465 610 OFFCURVE",
"435 591 OFFCURVE",
"385 525 CURVE",
"357 534 OFFCURVE",
"325 539 OFFCURVE",
"289 539 CURVE SMOOTH",
"153 539 OFFCURVE",
"66 447 OFFCURVE",
"66 346 CURVE SMOOTH",
"66 294 OFFCURVE",
"90 228 OFFCURVE",
"145 180 CURVE",
"122 176 OFFCURVE",
"67 154 OFFCURVE",
"67 89 CURVE SMOOTH",
"67 6 OFFCURVE",
"163 -13 OFFCURVE",
"247 -13 CURVE SMOOTH",
"342 -13 LINE SMOOTH",
"434 -13 OFFCURVE",
"452 -57 OFFCURVE",
"452 -89 CURVE SMOOTH",
"452 -135 OFFCURVE",
"413 -188 OFFCURVE",
"286 -188 CURVE SMOOTH",
"194 -188 OFFCURVE",
"134 -162 OFFCURVE",
"123 -144 CURVE",
"147 -136 OFFCURVE",
"162 -118 OFFCURVE",
"162 -90 CURVE SMOOTH",
"162 -51 OFFCURVE",
"133 -28 OFFCURVE",
"96 -28 CURVE SMOOTH",
"61 -28 OFFCURVE",
"30 -58 OFFCURVE",
"30 -100 CURVE SMOOTH",
"30 -178 OFFCURVE",
"132 -248 OFFCURVE",
"286 -248 CURVE SMOOTH"
);
},
{
closed = 1;
nodes = (
"215 204 OFFCURVE",
"170 270 OFFCURVE",
"170 342 CURVE SMOOTH",
"170 413 OFFCURVE",
"203 492 OFFCURVE",
"289 492 CURVE SMOOTH",
"375 492 OFFCURVE",
"407 414 OFFCURVE",
"407 342 CURVE SMOOTH",
"407 270 OFFCURVE",
"363 204 OFFCURVE",
"290 204 CURVE SMOOTH"
);
}
);
width = 598;
}
);
leftKerningGroup = g;
rightKerningGroup = g;
unicode = 0067;
},
{
glyphname = g.alt;
layers = (
{
guideLines = (
{
angle = 90;
position = "{58, 260}";
},
{
position = "{423, 430}";
}
);
layerId = "EE746D13-63D7-48F9-B77E-C723CA6A668B";
paths = (
{
closed = 1;
nodes = (
"459 -238 OFFCURVE",
"528 -121 OFFCURVE",
"528 17 CURVE SMOOTH",
"528 466 LINE",
"598 466 LINE",
"598 524 LINE",
"435 524 LINE",
"423 430 LINE",
"402 497 OFFCURVE",
"327 538 OFFCURVE",
"268 538 CURVE SMOOTH",
"130 538 OFFCURVE",
"48 412 OFFCURVE",
"48 267 CURVE SMOOTH",
"48 125 OFFCURVE",
"125 0 OFFCURVE",
"265 0 CURVE SMOOTH",
"336 0 OFFCURVE",
"407 44 OFFCURVE",
"423 111 CURVE",
"423 -13 LINE SMOOTH",
"423 -89 OFFCURVE",
"395 -187 OFFCURVE",
"273 -187 CURVE SMOOTH",
"223 -187 OFFCURVE",
"188 -172 OFFCURVE",
"181 -161 CURVE",
"195 -158 OFFCURVE",
"218 -140 OFFCURVE",
"218 -106 CURVE SMOOTH",
"218 -79 OFFCURVE",
"195 -51 OFFCURVE",
"157 -51 CURVE SMOOTH",
"110 -51 OFFCURVE",
"88 -89 OFFCURVE",
"88 -119 CURVE SMOOTH",
"88 -191 OFFCURVE",
"185 -238 OFFCURVE",
"274 -238 CURVE SMOOTH"
);
},
{
closed = 1;
nodes = (
"193 62 OFFCURVE",
"155 165 OFFCURVE",
"155 276 CURVE SMOOTH",
"155 379 OFFCURVE",
"204 473 OFFCURVE",
"288 473 CURVE SMOOTH",
"368 473 OFFCURVE",
"426 390 OFFCURVE",
"426 276 CURVE SMOOTH",
"426 153 OFFCURVE",
"374 62 OFFCURVE",
"286 62 CURVE SMOOTH"
);
}
);
width = 614;
}
);
leftMetricsKey = q;
rightMetricsKey = u;
},
{
glyphname = h;
layers = (
{
anchors = (
{
name = bottom;
position = "{339, 0}";
},
{
name = strokeshort;
position = "{362, 576}";
},
{
name = top;
position = "{339, 735}";
}
);
layerId = "EE746D13-63D7-48F9-B77E-C723CA6A668B";
paths = (
{
closed = 1;
nodes = (
"311 0 LINE",
"311 55 LINE",
"222 55 LINE",
"222 292 LINE SMOOTH",
"222 340 OFFCURVE",
"239 402 OFFCURVE",
"268 433 CURVE SMOOTH",
"297 464 OFFCURVE",
"324 471 OFFCURVE",
"357 471 CURVE SMOOTH",
"415 471 OFFCURVE",
"450 432 OFFCURVE",
"450 347 CURVE SMOOTH",
"450 55 LINE",
"361 55 LINE",
"361 0 LINE",
"655 0 LINE",
"655 55 LINE",
"555 55 LINE",
"555 353 LINE SMOOTH",
"555 385 OFFCURVE",
"551 413 OFFCURVE",
"543 437 CURVE SMOOTH",
"527 484 OFFCURVE",
"505 506 OFFCURVE",
"474 521 CURVE SMOOTH",
"443 536 OFFCURVE",
"421 538 OFFCURVE",
"393 538 CURVE SMOOTH",
"372 538 OFFCURVE",
"352 535 OFFCURVE",
"332 529 CURVE SMOOTH",
"291 516 OFFCURVE",
"247 482 OFFCURVE",
"222 431 CURVE",
"222 735 LINE",
"22 735 LINE",
"22 675 LINE",
"117 675 LINE",
"117 55 LINE",
"22 55 LINE",
"22 0 LINE"
);
}
);
width = 669;
}
);
leftKerningGroup = h;
note = h;
rightKerningGroup = h;
rightMetricsKey = n;
unicode = 0068;
},
{
glyphname = i;
layers = (
{
anchors = (
{
name = bottom;
position = "{177, 0}";
},
{
name = ogonek;
position = "{240, 0}";
}
);
guideLines = (
{
angle = 90;
position = "{239, 55}";
},
{
angle = 270;
position = "{177, 689}";
}
);
layerId = "EE746D13-63D7-48F9-B77E-C723CA6A668B";
paths = (
{
closed = 1;
nodes = (
"335 0 LINE",
"335 55 LINE",
"239 55 LINE",
"239 524 LINE",
"39 524 LINE",
"39 469 LINE",
"134 469 LINE",
"134 55 LINE",
"40 55 LINE",
"40 0 LINE"
);
},
{
closed = 1;
nodes = (
"216 616 OFFCURVE",
"250 649 OFFCURVE",
"250 688 CURVE SMOOTH",
"250 728 OFFCURVE",
"216 761 OFFCURVE",
"177 761 CURVE SMOOTH",
"138 761 OFFCURVE",
"105 729 OFFCURVE",
"105 688 CURVE SMOOTH",
"105 649 OFFCURVE",
"138 616 OFFCURVE",
"177 616 CURVE SMOOTH"
);
}
);
width = 355;
}
);
leftKerningGroup = i;
note = i;
rightKerningGroup = i;
unicode = 0069;
},
{
glyphname = idotless;
layers = (
{
anchors = (
{
name = top;
position = "{156, 524}";
}
);
guideLines = (
{
angle = 270;
position = "{186, 262}";
}
);
layerId = "EE746D13-63D7-48F9-B77E-C723CA6A668B";
paths = (
{
closed = 1;
nodes = (
"335 0 LINE",
"335 55 LINE",
"239 55 LINE",
"239 524 LINE",
"39 524 LINE",
"39 469 LINE",
"134 469 LINE",
"134 55 LINE",
"40 55 LINE",
"40 0 LINE"
);
}
);
width = 355;
}
);
leftKerningGroup = i;
note = dotlessi;
rightKerningGroup = i;
unicode = 0131;
},
{
glyphname = j;
layers = (
{
background = {
paths = (
{
closed = 1;
nodes = (
"179 -230 OFFCURVE",
"248 -164 OFFCURVE",
"248 -44 CURVE SMOOTH",
"248 524 LINE",
"24 524 LINE",
"24 469 LINE",
"143 469 LINE",
"143 -59 LINE SMOOTH",
"143 -106 OFFCURVE",
"133 -140 OFFCURVE",
"116 -156 CURVE SMOOTH",
"98 -171 OFFCURVE",
"82 -177 OFFCURVE",
"63 -177 CURVE SMOOTH",
"50 -177 OFFCURVE",
"39 -175 OFFCURVE",
"28 -171 CURVE",
"47 -163 OFFCURVE",
"56 -142 OFFCURVE",
"56 -109 CURVE SMOOTH",
"56 -75 OFFCURVE",
"30 -55 OFFCURVE",
"-1 -55 CURVE SMOOTH",
"-39 -55 OFFCURVE",
"-72 -81 OFFCURVE",
"-72 -124 CURVE SMOOTH",
"-72 -190 OFFCURVE",
"-20 -230 OFFCURVE",
"76 -230 CURVE SMOOTH"
);
}
);
};
guideLines = (
{
angle = 270;
position = "{181, 689}";
}
);
layerId = "EE746D13-63D7-48F9-B77E-C723CA6A668B";
paths = (
{
closed = 1;
nodes = (
"-20 -230 OFFCURVE",
"-72 -181 OFFCURVE",
"-72 -119 CURVE SMOOTH",
"-72 -84 OFFCURVE",
"-43 -55 OFFCURVE",
"-8 -55 CURVE SMOOTH",
"27 -55 OFFCURVE",
"56 -84 OFFCURVE",
"56 -119 CURVE SMOOTH",
"56 -146 OFFCURVE",
"40 -163 OFFCURVE",
"29 -171 CURVE",
"38 -178 OFFCURVE",
"50 -181 OFFCURVE",
"63 -181 CURVE SMOOTH",
"121 -181 OFFCURVE",
"143 -129 OFFCURVE",
"143 -59 CURVE SMOOTH",
"143 469 LINE",
"24 469 LINE",
"24 524 LINE",
"248 524 LINE",
"248 -44 LINE SMOOTH",
"248 -164 OFFCURVE",
"179 -230 OFFCURVE",
"76 -230 CURVE SMOOTH"
);
},
{
closed = 1;
nodes = (
"220 616 OFFCURVE",
"254 649 OFFCURVE",
"254 688 CURVE SMOOTH",
"254 728 OFFCURVE",
"220 761 OFFCURVE",
"181 761 CURVE SMOOTH",
"142 761 OFFCURVE",
"109 729 OFFCURVE",
"109 688 CURVE SMOOTH",
"109 649 OFFCURVE",
"142 616 OFFCURVE",
"181 616 CURVE SMOOTH"
);
}
);
width = 342;
}
);
leftKerningGroup = j;
note = j;
rightKerningGroup = j;
unicode = 006A;
},
{
glyphname = jdotless;
layers = (
{
anchors = (
{
name = top;
position = "{151, 524}";
}
);
layerId = "EE746D13-63D7-48F9-B77E-C723CA6A668B";
paths = (
{
closed = 1;
nodes = (
"173 -230 OFFCURVE",
"242 -164 OFFCURVE",
"242 -44 CURVE SMOOTH",
"242 524 LINE",
"18 524 LINE",
"18 469 LINE",
"137 469 LINE",
"137 -59 LINE SMOOTH",
"137 -129 OFFCURVE",
"115 -181 OFFCURVE",
"57 -181 CURVE SMOOTH",
"44 -181 OFFCURVE",
"32 -178 OFFCURVE",
"23 -171 CURVE",
"34 -163 OFFCURVE",
"50 -146 OFFCURVE",
"50 -119 CURVE SMOOTH",
"50 -84 OFFCURVE",
"21 -55 OFFCURVE",
"-14 -55 CURVE SMOOTH",
"-49 -55 OFFCURVE",
"-78 -84 OFFCURVE",
"-78 -119 CURVE SMOOTH",
"-78 -181 OFFCURVE",
"-26 -230 OFFCURVE",
"70 -230 CURVE SMOOTH"
);
}
);
width = 336;
}
);
leftKerningGroup = j;
leftMetricsKey = j;
note = uni0237;
rightKerningGroup = j;
unicode = 0237;
},
{
glyphname = k;
layers = (
{
anchors = (
{
name = bottom;
position = "{335, 0}";
}
);
guideLines = (
{
angle = 122.473;
position = "{562, 55}";
},
{
angle = 45;
position = "{459, 406}";
},
{
angle = 119.373;
position = "{384, 158}";
}
);
layerId = "EE746D13-63D7-48F9-B77E-C723CA6A668B";
paths = (
{
closed = 1;
nodes = (
"385 332 LINE",
"522 469 LINE",
"632 469 LINE",
"632 524 LINE",
"339 524 LINE",
"339 469 LINE",
"436 469 LINE",
"227 268 LINE",
"227 735 LINE",
"23 735 LINE",
"23 675 LINE",
"123 675 LINE",
"123 55 LINE",
"23 55 LINE",
"23 0 LINE",
"300 0 LINE",
"300 55 LINE",
"227 55 LINE",
"227 184 LINE",
"322 269 LINE",
"442 55 LINE",
"369 55 LINE",
"369 0 LINE",
"656 0 LINE",
"656 55 LINE",
"562 55 LINE"
);
}
);
width = 664;
}
);
leftKerningGroup = h;
rightKerningGroup = k;
unicode = 006B;
},
{
glyphname = kgreenlandic;
layers = (
{
layerId = "EE746D13-63D7-48F9-B77E-C723CA6A668B";
paths = (
{
closed = 1;
nodes = (
"401 332 LINE",
"538 469 LINE",
"648 469 LINE",
"648 524 LINE",
"355 524 LINE",
"355 469 LINE",
"452 469 LINE",
"243 268 LINE",
"243 524 LINE",
"39 524 LINE",
"39 464 LINE",
"138 464 LINE",
"138 55 LINE",
"39 55 LINE",
"39 0 LINE",
"316 0 LINE",
"316 55 LINE",
"243 55 LINE",
"243 184 LINE",
"338 269 LINE",
"458 55 LINE",
"385 55 LINE",
"385 0 LINE",
"672 0 LINE",
"672 55 LINE",
"578 55 LINE"
);
},
{
closed = 0;
nodes = (
"466 -175 LINE"
);
}
);
width = 680;
}
);
leftKerningGroup = n;
leftMetricsKey = n;
note = kgreenlandic;
rightKerningGroup = k;
rightMetricsKey = k;
unicode = 0138;
},
{
glyphname = l;
layers = (
{
anchors = (
{
name = bottom;
position = "{184, 0}";
},
{
name = caron;
position = "{335, 524}";
},
{
name = slashshort;
position = "{161, 368}";
},
{
name = top;
position = "{131, 735}";
}
);
layerId = "EE746D13-63D7-48F9-B77E-C723CA6A668B";
paths = (
{
closed = 1;
nodes = (
"338 0 LINE",
"338 55 LINE",
"233 55 LINE",
"233 735 LINE",
"19 735 LINE",
"19 675 LINE",
"128 675 LINE",
"128 55 LINE",
"19 55 LINE",
"19 0 LINE"
);
}
);
width = 357;
}
);
leftKerningGroup = l;
note = l;
rightKerningGroup = l;
unicode = 006C;
},
{
glyphname = lslash;
layers = (
{
anchors = (
{
name = bottom;
position = "{191.28, 0}";
},
{
name = caron;
position = "{410.28, 524}";
},
{
name = slashshort;
position = "{168.28, 368}";
},
{
name = top;
position = "{138.28, 735}";
}
);
layerId = "EE746D13-63D7-48F9-B77E-C723CA6A668B";
paths = (
{
closed = 1;
nodes = (
"153 311 LINE",
"221 356 LINE",
"386 473 LINE",
"341 528 LINE",
"213 440 LINE",
"153 398 LINE",
"-12 284 LINE",
"32 228 LINE"
);
},
{
closed = 1;
nodes = (
"345 0 LINE",
"345 55 LINE",
"240 55 LINE",
"240 735 LINE",
"26 735 LINE",
"26 675 LINE",
"135 675 LINE",
"135 55 LINE",
"26 55 LINE",
"26 0 LINE"
);
}
);
width = 371;
}
);
unicode = 0142;
},
{
glyphname = m;
layers = (
{
anchors = (
{
name = bottom;
position = "{495, 1}";
},
{
name = top;
position = "{495, 523}";
}
);
background = {
paths = (
{
closed = 1;
nodes = (
"328 0 LINE",
"328 55 LINE",
"239 55 LINE",
"239 286 LINE SMOOTH",
"239 305 OFFCURVE",
"241 323 OFFCURVE",
"244 340 CURVE SMOOTH",
"250 375 OFFCURVE",
"264 409 OFFCURVE",
"285 433 CURVE SMOOTH",
"305 456 OFFCURVE",
"336 471 OFFCURVE",
"374 471 CURVE SMOOTH",
"432 471 OFFCURVE",
"467 432 OFFCURVE",
"467 347 CURVE SMOOTH",
"467 55 LINE",
"378 55 LINE",
"378 0 LINE",
"672 0 LINE",
"672 55 LINE",
"572 55 LINE",
"572 348 LINE SMOOTH",
"572 372 OFFCURVE",
"570 393 OFFCURVE",
"566 412 CURVE SMOOTH",
"558 451 OFFCURVE",
"546 475 OFFCURVE",
"527 494 CURVE SMOOTH",
"508 514 OFFCURVE",
"491 523 OFFCURVE",
"468 530 CURVE SMOOTH",
"446 537 OFFCURVE",
"430 538 OFFCURVE",
"410 538 CURVE SMOOTH",
"342 538 OFFCURVE",
"268 499 OFFCURVE",
"236 426 CURVE",
"224 532 LINE",
"39 524 LINE",
"39 469 LINE",
"134 469 LINE",
"134 55 LINE",
"39 55 LINE",
"39 0 LINE"
);
}
);
};
guideLines = (
{
angle = -30;
position = "{543, 434}";
},
{
angle = 90;
position = "{576, 415}";
}
);
layerId = "EE746D13-63D7-48F9-B77E-C723CA6A668B";
paths = (
{
closed = 1;
nodes = (
"323 0 LINE",
"323 55 LINE",
"239 55 LINE",
"239 266 LINE SMOOTH",
"239 365 OFFCURVE",
"278 471 OFFCURVE",
"358 471 CURVE SMOOTH",
"411 471 OFFCURVE",
"447 432 OFFCURVE",
"447 347 CURVE SMOOTH",
"447 55 LINE",
"363 55 LINE",
"363 0 LINE",
"636 0 LINE",
"636 55 LINE",
"552 55 LINE",
"552 327 LINE SMOOTH",
"552 393 OFFCURVE",
"594 471 OFFCURVE",
"662 471 CURVE SMOOTH",
"720 471 OFFCURVE",
"755 432 OFFCURVE",
"755 347 CURVE SMOOTH",
"755 55 LINE",
"676 55 LINE",
"676 0 LINE",
"950 0 LINE",
"950 55 LINE",
"860 55 LINE",
"860 348 LINE SMOOTH",
"860 372 OFFCURVE",
"858 393 OFFCURVE",
"854 412 CURVE SMOOTH",
"846 451 OFFCURVE",
"834 475 OFFCURVE",
"815 494 CURVE SMOOTH",
"796 514 OFFCURVE",
"779 523 OFFCURVE",
"756 530 CURVE SMOOTH",
"734 537 OFFCURVE",
"718 538 OFFCURVE",
"698 538 CURVE SMOOTH",
"632 538 OFFCURVE",
"574 506 OFFCURVE",
"542 434 CURVE",
"519 506 OFFCURVE",
"483 538 OFFCURVE",
"401 538 CURVE SMOOTH",
"334 538 OFFCURVE",
"265 499 OFFCURVE",
"236 426 CURVE",
"224 532 LINE",
"39 524 LINE",
"39 469 LINE",
"134 469 LINE",
"134 55 LINE",
"39 55 LINE",
"39 0 LINE"
);
}
);
width = 964;
}
);
leftKerningGroup = n;
leftMetricsKey = n;
note = m;
rightKerningGroup = n;
rightMetricsKey = n;
unicode = 006D;
},
{
glyphname = n;
layers = (
{
anchors = (
{
name = bottom;
position = "{354, 0}";
},
{
name = top;
position = "{342, 524}";
}
);
guideLines = (
{
angle = 90;
position = "{374, 471}";
},
{
angle = 90;
position = "{39, 28}";
},
{
angle = 90;
position = "{672, 28}";
}
);
layerId = "EE746D13-63D7-48F9-B77E-C723CA6A668B";
paths = (
{
closed = 1;
nodes = (
"328 0 LINE",
"328 55 LINE",
"239 55 LINE",
"239 286 LINE SMOOTH",
"239 305 OFFCURVE",
"241 323 OFFCURVE",
"244 340 CURVE SMOOTH",
"250 375 OFFCURVE",
"264 409 OFFCURVE",
"285 433 CURVE SMOOTH",
"305 456 OFFCURVE",
"336 471 OFFCURVE",
"374 471 CURVE SMOOTH",
"432 471 OFFCURVE",
"467 432 OFFCURVE",
"467 347 CURVE SMOOTH",
"467 55 LINE",
"378 55 LINE",
"378 0 LINE",
"672 0 LINE",
"672 55 LINE",
"572 55 LINE",
"572 348 LINE SMOOTH",
"572 372 OFFCURVE",
"570 393 OFFCURVE",
"566 412 CURVE SMOOTH",
"558 451 OFFCURVE",
"546 475 OFFCURVE",
"527 494 CURVE SMOOTH",
"508 514 OFFCURVE",
"491 523 OFFCURVE",
"468 530 CURVE SMOOTH",
"446 537 OFFCURVE",
"430 538 OFFCURVE",
"410 538 CURVE SMOOTH",
"342 538 OFFCURVE",
"268 499 OFFCURVE",
"236 426 CURVE",
"224 532 LINE",
"39 524 LINE",
"39 469 LINE",
"134 469 LINE",
"134 55 LINE",
"39 55 LINE",
"39 0 LINE"
);
}
);
width = 686;
}
);
leftKerningGroup = n;
note = n;
rightKerningGroup = n;
unicode = 006E;
},
{
glyphname = eng;
layers = (
{
anchors = (
{
name = bottom;
position = "{354, 0}";
},
{
name = top;
position = "{342, 524}";
}
);
layerId = "EE746D13-63D7-48F9-B77E-C723CA6A668B";
paths = (
{
closed = 1;
nodes = (
"558 451 OFFCURVE",
"546 475 OFFCURVE",
"527 494 CURVE SMOOTH",
"508 514 OFFCURVE",
"491 523 OFFCURVE",
"468 530 CURVE SMOOTH",
"446 537 OFFCURVE",
"430 538 OFFCURVE",
"410 538 CURVE SMOOTH",
"342 538 OFFCURVE",
"268 499 OFFCURVE",
"236 426 CURVE",
"224 532 LINE",
"39 524 LINE",
"39 469 LINE",
"134 469 LINE",
"134 55 LINE",
"39 55 LINE",
"39 0 LINE",
"328 0 LINE",
"328 55 LINE",
"239 55 LINE",
"239 286 LINE SMOOTH",
"239 305 OFFCURVE",
"241 323 OFFCURVE",
"244 340 CURVE SMOOTH",
"250 375 OFFCURVE",
"264 409 OFFCURVE",
"285 433 CURVE SMOOTH",
"305 456 OFFCURVE",
"336 471 OFFCURVE",
"374 471 CURVE SMOOTH",
"432 471 OFFCURVE",
"467 432 OFFCURVE",
"467 347 CURVE",
"466 -59 LINE",
"465 -129 OFFCURVE",
"444 -181 OFFCURVE",
"386 -181 CURVE SMOOTH",
"373 -181 OFFCURVE",
"361 -178 OFFCURVE",
"352 -171 CURVE",
"363 -163 OFFCURVE",
"379 -146 OFFCURVE",
"379 -119 CURVE SMOOTH",
"379 -84 OFFCURVE",
"350 -55 OFFCURVE",
"315 -55 CURVE SMOOTH",
"280 -55 OFFCURVE",
"251 -84 OFFCURVE",
"251 -119 CURVE SMOOTH",
"251 -181 OFFCURVE",
"303 -230 OFFCURVE",
"399 -230 CURVE SMOOTH",
"502 -230 OFFCURVE",
"570 -164 OFFCURVE",
"571 -44 CURVE",
"572 348 LINE",
"572 372 OFFCURVE",
"570 393 OFFCURVE",
"566 412 CURVE SMOOTH"
);
}
);
width = 660;
}
);
leftKerningGroup = n;
leftMetricsKey = n;
rightKerningGroup = j;
rightMetricsKey = j;
unicode = 014B;
},
{
glyphname = o;
layers = (
{
anchors = (
{
name = bottom;
position = "{302, 0}";
},
{
name = horn;
position = "{371, 529}";
},
{
name = top;
position = "{301, 524}";
}
);
background = {
paths = (
{
closed = 1;
nodes = (
"354 -13 OFFCURVE",
"399 -1 OFFCURVE",
"438 24 CURVE SMOOTH",
"515 73 OFFCURVE",
"555 159 OFFCURVE",
"555 262 CURVE SMOOTH",
"555 340 OFFCURVE",
"531 409 OFFCURVE",
"489 458 CURVE SMOOTH",
"446 508 OFFCURVE",
"379 538 OFFCURVE",
"301 538 CURVE SMOOTH",
"249 538 OFFCURVE",
"203 526 OFFCURVE",
"164 501 CURVE SMOOTH",
"86 453 OFFCURVE",
"46 366 OFFCURVE",
"46 262 CURVE SMOOTH",
"46 103 OFFCURVE",
"146 -13 OFFCURVE",
"302 -13 CURVE SMOOTH"
);
},
{
closed = 1;
nodes = (
"213 49 OFFCURVE",
"158 131 OFFCURVE",
"158 256 CURVE SMOOTH",
"158 299 OFFCURVE",
"163 338 OFFCURVE",
"173 371 CURVE SMOOTH",
"192 437 OFFCURVE",
"237 480 OFFCURVE",
"301 480 CURVE SMOOTH",
"333 480 OFFCURVE",
"360 470 OFFCURVE",
"382 450 CURVE SMOOTH",
"426 410 OFFCURVE",
"443 344 OFFCURVE",
"443 256 CURVE SMOOTH",
"443 131 OFFCURVE",
"389 49 OFFCURVE",
"302 49 CURVE SMOOTH"
);
}
);
};
guideLines = (
{
angle = 90.104;
position = "{302, 263}";
}
);
layerId = "EE746D13-63D7-48F9-B77E-C723CA6A668B";
paths = (
{
closed = 1;
nodes = (
"458 -13 OFFCURVE",
"555 104 OFFCURVE",
"555 262 CURVE SMOOTH",
"555 419 OFFCURVE",
"461 538 OFFCURVE",
"301 538 CURVE SMOOTH",
"146 538 OFFCURVE",
"46 424 OFFCURVE",
"46 262 CURVE SMOOTH",
"46 103 OFFCURVE",
"146 -13 OFFCURVE",
"302 -13 CURVE SMOOTH"
);
},
{
closed = 1;
nodes = (
"213 49 OFFCURVE",
"158 131 OFFCURVE",
"158 256 CURVE SMOOTH",
"158 377 OFFCURVE",
"199 480 OFFCURVE",
"301 480 CURVE SMOOTH",
"403 480 OFFCURVE",
"443 380 OFFCURVE",
"443 256 CURVE SMOOTH",
"443 131 OFFCURVE",
"389 49 OFFCURVE",
"302 49 CURVE SMOOTH"
);
}
);
width = 601;
}
);
leftKerningGroup = o;
note = o;
rightKerningGroup = o;
unicode = 006F;
},
{
glyphname = oe;
layers = (
{
layerId = "EE746D13-63D7-48F9-B77E-C723CA6A668B";
paths = (
{
closed = 1;
nodes = (
"814 -14 OFFCURVE",
"896 55 OFFCURVE",
"922 163 CURVE",
"864 181 LINE",
"843 104 OFFCURVE",
"777 60 OFFCURVE",
"709 60 CURVE SMOOTH",
"656 60 OFFCURVE",
"615 83 OFFCURVE",
"592 122 CURVE SMOOTH",
"568 161 OFFCURVE",
"555 209 OFFCURVE",
"555 265 CURVE SMOOTH",
"555 269 LINE",
"932 269 LINE",
"930 355 OFFCURVE",
"904 426 OFFCURVE",
"861 470 CURVE SMOOTH",
"818 515 OFFCURVE",
"759 539 OFFCURVE",
"693 539 CURVE SMOOTH",
"611 539 OFFCURVE",
"544 503 OFFCURVE",
"501 443 CURVE",
"453 506 OFFCURVE",
"387 538 OFFCURVE",
"301 538 CURVE SMOOTH",
"249 538 OFFCURVE",
"203 526 OFFCURVE",
"164 501 CURVE SMOOTH",
"86 453 OFFCURVE",
"46 366 OFFCURVE",
"46 262 CURVE SMOOTH",
"46 103 OFFCURVE",
"146 -13 OFFCURVE",
"302 -13 CURVE SMOOTH",
"386 -13 OFFCURVE",
"455 21 OFFCURVE",
"500 81 CURVE",
"545 22 OFFCURVE",
"613 -14 OFFCURVE",
"698 -14 CURVE SMOOTH"
);
},
{
closed = 1;
nodes = (
"559 322 LINE",
"567 417 OFFCURVE",
"624 481 OFFCURVE",
"696 481 CURVE SMOOTH",
"766 481 OFFCURVE",
"822 416 OFFCURVE",
"824 322 CURVE"
);
},
{
closed = 1;
nodes = (
"213 49 OFFCURVE",
"158 131 OFFCURVE",
"158 256 CURVE SMOOTH",
"158 299 OFFCURVE",
"163 338 OFFCURVE",
"173 371 CURVE SMOOTH",
"192 437 OFFCURVE",
"237 480 OFFCURVE",
"301 480 CURVE SMOOTH",
"333 480 OFFCURVE",
"360 470 OFFCURVE",
"382 450 CURVE SMOOTH",
"426 410 OFFCURVE",
"443 344 OFFCURVE",
"443 256 CURVE SMOOTH",
"443 131 OFFCURVE",
"389 49 OFFCURVE",
"302 49 CURVE SMOOTH"
);
}
);
width = 974;
}
);
leftKerningGroup = o;
leftMetricsKey = o;
rightKerningGroup = e;
rightMetricsKey = e;
unicode = 0153;
},
{
glyphname = p;
layers = (
{
anchors = (
{
name = top;
position = "{343, 524}";
}
);
guideLines = (
{
angle = 90;
position = "{197, 489}";
}
);
layerId = "EE746D13-63D7-48F9-B77E-C723CA6A668B";
paths = (
{
closed = 1;
nodes = (
"320 -216 LINE",
"320 -156 LINE",
"212 -156 LINE",
"212 65 LINE",
"245 16 OFFCURVE",
"298 -13 OFFCURVE",
"356 -13 CURVE SMOOTH",
"492 -13 OFFCURVE",
"578 101 OFFCURVE",
"578 263 CURVE SMOOTH",
"578 314 OFFCURVE",
"569 360 OFFCURVE",
"552 402 CURVE SMOOTH",
"517 485 OFFCURVE",
"450 538 OFFCURVE",
"368 538 CURVE SMOOTH",
"300 538 OFFCURVE",
"244 504 OFFCURVE",
"209 440 CURVE",
"197 537 LINE",
"12 524 LINE",
"12 469 LINE",
"109 469 LINE",
"109 -157 LINE",
"-8 -157 LINE",
"-8 -216 LINE"
);
},
{
closed = 1;
nodes = (
"291 42 OFFCURVE",
"255 70 OFFCURVE",
"235 114 CURVE SMOOTH",
"215 157 OFFCURVE",
"205 207 OFFCURVE",
"205 260 CURVE SMOOTH",
"205 386 OFFCURVE",
"259 476 OFFCURVE",
"337 476 CURVE SMOOTH",
"364 476 OFFCURVE",
"387 466 OFFCURVE",
"407 446 CURVE SMOOTH",
"448 405 OFFCURVE",
"466 341 OFFCURVE",
"466 269 CURVE SMOOTH",
"466 213 OFFCURVE",
"456 161 OFFCURVE",
"437 116 CURVE SMOOTH",
"417 71 OFFCURVE",
"382 42 OFFCURVE",
"337 42 CURVE SMOOTH"
);
}
);
width = 626;
}
);
leftKerningGroup = n;
note = p;
rightKerningGroup = b;
rightMetricsKey = b;
unicode = 0070;
},
{
glyphname = thorn;
layers = (
{
layerId = "EE746D13-63D7-48F9-B77E-C723CA6A668B";
paths = (
{
closed = 1;
nodes = (
"-8 -216 LINE",
"320 -216 LINE",
"320 -156 LINE",
"212 -156 LINE",
"212 65 LINE",
"245 16 OFFCURVE",
"298 -13 OFFCURVE",
"356 -13 CURVE SMOOTH",
"492 -13 OFFCURVE",
"578 101 OFFCURVE",
"578 263 CURVE SMOOTH",
"578 314 OFFCURVE",
"569 360 OFFCURVE",
"552 402 CURVE SMOOTH",
"517 485 OFFCURVE",
"450 538 OFFCURVE",
"368 538 CURVE SMOOTH",
"300 538 OFFCURVE",
"244 504 OFFCURVE",
"209 440 CURVE",
"209 750 LINE",
"12 750 LINE",
"12 695 LINE",
"109 695 LINE",
"109 -157 LINE",
"-8 -157 LINE"
);
},
{
closed = 1;
nodes = (
"291 42 OFFCURVE",
"255 70 OFFCURVE",
"235 114 CURVE SMOOTH",
"215 157 OFFCURVE",
"205 207 OFFCURVE",
"205 260 CURVE SMOOTH",
"205 386 OFFCURVE",
"259 476 OFFCURVE",
"337 476 CURVE SMOOTH",
"364 476 OFFCURVE",
"387 466 OFFCURVE",
"407 446 CURVE SMOOTH",
"447 405 OFFCURVE",
"466 341 OFFCURVE",
"466 269 CURVE SMOOTH",
"466 213 OFFCURVE",
"457 161 OFFCURVE",
"437 116 CURVE SMOOTH",
"417 71 OFFCURVE",
"382 42 OFFCURVE",
"337 42 CURVE SMOOTH"
);
}
);
width = 626;
}
);
leftKerningGroup = h;
leftMetricsKey = p;
rightKerningGroup = b;
rightMetricsKey = p;
unicode = 00FE;
},
{
glyphname = q;
layers = (
{
layerId = "EE746D13-63D7-48F9-B77E-C723CA6A668B";
paths = (
{
closed = 1;
nodes = (
"624 -215 LINE",
"624 -155 LINE",
"521 -155 LINE",
"521 524 LINE",
"478 524 LINE",
"440 428 LINE",
"408 503 OFFCURVE",
"340 538 OFFCURVE",
"268 538 CURVE SMOOTH",
"225 538 OFFCURVE",
"187 526 OFFCURVE",
"154 502 CURVE SMOOTH",
"87 454 OFFCURVE",
"48 366 OFFCURVE",
"48 263 CURVE SMOOTH",
"48 101 OFFCURVE",
"137 -13 OFFCURVE",
"273 -13 CURVE SMOOTH",
"331 -13 OFFCURVE",
"385 16 OFFCURVE",
"418 65 CURVE",
"418 -155 LINE",
"312 -154 LINE",
"312 -215 LINE"
);
},
{
closed = 1;
nodes = (
"243 42 OFFCURVE",
"208 71 OFFCURVE",
"189 116 CURVE SMOOTH",
"169 161 OFFCURVE",
"160 212 OFFCURVE",
"160 269 CURVE SMOOTH",
"160 305 OFFCURVE",
"165 339 OFFCURVE",
"174 370 CURVE SMOOTH",
"193 433 OFFCURVE",
"235 480 OFFCURVE",
"288 480 CURVE SMOOTH",
"314 480 OFFCURVE",
"337 469 OFFCURVE",
"357 448 CURVE SMOOTH",
"397 404 OFFCURVE",
"418 329 OFFCURVE",
"418 263 CURVE SMOOTH",
"418 197 OFFCURVE",
"407 152 OFFCURVE",
"387 111 CURVE SMOOTH",
"367 70 OFFCURVE",
"331 42 OFFCURVE",
"288 42 CURVE SMOOTH"
);
}
);
width = 625;
}
);
leftKerningGroup = o;
leftMetricsKey = d;
note = q;
rightKerningGroup = q;
unicode = 0071;
},
{
glyphname = r;
layers = (
{
anchors = (
{
name = bottom;
position = "{182, 0}";
},
{
name = top;
position = "{230, 524}";
}
);
layerId = "EE746D13-63D7-48F9-B77E-C723CA6A668B";
paths = (
{
closed = 1;
nodes = (
"342 0 LINE",
"342 55 LINE",
"232 55 LINE",
"232 266 LINE SMOOTH",
"232 314 OFFCURVE",
"240 354 OFFCURVE",
"257 394 CURVE SMOOTH",
"272 430 OFFCURVE",
"296 468 OFFCURVE",
"336 478 CURVE",
"329 469 OFFCURVE",
"323 456 OFFCURVE",
"323 439 CURVE SMOOTH",
"323 399 OFFCURVE",
"355 374 OFFCURVE",
"393 374 CURVE SMOOTH",
"433 374 OFFCURVE",
"467 403 OFFCURVE",
"467 454 CURVE SMOOTH",
"467 507 OFFCURVE",
"430 538 OFFCURVE",
"377 538 CURVE SMOOTH",
"338 538 OFFCURVE",
"297 518 OFFCURVE",
"275 493 CURVE SMOOTH",
"252 468 OFFCURVE",
"238 445 OFFCURVE",
"230 418 CURVE",
"217 532 LINE",
"32 524 LINE",
"32 469 LINE",
"127 469 LINE",
"127 55 LINE",
"32 55 LINE",
"32 0 LINE"
);
}
);
width = 489;
}
);
leftKerningGroup = n;
note = r;
rightKerningGroup = r;
unicode = 0072;
},
{
glyphname = s;
layers = (
{
anchors = (
{
name = bottom;
position = "{264, 0}";
},
{
name = top;
position = "{265, 524}";
}
);
guideLines = (
{
angle = 180;
position = "{243, 402}";
}
);
layerId = "EE746D13-63D7-48F9-B77E-C723CA6A668B";
paths = (
{
closed = 1;
nodes = (
"378 -13 OFFCURVE",
"483 42 OFFCURVE",
"483 146 CURVE SMOOTH",
"483 234 OFFCURVE",
"416 276 OFFCURVE",
"315 307 CURVE SMOOTH",
"229 333 OFFCURVE",
"147 352 OFFCURVE",
"147 402 CURVE SMOOTH",
"147 455 OFFCURVE",
"200 480 OFFCURVE",
"267 480 CURVE SMOOTH",
"307 480 OFFCURVE",
"344 472 OFFCURVE",
"376 456 CURVE",
"357 445 OFFCURVE",
"339 430 OFFCURVE",
"339 402 CURVE SMOOTH",
"339 363 OFFCURVE",
"369 339 OFFCURVE",
"406 339 CURVE SMOOTH",
"440 339 OFFCURVE",
"469 369 OFFCURVE",
"469 412 CURVE SMOOTH",
"469 491 OFFCURVE",
"357 538 OFFCURVE",
"265 538 CURVE SMOOTH",
"160 538 OFFCURVE",
"56 487 OFFCURVE",
"56 392 CURVE SMOOTH",
"56 305 OFFCURVE",
"132 263 OFFCURVE",
"223 238 CURVE SMOOTH",
"312 214 OFFCURVE",
"390 196 OFFCURVE",
"390 134 CURVE SMOOTH",
"390 74 OFFCURVE",
"335 47 OFFCURVE",
"261 47 CURVE SMOOTH",
"203 47 OFFCURVE",
"156 66 OFFCURVE",
"137 84 CURVE",
"161 84 OFFCURVE",
"184 108 OFFCURVE",
"184 141 CURVE SMOOTH",
"184 180 OFFCURVE",
"155 200 OFFCURVE",
"118 200 CURVE SMOOTH",
"83 200 OFFCURVE",
"52 170 OFFCURVE",
"52 128 CURVE SMOOTH",
"52 40 OFFCURVE",
"157 -13 OFFCURVE",
"261 -13 CURVE SMOOTH"
);
}
);
width = 535;
}
);
leftKerningGroup = s;
rightKerningGroup = s;
unicode = 0073;
},
{
glyphname = germandbls;
layers = (
{
layerId = "EE746D13-63D7-48F9-B77E-C723CA6A668B";
paths = (
{
closed = 1;
nodes = (
"434 487 OFFCURVE",
"567 508 OFFCURVE",
"567 617 CURVE SMOOTH",
"567 707 OFFCURVE",
"480 773 OFFCURVE",
"358 773 CURVE SMOOTH",
"208 773 OFFCURVE",
"122 695 OFFCURVE",
"122 576 CURVE SMOOTH",
"122 524 LINE",
"30 524 LINE",
"30 466 LINE",
"122 466 LINE",
"122 55 LINE",
"40 55 LINE",
"40 0 LINE",
"227 0 LINE",
"227 576 LINE SMOOTH",
"227 658 OFFCURVE",
"273 732 OFFCURVE",
"358 732 CURVE SMOOTH",
"427 732 OFFCURVE",
"462 682 OFFCURVE",
"462 617 CURVE SMOOTH",
"462 524 OFFCURVE",
"347 506 OFFCURVE",
"347 402 CURVE SMOOTH",
"347 256 OFFCURVE",
"558 253 OFFCURVE",
"558 140 CURVE SMOOTH",
"558 88 OFFCURVE",
"517 46 OFFCURVE",
"455 46 CURVE SMOOTH",
"392 46 OFFCURVE",
"361 85 OFFCURVE",
"361 93 CURVE",
"395 93 OFFCURVE",
"418 122 OFFCURVE",
"418 155 CURVE SMOOTH",
"418 194 OFFCURVE",
"390 217 OFFCURVE",
"353 217 CURVE SMOOTH",
"318 217 OFFCURVE",
"286 185 OFFCURVE",
"286 136 CURVE SMOOTH",
"286 79 OFFCURVE",
"326 -14 OFFCURVE",
"467 -14 CURVE SMOOTH",
"590 -14 OFFCURVE",
"663 55 OFFCURVE",
"663 150 CURVE SMOOTH",
"663 327 OFFCURVE",
"434 326 OFFCURVE",
"434 412 CURVE SMOOTH"
);
}
);
width = 685;
}
);
unicode = 00DF;
},
{
glyphname = t;
layers = (
{
anchors = (
{
name = bottom;
position = "{248, 0}";
},
{
name = caron;
position = "{364, 524}";
},
{
name = strokeshort;
position = "{341, 318}";
},
{
name = top;
position = "{224, 735}";
}
);
background = {
paths = (
{
closed = 1;
nodes = (
"346 0 LINE",
"346 55 LINE",
"224 55 LINE",
"224 464 LINE",
"377 464 LINE",
"377 524 LINE",
"221 524 LINE",
"221 576 LINE SMOOTH",
"221 673 OFFCURVE",
"249 732 OFFCURVE",
"315 732 CURVE SMOOTH",
"347 732 OFFCURVE",
"371 721 OFFCURVE",
"378 710 CURVE",
"356 710 OFFCURVE",
"330 693 OFFCURVE",
"330 660 CURVE SMOOTH",
"330 629 OFFCURVE",
"349 590 OFFCURVE",
"400 590 CURVE SMOOTH",
"451 590 OFFCURVE",
"470 629 OFFCURVE",
"470 660 CURVE SMOOTH",
"470 715 OFFCURVE",
"415 773 OFFCURVE",
"309 773 CURVE SMOOTH",
"200 773 OFFCURVE",
"122 720 OFFCURVE",
"122 576 CURVE",
"122 524 LINE",
"24 524 LINE",
"24 464 LINE",
"122 464 LINE",
"122 55 LINE",
"24 55 LINE",
"24 0 LINE"
);
}
);
};
layerId = "EE746D13-63D7-48F9-B77E-C723CA6A668B";
paths = (
{
closed = 1;
nodes = (
"392 -13 OFFCURVE",
"432 61 OFFCURVE",
"432 181 CURVE SMOOTH",
"432 241 LINE",
"373 241 LINE",
"373 171 LINE SMOOTH",
"373 91 OFFCURVE",
"349 55 OFFCURVE",
"294 55 CURVE SMOOTH",
"251 55 OFFCURVE",
"223 84 OFFCURVE",
"223 141 CURVE SMOOTH",
"223 464 LINE",
"415 464 LINE",
"415 524 LINE",
"223 524 LINE",
"223 735 LINE",
"163 735 LINE",
"157 617 OFFCURVE",
"141 531 OFFCURVE",
"2 518 CURVE",
"2 464 LINE",
"118 464 LINE",
"118 144 LINE SMOOTH",
"118 91 OFFCURVE",
"138 49 OFFCURVE",
"168 24 CURVE SMOOTH",
"198 -1 OFFCURVE",
"236 -13 OFFCURVE",
"276 -13 CURVE SMOOTH"
);
}
);
width = 474;
}
);
leftKerningGroup = t;
note = t;
rightKerningGroup = t;
unicode = 0074;
},
{
glyphname = u;
layers = (
{
anchors = (
{
name = bottom;
position = "{294, 0}";
},
{
name = horn;
position = "{411, 524}";
},
{
name = ogonek;
position = "{575, 0}";
},
{
name = top;
position = "{305, 524}";
}
);
background = {
paths = (
{
closed = 1;
nodes = (
"340 525 LINE",
"340 470 LINE",
"429 470 LINE",
"429 239 LINE SMOOTH",
"429 220 OFFCURVE",
"427 202 OFFCURVE",
"424 185 CURVE SMOOTH",
"418 150 OFFCURVE",
"404 116 OFFCURVE",
"383 92 CURVE SMOOTH",
"363 69 OFFCURVE",
"332 54 OFFCURVE",
"294 54 CURVE SMOOTH",
"236 54 OFFCURVE",
"201 93 OFFCURVE",
"201 178 CURVE SMOOTH",
"201 470 LINE",
"290 470 LINE",
"290 525 LINE",
"-4 525 LINE",
"-4 469 LINE",
"96 470 LINE",
"96 176 LINE SMOOTH",
"96 152 OFFCURVE",
"98 131 OFFCURVE",
"102 112 CURVE SMOOTH",
"110 74 OFFCURVE",
"122 50 OFFCURVE",
"141 31 CURVE SMOOTH",
"161 11 OFFCURVE",
"177 2 OFFCURVE",
"200 -5 CURVE SMOOTH",
"222 -12 OFFCURVE",
"238 -13 OFFCURVE",
"258 -13 CURVE SMOOTH",
"326 -13 OFFCURVE",
"400 26 OFFCURVE",
"432 99 CURVE",
"444 -7 LINE",
"629 1 LINE",
"629 56 LINE",
"534 56 LINE",
"534 470 LINE",
"629 470 LINE",
"629 525 LINE"
);
}
);
};
guideLines = (
{
position = "{409, 83}";
},
{
angle = 90;
position = "{294, 54}";
}
);
layerId = "EE746D13-63D7-48F9-B77E-C723CA6A668B";
paths = (
{
closed = 1;
nodes = (
"630 0 LINE",
"630 55 LINE",
"535 55 LINE",
"535 524 LINE",
"341 524 LINE",
"341 469 LINE",
"429 469 LINE",
"429 239 LINE SMOOTH",
"429 144 OFFCURVE",
"388 54 OFFCURVE",
"294 54 CURVE SMOOTH",
"236 54 OFFCURVE",
"200 93 OFFCURVE",
"200 178 CURVE SMOOTH",
"200 524 LINE",
"16 524 LINE",
"16 469 LINE",
"95 469 LINE",
"95 176 LINE SMOOTH",
"95 65 OFFCURVE",
"143 -13 OFFCURVE",
"257 -13 CURVE SMOOTH",
"334 -13 OFFCURVE",
"400 26 OFFCURVE",
"432 99 CURVE",
"452 0 LINE"
);
}
);
width = 646;
}
);
leftKerningGroup = u;
note = u;
rightKerningGroup = u;
unicode = 0075;
},
{
glyphname = v;
layers = (
{
guideLines = (
{
angle = 110.1399;
position = "{140, 235}";
},
{
angle = 110.1399;
position = "{245, 235}";
},
{
angle = 70.5089;
position = "{424, 235}";
},
{
angle = 70.5089;
position = "{348, 235}";
}
);
layerId = "EE746D13-63D7-48F9-B77E-C723CA6A668B";
paths = (
{
closed = 1;
nodes = (
"337 0 LINE",
"507 469 LINE",
"591 469 LINE",
"591 524 LINE",
"341 524 LINE",
"341 469 LINE",
"428 469 LINE",
"280 43 LINE",
"309 43 LINE",
"162 469 LINE",
"259 469 LINE",
"259 524 LINE",
"-26 524 LINE",
"-26 469 LINE",
"54 469 LINE",
"226 0 LINE"
);
}
);
width = 565;
}
);
leftKerningGroup = v;
rightKerningGroup = v;
unicode = 0076;
},
{
glyphname = w;
layers = (
{
anchors = (
{
name = top;
position = "{443, 524}";
}
);
guideLines = (
{
angle = 110;
position = "{127, 235}";
},
{
angle = 110;
position = "{232, 235}";
},
{
angle = 71;
position = "{721, 235}";
},
{
angle = 71;
position = "{645, 235}";
},
{
angle = 71.6633;
position = "{374, 175}";
},
{
angle = 71.6633;
position = "{298, 175}";
},
{
angle = 90;
position = "{418, 128}";
},
{
position = "{287, 98}";
},
{
angle = 107.418;
position = "{451, 290}";
}
);
layerId = "EE746D13-63D7-48F9-B77E-C723CA6A668B";
paths = (
{
closed = 1;
nodes = (
"320 0 LINE",
"446 399 LINE",
"410 399 LINE",
"542 0 LINE",
"649 0 LINE",
"802 469 LINE",
"886 469 LINE",
"886 524 LINE",
"636 524 LINE",
"636 469 LINE",
"726 469 LINE",
"596 62 LINE",
"618 62 LINE",
"484 468 LINE",
"395 468 LINE",
"265 62 LINE",
"289 62 LINE",
"159 469 LINE",
"259 469 LINE",
"259 524 LINE",
"-26 524 LINE",
"-26 469 LINE",
"58 469 LINE",
"213 0 LINE"
);
}
);
width = 860;
}
);
leftKerningGroup = v;
rightKerningGroup = v;
unicode = 0077;
},
{
glyphname = x;
layers = (
{
anchors = (
{
name = top;
position = "{296, 524}";
}
);
guideLines = (
{
angle = 53.9275;
position = "{370, 394}";
},
{
angle = 53.9275;
position = "{446, 394}";
},
{
angle = 90;
position = "{325, 318}";
},
{
angle = 125.918;
position = "{257, 391}";
},
{
angle = 125.918;
position = "{148, 391}";
}
);
layerId = "EE746D13-63D7-48F9-B77E-C723CA6A668B";
paths = (
{
closed = 1;
nodes = (
"244 0 LINE",
"244 55 LINE",
"174 55 LINE",
"316 245 LINE",
"258 252 LINE",
"398 55 LINE",
"320 55 LINE",
"320 0 LINE",
"580 0 LINE",
"580 55 LINE",
"512 55 LINE",
"334 304 LINE",
"329 224 LINE",
"510 469 LINE",
"580 469 LINE",
"580 524 LINE",
"368 524 LINE",
"368 469 LINE",
"434 469 LINE",
"293 277 LINE",
"346 273 LINE",
"209 469 LINE",
"285 469 LINE",
"285 524 LINE",
"27 524 LINE",
"27 469 LINE",
"95 469 LINE",
"273 221 LINE",
"281 298 LINE",
"98 55 LINE",
"17 55 LINE",
"17 0 LINE"
);
}
);
width = 597;
}
);
leftKerningGroup = x;
note = x;
rightKerningGroup = x;
unicode = 0078;
},
{
glyphname = y;
layers = (
{
anchors = (
{
name = bottom;
position = "{413, 0}";
},
{
name = top;
position = "{323, 524}";
}
);
guideLines = (
{
angle = 90;
position = "{0, -119}";
},
{
position = "{94, -31}";
},
{
angle = 112.0069;
position = "{167, 229}";
},
{
angle = 112.0069;
position = "{277, 229}";
},
{
angle = 70.3693;
position = "{450, 234}";
},
{
angle = 70.3693;
position = "{374, 234}";
},
{
angle = 90;
position = "{323, 107}";
}
);
layerId = "EE746D13-63D7-48F9-B77E-C723CA6A668B";
paths = (
{
closed = 1;
nodes = (
"232 -232 OFFCURVE",
"291 -169 OFFCURVE",
"351 -2 CURVE SMOOTH",
"519 469 LINE",
"596 469 LINE",
"596 524 LINE",
"362 524 LINE",
"362 469 LINE",
"441 469 LINE",
"300 53 LINE",
"323 54 LINE",
"171 469 LINE",
"254 469 LINE",
"254 524 LINE",
"-28 524 LINE",
"-28 469 LINE",
"55 469 LINE",
"261 -41 LINE",
"222 -149 OFFCURVE",
"178 -184 OFFCURVE",
"141 -184 CURVE SMOOTH",
"123 -184 OFFCURVE",
"114 -179 OFFCURVE",
"107 -173 CURVE",
"118 -167 OFFCURVE",
"140 -149 OFFCURVE",
"140 -113 CURVE SMOOTH",
"140 -73 OFFCURVE",
"108 -41 OFFCURVE",
"68 -41 CURVE SMOOTH",
"27 -41 OFFCURVE",
"-5 -73 OFFCURVE",
"-5 -113 CURVE SMOOTH",
"-5 -177 OFFCURVE",
"55 -232 OFFCURVE",
"135 -232 CURVE SMOOTH"
);
}
);
width = 593;
}
);
leftKerningGroup = v;
note = y;
rightKerningGroup = y;
unicode = 0079;
},
{
glyphname = z;
layers = (
{
anchors = (
{
name = bottom;
position = "{278, 0}";
},
{
name = top;
position = "{278, 524}";
}
);
guideLines = (
{
angle = 90;
position = "{278, 430}";
}
);
layerId = "EE746D13-63D7-48F9-B77E-C723CA6A668B";
paths = (
{
closed = 1;
nodes = (
"487 0 LINE",
"487 204 LINE",
"407 204 LINE",
"407 55 LINE",
"160 55 LINE",
"485 449 LINE",
"485 524 LINE",
"70 524 LINE",
"70 335 LINE",
"150 335 LINE",
"150 469 LINE",
"377 469 LINE",
"54 81 LINE",
"55 0 LINE"
);
}
);
width = 540;
}
);
leftKerningGroup = z;
note = z;
rightKerningGroup = z;
unicode = 007A;
},
{
glyphname = c_h;
layers = (
{
guideLines = (
{
angle = 90;
position = "{652, 366}";
}
);
layerId = "EE746D13-63D7-48F9-B77E-C723CA6A668B";
paths = (
{
closed = 1;
nodes = (
"421 -13 OFFCURVE",
"504 56 OFFCURVE",
"529 163 CURVE",
"474 181 LINE",
"458 124 OFFCURVE",
"389 66 OFFCURVE",
"321 66 CURVE SMOOTH",
"218 66 OFFCURVE",
"157 143 OFFCURVE",
"157 268 CURVE SMOOTH",
"157 381 OFFCURVE",
"215 483 OFFCURVE",
"328 483 CURVE SMOOTH",
"379 483 OFFCURVE",
"420 458 OFFCURVE",
"441 424 CURVE",
"401 424 OFFCURVE",
"366 399 OFFCURVE",
"366 357 CURVE SMOOTH",
"366 315 OFFCURVE",
"399 288 OFFCURVE",
"441 288 CURVE SMOOTH",
"489 288 OFFCURVE",
"518 328 OFFCURVE",
"518 367 CURVE SMOOTH",
"518 472 OFFCURVE",
"419 538 OFFCURVE",
"311 538 CURVE SMOOTH",
"148 538 OFFCURVE",
"46 415 OFFCURVE",
"46 252 CURVE SMOOTH",
"46 98 OFFCURVE",
"150 -13 OFFCURVE",
"299 -13 CURVE SMOOTH"
);
},
{
closed = 1;
nodes = (
"652 57 LINE",
"562 57 LINE",
"562 0 LINE",
"852 0 LINE",
"852 57 LINE",
"757 57 LINE",
"757 292 LINE SMOOTH",
"757 387 OFFCURVE",
"837 469 OFFCURVE",
"907 469 CURVE SMOOTH",
"954 469 OFFCURVE",
"985 433 OFFCURVE",
"985 357 CURVE SMOOTH",
"985 57 LINE",
"890 57 LINE",
"890 0 LINE",
"1195 0 LINE",
"1195 57 LINE",
"1090 57 LINE",
"1090 353 LINE SMOOTH",
"1090 385 OFFCURVE",
"1086 413 OFFCURVE",
"1078 437 CURVE SMOOTH",
"1062 484 OFFCURVE",
"1040 506 OFFCURVE",
"1009 521 CURVE SMOOTH",
"977 536 OFFCURVE",
"956 538 OFFCURVE",
"928 538 CURVE SMOOTH",
"907 538 OFFCURVE",
"887 535 OFFCURVE",
"867 529 CURVE SMOOTH",
"826 516 OFFCURVE",
"782 482 OFFCURVE",
"757 431 CURVE",
"757 735 LINE",
"604 735 LINE SMOOTH",
"495 735 OFFCURVE",
"405 648 OFFCURVE",
"405 537 CURVE SMOOTH",
"405 500 OFFCURVE",
"422 459 OFFCURVE",
"445 427 CURVE",
"489 457 LINE",
"469 483 OFFCURVE",
"464 507 OFFCURVE",
"464 537 CURVE SMOOTH",
"464 615 OFFCURVE",
"527 676 OFFCURVE",
"604 676 CURVE SMOOTH",
"652 676 LINE"
);
}
);
width = 1209;
}
);
leftKerningGroup = c;
leftMetricsKey = c;
note = c_h;
rightKerningGroup = h;
rightMetricsKey = h;
},
{
glyphname = c_k;
layers = (
{
guideLines = (
{
angle = 45;
position = "{344, 604}";
}
);
layerId = "EE746D13-63D7-48F9-B77E-C723CA6A668B";
paths = (
{
closed = 1;
nodes = (
"421 -13 OFFCURVE",
"504 56 OFFCURVE",
"529 163 CURVE",
"474 181 LINE",
"458 124 OFFCURVE",
"389 66 OFFCURVE",
"321 66 CURVE SMOOTH",
"218 66 OFFCURVE",
"157 143 OFFCURVE",
"157 268 CURVE SMOOTH",
"157 381 OFFCURVE",
"215 483 OFFCURVE",
"328 483 CURVE SMOOTH",
"379 483 OFFCURVE",
"420 458 OFFCURVE",
"441 424 CURVE",
"401 424 OFFCURVE",
"366 399 OFFCURVE",
"366 357 CURVE SMOOTH",
"366 315 OFFCURVE",
"399 288 OFFCURVE",
"441 288 CURVE SMOOTH",
"489 288 OFFCURVE",
"518 328 OFFCURVE",
"518 367 CURVE SMOOTH",
"518 472 OFFCURVE",
"419 538 OFFCURVE",
"311 538 CURVE SMOOTH",
"148 538 OFFCURVE",
"46 415 OFFCURVE",
"46 252 CURVE SMOOTH",
"46 98 OFFCURVE",
"150 -13 OFFCURVE",
"299 -13 CURVE SMOOTH"
);
},
{
closed = 1;
nodes = (
"469 483 OFFCURVE",
"461 507 OFFCURVE",
"461 537 CURVE SMOOTH",
"461 615 OFFCURVE",
"524 676 OFFCURVE",
"601 676 CURVE SMOOTH",
"680 676 LINE",
"680 55 LINE",
"581 55 LINE",
"581 0 LINE",
"858 0 LINE",
"858 55 LINE",
"785 55 LINE",
"785 184 LINE",
"880 269 LINE",
"1000 55 LINE",
"927 55 LINE",
"927 0 LINE",
"1214 0 LINE",
"1214 55 LINE",
"1120 55 LINE",
"943 332 LINE",
"1080 469 LINE",
"1190 469 LINE",
"1190 524 LINE",
"897 524 LINE",
"897 469 LINE",
"994 469 LINE",
"785 268 LINE",
"785 735 LINE",
"604 735 LINE SMOOTH",
"495 735 OFFCURVE",
"405 648 OFFCURVE",
"405 537 CURVE SMOOTH",
"405 500 OFFCURVE",
"422 459 OFFCURVE",
"445 427 CURVE",
"489 457 LINE"
);
}
);
width = 1222;
}
);
leftKerningGroup = c;
leftMetricsKey = c;
note = c_k;
rightKerningGroup = k;
rightMetricsKey = k;
},
{
glyphname = c_t;
layers = (
{
guideLines = (
{
angle = 90;
position = "{529, 163}";
},
{
position = "{362, 745}";
},
{
angle = 90;
position = "{417, 666}";
}
);
layerId = "EE746D13-63D7-48F9-B77E-C723CA6A668B";
paths = (
{
closed = 1;
nodes = (
"421 -13 OFFCURVE",
"504 56 OFFCURVE",
"529 163 CURVE",
"474 181 LINE",
"458 124 OFFCURVE",
"389 66 OFFCURVE",
"321 66 CURVE SMOOTH",
"218 66 OFFCURVE",
"157 143 OFFCURVE",
"157 268 CURVE SMOOTH",
"157 381 OFFCURVE",
"215 483 OFFCURVE",
"328 483 CURVE SMOOTH",
"379 483 OFFCURVE",
"420 458 OFFCURVE",
"441 424 CURVE",
"401 424 OFFCURVE",
"366 399 OFFCURVE",
"366 357 CURVE SMOOTH",
"366 315 OFFCURVE",
"399 288 OFFCURVE",
"441 288 CURVE SMOOTH",
"489 288 OFFCURVE",
"518 328 OFFCURVE",
"518 367 CURVE SMOOTH",
"518 472 OFFCURVE",
"419 538 OFFCURVE",
"311 538 CURVE SMOOTH",
"148 538 OFFCURVE",
"46 415 OFFCURVE",
"46 252 CURVE SMOOTH",
"46 98 OFFCURVE",
"150 -13 OFFCURVE",
"299 -13 CURVE SMOOTH"
);
},
{
closed = 1;
nodes = (
"945 -13 OFFCURVE",
"985 52 OFFCURVE",
"985 181 CURVE SMOOTH",
"985 241 LINE",
"926 241 LINE",
"926 171 LINE SMOOTH",
"926 85 OFFCURVE",
"899 55 OFFCURVE",
"847 55 CURVE SMOOTH",
"804 55 OFFCURVE",
"776 84 OFFCURVE",
"776 141 CURVE SMOOTH",
"776 468 LINE",
"968 468 LINE",
"968 524 LINE",
"776 524 LINE",
"776 665 LINE",
"720 665 LINE",
"720 554 OFFCURVE",
"638 529 OFFCURVE",
"555 518 CURVE",
"555 468 LINE",
"671 468 LINE",
"671 144 LINE SMOOTH",
"671 91 OFFCURVE",
"691 49 OFFCURVE",
"721 24 CURVE SMOOTH",
"751 -1 OFFCURVE",
"789 -13 OFFCURVE",
"829 -13 CURVE SMOOTH"
);
},
{
closed = 1;
nodes = (
"776 665 LINE",
"776 758 OFFCURVE",
"704 860 OFFCURVE",
"535 860 CURVE SMOOTH",
"367 860 OFFCURVE",
"295 740 OFFCURVE",
"295 646 CURVE SMOOTH",
"295 558 OFFCURVE",
"340 502 OFFCURVE",
"406 460 CURVE",
"434 506 LINE",
"381 535 OFFCURVE",
"351 575 OFFCURVE",
"351 646 CURVE SMOOTH",
"351 707 OFFCURVE",
"400 801 OFFCURVE",
"535 801 CURVE SMOOTH",
"671 801 OFFCURVE",
"720 727 OFFCURVE",
"720 665 CURVE"
);
}
);
width = 1027;
}
);
leftKerningGroup = o;
leftMetricsKey = c;
rightKerningGroup = c_t;
rightMetricsKey = t;
},
{
glyphname = f_f;
layers = (
{
layerId = "EE746D13-63D7-48F9-B77E-C723CA6A668B";
paths = (
{
closed = 1;
nodes = (
"676 0 LINE",
"676 55 LINE",
"554 55 LINE",
"554 469 LINE",
"707 469 LINE",
"707 524 LINE",
"551 524 LINE",
"551 576 LINE SMOOTH",
"551 673 OFFCURVE",
"579 732 OFFCURVE",
"645 732 CURVE SMOOTH",
"677 732 OFFCURVE",
"701 721 OFFCURVE",
"708 710 CURVE",
"686 710 OFFCURVE",
"660 693 OFFCURVE",
"660 660 CURVE SMOOTH",
"660 629 OFFCURVE",
"679 590 OFFCURVE",
"730 590 CURVE SMOOTH",
"781 590 OFFCURVE",
"800 629 OFFCURVE",
"800 660 CURVE SMOOTH",
"800 715 OFFCURVE",
"745 773 OFFCURVE",
"639 773 CURVE SMOOTH",
"530 773 OFFCURVE",
"449 720 OFFCURVE",
"449 576 CURVE",
"449 524 LINE",
"354 524 LINE",
"354 469 LINE",
"449 469 LINE",
"449 55 LINE",
"364 55 LINE",
"364 0 LINE"
);
},
{
closed = 1;
nodes = (
"306 0 LINE",
"306 55 LINE",
"224 55 LINE",
"224 469 LINE",
"377 469 LINE",
"377 524 LINE",
"221 524 LINE",
"221 576 LINE SMOOTH",
"221 673 OFFCURVE",
"259 732 OFFCURVE",
"335 732 CURVE SMOOTH",
"377 732 OFFCURVE",
"407 716 OFFCURVE",
"418 700 CURVE",
"396 700 OFFCURVE",
"370 683 OFFCURVE",
"370 650 CURVE SMOOTH",
"370 619 OFFCURVE",
"389 580 OFFCURVE",
"440 580 CURVE SMOOTH",
"491 580 OFFCURVE",
"510 619 OFFCURVE",
"510 650 CURVE SMOOTH",
"510 705 OFFCURVE",
"445 773 OFFCURVE",
"329 773 CURVE SMOOTH",
"210 773 OFFCURVE",
"119 720 OFFCURVE",
"119 576 CURVE",
"119 524 LINE",
"24 524 LINE",
"24 469 LINE",
"119 469 LINE",
"119 55 LINE",
"24 55 LINE",
"24 0 LINE"
);
}
);
width = 748;
}
);
leftKerningGroup = f;
leftMetricsKey = f;
note = f_f;
rightKerningGroup = f;
rightMetricsKey = f;
},
{
glyphname = f_f_i;
layers = (
{
layerId = "EE746D13-63D7-48F9-B77E-C723CA6A668B";
paths = (
{
closed = 1;
nodes = (
"883 524 LINE",
"561 524 LINE",
"561 566 LINE SMOOTH",
"561 673 OFFCURVE",
"613 730 OFFCURVE",
"697 730 CURVE SMOOTH",
"742 730 OFFCURVE",
"765 717 OFFCURVE",
"779 705 CURVE",
"765 699 OFFCURVE",
"744 684 OFFCURVE",
"744 651 CURVE SMOOTH",
"744 620 OFFCURVE",
"763 585 OFFCURVE",
"814 585 CURVE SMOOTH",
"865 585 OFFCURVE",
"884 624 OFFCURVE",
"884 655 CURVE SMOOTH",
"884 708 OFFCURVE",
"825 773 OFFCURVE",
"681 773 CURVE SMOOTH",
"610 773 OFFCURVE",
"540 748 OFFCURVE",
"498 693 CURVE",
"474 735 OFFCURVE",
"416 773 OFFCURVE",
"329 773 CURVE SMOOTH",
"210 773 OFFCURVE",
"119 720 OFFCURVE",
"119 576 CURVE SMOOTH",
"119 524 LINE",
"24 524 LINE",
"24 469 LINE",
"119 469 LINE",
"119 55 LINE",
"24 55 LINE",
"24 0 LINE",
"306 0 LINE",
"306 55 LINE",
"224 55 LINE",
"224 469 LINE",
"459 469 LINE",
"459 55 LINE",
"364 55 LINE",
"364 0 LINE",
"642 0 LINE",
"642 55 LINE",
"564 55 LINE",
"564 469 LINE",
"778 469 LINE",
"778 55 LINE",
"700 55 LINE",
"700 0 LINE",
"979 0 LINE",
"979 55 LINE",
"883 55 LINE"
);
},
{
closed = 1;
nodes = (
"221 524 LINE",
"221 576 LINE SMOOTH",
"221 673 OFFCURVE",
"259 732 OFFCURVE",
"335 732 CURVE SMOOTH",
"377 732 OFFCURVE",
"407 716 OFFCURVE",
"418 700 CURVE",
"396 700 OFFCURVE",
"370 683 OFFCURVE",
"370 650 CURVE SMOOTH",
"370 619 OFFCURVE",
"389 580 OFFCURVE",
"440 580 CURVE SMOOTH",
"447 580 OFFCURVE",
"454 581 OFFCURVE",
"459 582 CURVE",
"459 566 LINE",
"459 524 LINE"
);
}
);
width = 992;
}
);
leftKerningGroup = f;
leftMetricsKey = f;
note = f_f_i;
rightKerningGroup = i;
rightMetricsKey = "=i*0.6";
},
{
glyphname = f_f_l;
layers = (
{
guideLines = (
{
angle = 90;
position = "{778, 324}";
}
);
layerId = "EE746D13-63D7-48F9-B77E-C723CA6A668B";
paths = (
{
closed = 1;
nodes = (
"883 768 LINE",
"800 753 LINE",
"770 765 OFFCURVE",
"730 773 OFFCURVE",
"681 773 CURVE SMOOTH",
"610 773 OFFCURVE",
"540 748 OFFCURVE",
"498 693 CURVE",
"474 735 OFFCURVE",
"416 773 OFFCURVE",
"329 773 CURVE SMOOTH",
"210 773 OFFCURVE",
"119 720 OFFCURVE",
"119 576 CURVE SMOOTH",
"119 524 LINE",
"24 524 LINE",
"24 469 LINE",
"119 469 LINE",
"119 55 LINE",
"24 55 LINE",
"24 0 LINE",
"306 0 LINE",
"306 55 LINE",
"224 55 LINE",
"224 469 LINE",
"459 469 LINE",
"459 55 LINE",
"364 55 LINE",
"364 0 LINE",
"642 0 LINE",
"642 55 LINE",
"564 55 LINE",
"564 469 LINE",
"788 469 LINE",
"788 524 LINE",
"561 524 LINE",
"561 566 LINE SMOOTH",
"561 673 OFFCURVE",
"613 730 OFFCURVE",
"697 730 CURVE SMOOTH",
"742 730 OFFCURVE",
"774 718 OFFCURVE",
"788 706 CURVE",
"769 703 OFFCURVE",
"744 683 OFFCURVE",
"744 651 CURVE SMOOTH",
"744 629 OFFCURVE",
"754 605 OFFCURVE",
"778 593 CURVE",
"778 55 LINE",
"700 55 LINE",
"700 0 LINE",
"979 0 LINE",
"979 55 LINE",
"883 55 LINE"
);
},
{
closed = 1;
nodes = (
"221 524 LINE",
"221 576 LINE SMOOTH",
"221 673 OFFCURVE",
"259 732 OFFCURVE",
"335 732 CURVE SMOOTH",
"377 732 OFFCURVE",
"407 716 OFFCURVE",
"418 700 CURVE",
"396 700 OFFCURVE",
"370 683 OFFCURVE",
"370 650 CURVE SMOOTH",
"370 619 OFFCURVE",
"389 580 OFFCURVE",
"440 580 CURVE SMOOTH",
"447 580 OFFCURVE",
"454 581 OFFCURVE",
"459 582 CURVE",
"459 566 LINE",
"459 524 LINE"
);
}
);
width = 998;
}
);
leftKerningGroup = f;
leftMetricsKey = f;
note = f_f_l;
rightKerningGroup = l;
rightMetricsKey = l;
},
{
glyphname = f_j;
layers = (
{
layerId = "EE746D13-63D7-48F9-B77E-C723CA6A668B";
paths = (
{
closed = 1;
nodes = (
"221 524 LINE",
"221 566 LINE SMOOTH",
"221 673 OFFCURVE",
"273 730 OFFCURVE",
"357 730 CURVE SMOOTH",
"402 730 OFFCURVE",
"425 717 OFFCURVE",
"439 705 CURVE",
"425 699 OFFCURVE",
"404 684 OFFCURVE",
"404 651 CURVE SMOOTH",
"404 620 OFFCURVE",
"423 585 OFFCURVE",
"474 585 CURVE SMOOTH",
"525 585 OFFCURVE",
"544 624 OFFCURVE",
"544 655 CURVE SMOOTH",
"544 708 OFFCURVE",
"485 773 OFFCURVE",
"341 773 CURVE SMOOTH",
"229 773 OFFCURVE",
"119 710 OFFCURVE",
"119 566 CURVE SMOOTH",
"119 524 LINE",
"24 524 LINE",
"24 469 LINE",
"119 469 LINE",
"119 55 LINE",
"24 55 LINE",
"24 0 LINE",
"302 0 LINE",
"302 55 LINE",
"224 55 LINE",
"224 469 LINE",
"437 469 LINE",
"437 -59 LINE SMOOTH",
"437 -129 OFFCURVE",
"415 -181 OFFCURVE",
"357 -181 CURVE SMOOTH",
"344 -181 OFFCURVE",
"332 -178 OFFCURVE",
"323 -171 CURVE",
"334 -163 OFFCURVE",
"350 -146 OFFCURVE",
"350 -119 CURVE SMOOTH",
"350 -84 OFFCURVE",
"321 -55 OFFCURVE",
"286 -55 CURVE SMOOTH",
"251 -55 OFFCURVE",
"222 -84 OFFCURVE",
"222 -119 CURVE SMOOTH",
"222 -181 OFFCURVE",
"274 -230 OFFCURVE",
"370 -230 CURVE SMOOTH",
"473 -230 OFFCURVE",
"542 -164 OFFCURVE",
"542 -44 CURVE SMOOTH",
"542 523 LINE",
"543 524 LINE"
);
}
);
width = 632;
}
);
leftKerningGroup = f;
leftMetricsKey = f;
note = f_j;
rightKerningGroup = j;
rightMetricsKey = j;
},
{
glyphname = fi;
layers = (
{
layerId = "EE746D13-63D7-48F9-B77E-C723CA6A668B";
paths = (
{
closed = 1;
nodes = (
"543 524 LINE",
"221 524 LINE",
"221 566 LINE SMOOTH",
"221 673 OFFCURVE",
"273 730 OFFCURVE",
"357 730 CURVE SMOOTH",
"402 730 OFFCURVE",
"425 717 OFFCURVE",
"439 705 CURVE",
"425 699 OFFCURVE",
"404 684 OFFCURVE",
"404 651 CURVE SMOOTH",
"404 620 OFFCURVE",
"423 585 OFFCURVE",
"474 585 CURVE SMOOTH",
"525 585 OFFCURVE",
"544 624 OFFCURVE",
"544 655 CURVE SMOOTH",
"544 708 OFFCURVE",
"485 773 OFFCURVE",
"341 773 CURVE SMOOTH",
"229 773 OFFCURVE",
"119 710 OFFCURVE",
"119 566 CURVE SMOOTH",
"119 524 LINE",
"24 524 LINE",
"24 469 LINE",
"119 469 LINE",
"119 55 LINE",
"24 55 LINE",
"24 0 LINE",
"302 0 LINE",
"302 55 LINE",
"224 55 LINE",
"224 469 LINE",
"438 469 LINE",
"438 55 LINE",
"360 55 LINE",
"360 0 LINE",
"639 0 LINE",
"639 55 LINE",
"543 55 LINE"
);
}
);
width = 659;
}
);
leftKerningGroup = f;
leftMetricsKey = f;
note = fi;
rightKerningGroup = i;
rightMetricsKey = i;
unicode = FB01;
},
{
glyphname = fl;
layers = (
{
guideLines = (
{
angle = 90;
position = "{438, 262}";
},
{
angle = 90;
position = "{360, 28}";
}
);
layerId = "EE746D13-63D7-48F9-B77E-C723CA6A668B";
paths = (
{
closed = 1;
nodes = (
"221 524 LINE",
"221 566 LINE SMOOTH",
"221 673 OFFCURVE",
"273 730 OFFCURVE",
"357 730 CURVE SMOOTH",
"402 730 OFFCURVE",
"434 718 OFFCURVE",
"448 706 CURVE",
"429 703 OFFCURVE",
"404 683 OFFCURVE",
"404 651 CURVE SMOOTH",
"404 629 OFFCURVE",
"414 605 OFFCURVE",
"438 593 CURVE",
"438 55 LINE",
"360 55 LINE",
"360 0 LINE",
"639 0 LINE",
"639 55 LINE",
"543 55 LINE",
"543 768 LINE",
"460 753 LINE",
"430 765 OFFCURVE",
"390 773 OFFCURVE",
"341 773 CURVE SMOOTH",
"229 773 OFFCURVE",
"119 710 OFFCURVE",
"119 566 CURVE SMOOTH",
"119 524 LINE",
"24 524 LINE",
"24 469 LINE",
"119 469 LINE",
"119 55 LINE",
"24 55 LINE",
"24 0 LINE",
"302 0 LINE",
"302 55 LINE",
"224 55 LINE",
"224 469 LINE",
"448 469 LINE",
"448 524 LINE"
);
}
);
width = 658;
}
);
leftKerningGroup = f;
leftMetricsKey = f;
note = fl;
rightKerningGroup = l;
rightMetricsKey = l;
unicode = FB02;
},
{
glyphname = s_h;
layers = (
{
guideLines = (
{
angle = 90;
position = "{543, 138}";
}
);
layerId = "EE746D13-63D7-48F9-B77E-C723CA6A668B";
paths = (
{
closed = 1;
nodes = (
"381 -13 OFFCURVE",
"483 42 OFFCURVE",
"483 146 CURVE SMOOTH",
"483 234 OFFCURVE",
"416 276 OFFCURVE",
"315 307 CURVE SMOOTH",
"229 333 OFFCURVE",
"147 352 OFFCURVE",
"147 402 CURVE SMOOTH",
"147 455 OFFCURVE",
"200 480 OFFCURVE",
"267 480 CURVE SMOOTH",
"307 480 OFFCURVE",
"344 472 OFFCURVE",
"376 456 CURVE",
"357 445 OFFCURVE",
"339 430 OFFCURVE",
"339 402 CURVE SMOOTH",
"339 363 OFFCURVE",
"369 339 OFFCURVE",
"406 339 CURVE SMOOTH",
"440 339 OFFCURVE",
"469 369 OFFCURVE",
"469 412 CURVE SMOOTH",
"469 491 OFFCURVE",
"353 538 OFFCURVE",
"261 538 CURVE SMOOTH",
"156 538 OFFCURVE",
"56 487 OFFCURVE",
"56 392 CURVE SMOOTH",
"56 305 OFFCURVE",
"132 265 OFFCURVE",
"223 240 CURVE SMOOTH",
"312 216 OFFCURVE",
"390 196 OFFCURVE",
"390 134 CURVE SMOOTH",
"390 74 OFFCURVE",
"335 47 OFFCURVE",
"261 47 CURVE SMOOTH",
"203 47 OFFCURVE",
"156 66 OFFCURVE",
"137 84 CURVE",
"161 84 OFFCURVE",
"184 108 OFFCURVE",
"184 141 CURVE SMOOTH",
"184 180 OFFCURVE",
"155 200 OFFCURVE",
"118 200 CURVE SMOOTH",
"83 200 OFFCURVE",
"52 170 OFFCURVE",
"52 128 CURVE SMOOTH",
"52 40 OFFCURVE",
"160 -13 OFFCURVE",
"264 -13 CURVE SMOOTH"
);
},
{
closed = 1;
nodes = (
"633 57 LINE",
"543 57 LINE",
"543 0 LINE",
"833 0 LINE",
"833 57 LINE",
"738 57 LINE",
"738 292 LINE SMOOTH",
"738 387 OFFCURVE",
"818 469 OFFCURVE",
"888 469 CURVE SMOOTH",
"935 469 OFFCURVE",
"966 433 OFFCURVE",
"966 357 CURVE SMOOTH",
"966 57 LINE",
"871 57 LINE",
"871 0 LINE",
"1176 0 LINE",
"1176 57 LINE",
"1071 57 LINE",
"1071 353 LINE SMOOTH",
"1071 385 OFFCURVE",
"1067 413 OFFCURVE",
"1059 437 CURVE SMOOTH",
"1043 484 OFFCURVE",
"1021 506 OFFCURVE",
"990 521 CURVE SMOOTH",
"958 536 OFFCURVE",
"937 538 OFFCURVE",
"909 538 CURVE SMOOTH",
"888 538 OFFCURVE",
"868 535 OFFCURVE",
"848 529 CURVE SMOOTH",
"807 517 OFFCURVE",
"763 482 OFFCURVE",
"738 431 CURVE",
"738 735 LINE",
"550 735 LINE SMOOTH",
"451 735 OFFCURVE",
"361 668 OFFCURVE",
"361 567 CURVE SMOOTH",
"361 500 OFFCURVE",
"386 474 OFFCURVE",
"416 430 CURVE",
"457 454 LINE",
"433 493 OFFCURVE",
"420 507 OFFCURVE",
"420 557 CURVE SMOOTH",
"420 635 OFFCURVE",
"483 676 OFFCURVE",
"550 676 CURVE SMOOTH",
"633 676 LINE"
);
}
);
width = 1190;
}
);
leftKerningGroup = s;
leftMetricsKey = s;
note = s_h;
rightKerningGroup = h;
rightMetricsKey = h;
},
{
glyphname = s_k;
layers = (
{
guideLines = (
{
angle = 90;
position = "{483, 28}";
}
);
layerId = "EE746D13-63D7-48F9-B77E-C723CA6A668B";
paths = (
{
closed = 1;
nodes = (
"381 -13 OFFCURVE",
"483 42 OFFCURVE",
"483 146 CURVE SMOOTH",
"483 234 OFFCURVE",
"416 276 OFFCURVE",
"315 307 CURVE SMOOTH",
"229 333 OFFCURVE",
"147 352 OFFCURVE",
"147 402 CURVE SMOOTH",
"147 455 OFFCURVE",
"200 480 OFFCURVE",
"267 480 CURVE SMOOTH",
"307 480 OFFCURVE",
"344 472 OFFCURVE",
"376 456 CURVE",
"357 445 OFFCURVE",
"339 430 OFFCURVE",
"339 402 CURVE SMOOTH",
"339 363 OFFCURVE",
"369 339 OFFCURVE",
"406 339 CURVE SMOOTH",
"440 339 OFFCURVE",
"469 369 OFFCURVE",
"469 412 CURVE SMOOTH",
"469 491 OFFCURVE",
"353 538 OFFCURVE",
"261 538 CURVE SMOOTH",
"156 538 OFFCURVE",
"56 487 OFFCURVE",
"56 392 CURVE SMOOTH",
"56 305 OFFCURVE",
"132 265 OFFCURVE",
"223 240 CURVE SMOOTH",
"312 216 OFFCURVE",
"390 196 OFFCURVE",
"390 134 CURVE SMOOTH",
"390 74 OFFCURVE",
"335 47 OFFCURVE",
"261 47 CURVE SMOOTH",
"203 47 OFFCURVE",
"156 66 OFFCURVE",
"137 84 CURVE",
"161 84 OFFCURVE",
"184 108 OFFCURVE",
"184 141 CURVE SMOOTH",
"184 180 OFFCURVE",
"155 200 OFFCURVE",
"118 200 CURVE SMOOTH",
"83 200 OFFCURVE",
"52 170 OFFCURVE",
"52 128 CURVE SMOOTH",
"52 40 OFFCURVE",
"160 -13 OFFCURVE",
"264 -13 CURVE SMOOTH"
);
},
{
closed = 1;
nodes = (
"641 55 LINE",
"542 55 LINE",
"542 0 LINE",
"819 0 LINE",
"819 55 LINE",
"746 55 LINE",
"746 184 LINE",
"841 269 LINE",
"961 55 LINE",
"888 55 LINE",
"888 0 LINE",
"1175 0 LINE",
"1175 55 LINE",
"1081 55 LINE",
"904 332 LINE",
"1041 469 LINE",
"1151 469 LINE",
"1151 524 LINE",
"858 524 LINE",
"858 469 LINE",
"955 469 LINE",
"746 268 LINE",
"746 735 LINE",
"550 735 LINE SMOOTH",
"451 735 OFFCURVE",
"361 668 OFFCURVE",
"361 567 CURVE SMOOTH",
"361 500 OFFCURVE",
"386 474 OFFCURVE",
"416 430 CURVE",
"457 454 LINE",
"433 493 OFFCURVE",
"420 507 OFFCURVE",
"420 557 CURVE SMOOTH",
"420 635 OFFCURVE",
"483 676 OFFCURVE",
"550 676 CURVE SMOOTH",
"641 676 LINE"
);
}
);
width = 1183;
}
);
leftKerningGroup = s;
leftMetricsKey = s;
note = _398;
rightKerningGroup = k;
rightMetricsKey = k;
},
{
glyphname = s_t;
layers = (
{
guideLines = (
{
angle = 90;
position = "{483, 493}";
}
);
layerId = "EE746D13-63D7-48F9-B77E-C723CA6A668B";
paths = (
{
closed = 1;
nodes = (
"906 -13 OFFCURVE",
"946 52 OFFCURVE",
"946 181 CURVE SMOOTH",
"946 241 LINE",
"887 241 LINE",
"887 171 LINE SMOOTH",
"887 85 OFFCURVE",
"860 55 OFFCURVE",
"808 55 CURVE SMOOTH",
"765 55 OFFCURVE",
"737 84 OFFCURVE",
"737 141 CURVE SMOOTH",
"737 468 LINE",
"929 468 LINE",
"929 524 LINE",
"737 524 LINE",
"737 665 LINE",
"681 665 LINE",
"681 554 OFFCURVE",
"599 529 OFFCURVE",
"516 518 CURVE",
"516 468 LINE",
"632 468 LINE",
"632 144 LINE SMOOTH",
"632 91 OFFCURVE",
"652 49 OFFCURVE",
"682 24 CURVE SMOOTH",
"712 -1 OFFCURVE",
"750 -13 OFFCURVE",
"790 -13 CURVE SMOOTH"
);
},
{
closed = 1;
nodes = (
"737 665 LINE",
"737 758 OFFCURVE",
"665 860 OFFCURVE",
"496 860 CURVE SMOOTH",
"328 860 OFFCURVE",
"256 740 OFFCURVE",
"256 646 CURVE SMOOTH",
"256 558 OFFCURVE",
"301 502 OFFCURVE",
"376 456 CURVE",
"395 507 LINE",
"342 535 OFFCURVE",
"312 575 OFFCURVE",
"312 646 CURVE SMOOTH",
"312 707 OFFCURVE",
"361 801 OFFCURVE",
"496 801 CURVE SMOOTH",
"632 801 OFFCURVE",
"681 727 OFFCURVE",
"681 665 CURVE"
);
},
{
closed = 1;
nodes = (
"381 -13 OFFCURVE",
"483 42 OFFCURVE",
"483 146 CURVE SMOOTH",
"483 234 OFFCURVE",
"416 276 OFFCURVE",
"315 307 CURVE SMOOTH",
"229 333 OFFCURVE",
"147 352 OFFCURVE",
"147 402 CURVE SMOOTH",
"147 455 OFFCURVE",
"200 480 OFFCURVE",
"267 480 CURVE SMOOTH",
"307 480 OFFCURVE",
"344 472 OFFCURVE",
"376 456 CURVE",
"357 445 OFFCURVE",
"339 430 OFFCURVE",
"339 402 CURVE SMOOTH",
"339 363 OFFCURVE",
"369 339 OFFCURVE",
"406 339 CURVE SMOOTH",
"440 339 OFFCURVE",
"469 369 OFFCURVE",
"469 412 CURVE SMOOTH",
"469 491 OFFCURVE",
"353 538 OFFCURVE",
"261 538 CURVE SMOOTH",
"156 538 OFFCURVE",
"56 487 OFFCURVE",
"56 392 CURVE SMOOTH",
"56 305 OFFCURVE",
"132 265 OFFCURVE",
"223 240 CURVE SMOOTH",
"312 216 OFFCURVE",
"390 196 OFFCURVE",
"390 134 CURVE SMOOTH",
"390 74 OFFCURVE",
"335 47 OFFCURVE",
"261 47 CURVE SMOOTH",
"203 47 OFFCURVE",
"156 66 OFFCURVE",
"137 84 CURVE",
"161 84 OFFCURVE",
"184 108 OFFCURVE",
"184 141 CURVE SMOOTH",
"184 180 OFFCURVE",
"155 200 OFFCURVE",
"118 200 CURVE SMOOTH",
"83 200 OFFCURVE",
"52 170 OFFCURVE",
"52 128 CURVE SMOOTH",
"52 40 OFFCURVE",
"160 -13 OFFCURVE",
"264 -13 CURVE SMOOTH"
);
}
);
width = 988;
}
);
leftKerningGroup = s_t;
leftMetricsKey = s;
rightKerningGroup = s_t;
rightMetricsKey = t;
},
{
glyphname = t_t;
layers = (
{
layerId = "EE746D13-63D7-48F9-B77E-C723CA6A668B";
paths = (
{
closed = 1;
nodes = (
"392 -13 OFFCURVE",
"432 52 OFFCURVE",
"432 181 CURVE SMOOTH",
"432 241 LINE",
"373 241 LINE",
"373 171 LINE SMOOTH",
"373 85 OFFCURVE",
"346 55 OFFCURVE",
"294 55 CURVE SMOOTH",
"251 55 OFFCURVE",
"223 84 OFFCURVE",
"223 141 CURVE SMOOTH",
"223 468 LINE",
"415 468 LINE",
"415 524 LINE",
"223 524 LINE",
"223 735 LINE",
"167 735 LINE",
"167 634 OFFCURVE",
"135 539 OFFCURVE",
"2 518 CURVE",
"2 468 LINE",
"118 468 LINE",
"118 144 LINE SMOOTH",
"118 91 OFFCURVE",
"138 49 OFFCURVE",
"168 24 CURVE SMOOTH",
"198 -1 OFFCURVE",
"236 -13 OFFCURVE",
"276 -13 CURVE SMOOTH"
);
},
{
closed = 1;
nodes = (
"763 -12 OFFCURVE",
"803 53 OFFCURVE",
"803 182 CURVE SMOOTH",
"803 242 LINE",
"744 242 LINE",
"744 172 LINE SMOOTH",
"744 86 OFFCURVE",
"717 56 OFFCURVE",
"665 56 CURVE SMOOTH",
"622 56 OFFCURVE",
"594 85 OFFCURVE",
"594 142 CURVE SMOOTH",
"594 469 LINE",
"786 469 LINE",
"786 525 LINE",
"594 525 LINE",
"594 736 LINE",
"538 736 LINE",
"538 635 OFFCURVE",
"506 524 OFFCURVE",
"373 524 CURVE",
"373 468 LINE",
"489 468 LINE",
"489 145 LINE SMOOTH",
"489 92 OFFCURVE",
"509 50 OFFCURVE",
"539 25 CURVE SMOOTH",
"569 0 OFFCURVE",
"607 -12 OFFCURVE",
"647 -12 CURVE SMOOTH"
);
}
);
width = 845;
}
);
leftKerningGroup = t;
leftMetricsKey = t;
note = t_t;
rightKerningGroup = t_t;
rightMetricsKey = t;
},
{
glyphname = a.sc;
layers = (
{
anchors = (
{
name = bottom;
position = "{336, 0}";
},
{
name = ogonek;
position = "{640, 0}";
},
{
name = top;
position = "{336, 576}";
}
);
guideLines = (
{
angle = 90;
position = "{324, 64}";
},
{
angle = -66.2768;
position = "{502, 320}";
},
{
angle = -66.2768;
position = "{386, 320}";
},
{
angle = 246.653;
position = "{183, 320}";
},
{
angle = 246.653;
position = "{261, 320}";
},
{
angle = 180;
position = "{324, 242}";
}
);
layerId = "EE746D13-63D7-48F9-B77E-C723CA6A668B";
paths = (
{
closed = 1;
nodes = (
"265 0 LINE",
"265 64 LINE",
"150 64 LINE",
"202 186 LINE",
"445 186 LINE",
"498 64 LINE",
"393 64 LINE",
"393 0 LINE",
"694 0 LINE",
"694 64 LINE",
"614 64 LINE",
"389 576 LINE",
"293 576 LINE",
"72 64 LINE",
"-13 64 LINE",
"-13 0 LINE"
);
},
{
closed = 1;
nodes = (
"323 463 LINE",
"420 242 LINE",
"227 242 LINE"
);
}
);
width = 671;
}
);
leftKerningGroup = A;
note = A;
rightKerningGroup = A;
},
{
glyphname = b.sc;
layers = (
{
anchors = (
{
name = top;
position = "{308, 576}";
}
);
layerId = "EE746D13-63D7-48F9-B77E-C723CA6A668B";
paths = (
{
closed = 1;
nodes = (
"287 0 LINE SMOOTH",
"466 0 OFFCURVE",
"585 44 OFFCURVE",
"585 164 CURVE SMOOTH",
"585 256 OFFCURVE",
"503 303 OFFCURVE",
"431 309 CURVE",
"504 326 OFFCURVE",
"546 368 OFFCURVE",
"546 427 CURVE SMOOTH",
"546 536 OFFCURVE",
"465 576 OFFCURVE",
"278 576 CURVE SMOOTH",
"30 576 LINE",
"30 515 LINE",
"152 515 LINE",
"152 64 LINE",
"30 64 LINE",
"30 0 LINE"
);
},
{
closed = 1;
nodes = (
"259 279 LINE",
"307 279 LINE SMOOTH",
"401 279 OFFCURVE",
"478 247 OFFCURVE",
"478 166 CURVE SMOOTH",
"478 85 OFFCURVE",
"401 64 OFFCURVE",
"307 64 CURVE SMOOTH",
"259 64 LINE"
);
},
{
closed = 1;
nodes = (
"259 515 LINE",
"307 515 LINE SMOOTH",
"378 515 OFFCURVE",
"444 501 OFFCURVE",
"444 422 CURVE SMOOTH",
"444 355 OFFCURVE",
"375 329 OFFCURVE",
"307 329 CURVE SMOOTH",
"259 329 LINE"
);
}
);
width = 619;
}
);
leftMetricsKey = h.sc;
note = B;
rightKerningGroup = B;
},
{
glyphname = c.sc;
layers = (
{
anchors = (
{
name = bottom;
position = "{335, 0}";
},
{
name = top;
position = "{335, 576}";
}
);
guideLines = (
{
angle = 90;
position = "{255, 685}";
},
{
angle = 90;
position = "{372, 642}";
},
{
position = "{601, 239}";
}
);
layerId = "EE746D13-63D7-48F9-B77E-C723CA6A668B";
paths = (
{
closed = 1;
nodes = (
"501 -13 OFFCURVE",
"594 69 OFFCURVE",
"631 196 CURVE",
"561 212 LINE",
"534 124 OFFCURVE",
"468 63 OFFCURVE",
"358 63 CURVE SMOOTH",
"232 63 OFFCURVE",
"157 155 OFFCURVE",
"157 292 CURVE SMOOTH",
"157 432 OFFCURVE",
"242 527 OFFCURVE",
"367 527 CURVE SMOOTH",
"460 527 OFFCURVE",
"516 490 OFFCURVE",
"530 459 CURVE",
"503 459 OFFCURVE",
"478 437 OFFCURVE",
"478 397 CURVE SMOOTH",
"478 357 OFFCURVE",
"512 333 OFFCURVE",
"553 333 CURVE SMOOTH",
"600 333 OFFCURVE",
"628 371 OFFCURVE",
"628 411 CURVE SMOOTH",
"628 515 OFFCURVE",
"500 591 OFFCURVE",
"369 591 CURVE SMOOTH",
"161 591 OFFCURVE",
"39 463 OFFCURVE",
"39 288 CURVE SMOOTH",
"39 114 OFFCURVE",
"163 -13 OFFCURVE",
"355 -13 CURVE SMOOTH"
);
}
);
width = 672;
}
);
leftMetricsKey = o.sc;
},
{
glyphname = d.sc;
layers = (
{
anchors = (
{
name = bottom;
position = "{334, 0}";
},
{
name = strokeshort;
position = "{372, 264}";
},
{
name = top;
position = "{334, 576}";
}
);
background = {
paths = (
{
closed = 1;
nodes = (
"152 0 LINE SMOOTH",
"208 0 OFFCURVE",
"260 4 OFFCURVE",
"307 13 CURVE SMOOTH",
"401 31 OFFCURVE",
"482 69 OFFCURVE",
"537 126 CURVE SMOOTH",
"591 184 OFFCURVE",
"622 268 OFFCURVE",
"622 372 CURVE SMOOTH",
"622 427 OFFCURVE",
"613 477 OFFCURVE",
"595 520 CURVE SMOOTH",
"558 605 OFFCURVE",
"499 655 OFFCURVE",
"413 689 CURVE SMOOTH",
"327 724 OFFCURVE",
"239 735 OFFCURVE",
"134 735 CURVE SMOOTH",
"-87 735 LINE",
"-87 665 LINE",
"32 665 LINE",
"32 70 LINE",
"-87 70 LINE",
"-87 0 LINE"
);
},
{
closed = 1;
nodes = (
"147 664 LINE",
"175 664 OFFCURVE",
"200 663 OFFCURVE",
"224 661 CURVE SMOOTH",
"271 657 OFFCURVE",
"322 646 OFFCURVE",
"361 627 CURVE SMOOTH",
"400 609 OFFCURVE",
"437 579 OFFCURVE",
"460 539 CURVE SMOOTH",
"483 499 OFFCURVE",
"497 441 OFFCURVE",
"497 372 CURVE SMOOTH",
"497 326 OFFCURVE",
"491 285 OFFCURVE",
"479 250 CURVE SMOOTH",
"455 180 OFFCURVE",
"415 137 OFFCURVE",
"354 108 CURVE SMOOTH",
"293 80 OFFCURVE",
"229 70 OFFCURVE",
"147 70 CURVE"
);
}
);
};
guideLines = (
{
angle = 90;
position = "{334, 288}";
},
{
angle = 180;
position = "{609, 288}";
}
);
layerId = "EE746D13-63D7-48F9-B77E-C723CA6A668B";
paths = (
{
closed = 1;
nodes = (
"258 0 LINE",
"304 0 LINE SMOOTH",
"497 0 OFFCURVE",
"668 85 OFFCURVE",
"668 288 CURVE SMOOTH",
"668 491 OFFCURVE",
"497 576 OFFCURVE",
"304 576 CURVE SMOOTH",
"258 576 LINE",
"30 576 LINE",
"30 512 LINE",
"151 512 LINE",
"151 64 LINE",
"30 64 LINE",
"30 0 LINE"
);
},
{
closed = 1;
nodes = (
"258 64 LINE",
"258 511 LINE",
"304 511 LINE",
"451 511 OFFCURVE",
"550 441 OFFCURVE",
"550 288 CURVE SMOOTH",
"550 135 OFFCURVE",
"451 64 OFFCURVE",
"304 64 CURVE"
);
}
);
width = 707;
}
);
leftMetricsKey = h.sc;
note = D;
rightKerningGroup = D;
rightMetricsKey = o.sc;
},
{
glyphname = e.sc;
layers = (
{
anchors = (
{
name = bottom;
position = "{327, 0}";
},
{
name = ogonek;
position = "{569, 0}";
},
{
name = top;
position = "{327, 576}";
}
);
layerId = "EE746D13-63D7-48F9-B77E-C723CA6A668B";
paths = (
{
closed = 1;
nodes = (
"624 0 LINE",
"624 208 LINE",
"548 208 LINE",
"548 64 LINE",
"258 64 LINE",
"258 265 LINE",
"389 265 LINE",
"389 158 LINE",
"448 158 LINE",
"448 421 LINE",
"389 421 LINE",
"389 321 LINE",
"258 321 LINE",
"258 512 LINE",
"548 512 LINE",
"548 364 LINE",
"624 364 LINE",
"624 576 LINE",
"30 576 LINE",
"30 512 LINE",
"151 512 LINE",
"151 64 LINE",
"30 64 LINE",
"30 0 LINE"
);
}
);
width = 700;
}
);
leftMetricsKey = h.sc;
note = E;
},
{
glyphname = schwa.sc;
layers = (
{
layerId = "EE746D13-63D7-48F9-B77E-C723CA6A668B";
paths = (
{
closed = 1;
nodes = (
"203 591 OFFCURVE",
"110 509 OFFCURVE",
"63 382 CURVE",
"133 366 LINE",
"170 454 OFFCURVE",
"236 515 OFFCURVE",
"346 515 CURVE SMOOTH",
"474 515 OFFCURVE",
"548 405 OFFCURVE",
"549 289 CURVE",
"41 289 LINE",
"41 121 OFFCURVE",
"159 -13 OFFCURVE",
"349 -13 CURVE SMOOTH",
"538 -13 OFFCURVE",
"667 119 OFFCURVE",
"667 288 CURVE SMOOTH",
"667 459 OFFCURVE",
"536 591 OFFCURVE",
"349 591 CURVE SMOOTH"
);
},
{
closed = 1;
nodes = (
"242 51 OFFCURVE",
"181 136 OFFCURVE",
"164 233 CURVE",
"544 233 LINE",
"525 137 OFFCURVE",
"458 51 OFFCURVE",
"349 51 CURVE SMOOTH"
);
}
);
width = 706;
}
);
leftMetricsKey = "=|c.sc";
rightMetricsKey = o.sc;
},
{
glyphname = f.sc;
layers = (
{
anchors = (
{
name = top;
position = "{311, 576}";
}
);
layerId = "EE746D13-63D7-48F9-B77E-C723CA6A668B";
paths = (
{
closed = 1;
nodes = (
"387 0 LINE",
"387 64 LINE",
"258 64 LINE",
"258 270 LINE",
"377 270 LINE",
"377 163 LINE",
"436 163 LINE",
"436 421 LINE",
"377 421 LINE",
"377 326 LINE",
"258 326 LINE",
"258 512 LINE",
"516 512 LINE",
"516 364 LINE",
"592 364 LINE",
"592 576 LINE",
"30 576 LINE",
"30 512 LINE",
"151 512 LINE",
"151 64 LINE",
"30 64 LINE",
"30 0 LINE"
);
}
);
width = 640;
}
);
leftMetricsKey = h.sc;
note = F;
rightKerningGroup = F;
},
{
glyphname = g.sc;
layers = (
{
anchors = (
{
name = bottom;
position = "{374, 0}";
},
{
name = top;
position = "{374, 576}";
}
);
layerId = "EE746D13-63D7-48F9-B77E-C723CA6A668B";
paths = (
{
closed = 1;
nodes = (
"419 200 LINE",
"542 200 LINE",
"542 163 LINE SMOOTH",
"542 119 OFFCURVE",
"480 63 OFFCURVE",
"368 63 CURVE SMOOTH",
"237 63 OFFCURVE",
"157 154 OFFCURVE",
"157 295 CURVE SMOOTH",
"157 439 OFFCURVE",
"257 530 OFFCURVE",
"383 530 CURVE SMOOTH",
"470 530 OFFCURVE",
"523 496 OFFCURVE",
"537 470 CURVE",
"512 470 OFFCURVE",
"483 448 OFFCURVE",
"483 408 CURVE SMOOTH",
"483 369 OFFCURVE",
"517 343 OFFCURVE",
"563 343 CURVE SMOOTH",
"613 343 OFFCURVE",
"643 379 OFFCURVE",
"643 423 CURVE SMOOTH",
"643 510 OFFCURVE",
"523 594 OFFCURVE",
"374 594 CURVE SMOOTH",
"177 594 OFFCURVE",
"39 464 OFFCURVE",
"39 291 CURVE SMOOTH",
"39 119 OFFCURVE",
"161 -13 OFFCURVE",
"350 -13 CURVE SMOOTH",
"480 -13 OFFCURVE",
"532 46 OFFCURVE",
"552 63 CURVE",
"569 0 LINE",
"632 0 LINE",
"632 200 LINE",
"704 200 LINE",
"704 264 LINE",
"419 264 LINE"
);
}
);
width = 750;
}
);
leftMetricsKey = o.sc;
},
{
glyphname = h.sc;
layers = (
{
anchors = (
{
name = bottom;
position = "{395, 0}";
},
{
name = strokelong;
position = "{395, 436}";
},
{
name = top;
position = "{395, 575}";
}
);
layerId = "EE746D13-63D7-48F9-B77E-C723CA6A668B";
paths = (
{
closed = 1;
nodes = (
"362 0 LINE",
"362 64 LINE",
"258 64 LINE",
"258 268 LINE",
"532 268 LINE",
"532 64 LINE",
"427 64 LINE",
"427 0 LINE",
"760 0 LINE",
"760 64 LINE",
"639 64 LINE",
"639 512 LINE",
"760 512 LINE",
"760 576 LINE",
"427 576 LINE",
"427 512 LINE",
"532 512 LINE",
"532 324 LINE",
"258 324 LINE",
"258 512 LINE",
"363 512 LINE",
"363 576 LINE",
"30 576 LINE",
"30 512 LINE",
"151 512 LINE",
"151 64 LINE",
"30 64 LINE",
"30 0 LINE"
);
}
);
width = 790;
}
);
note = H;
rightKerningGroup = H;
},
{
glyphname = i.sc;
layers = (
{
anchors = (
{
name = bottom;
position = "{205, 0}";
},
{
name = ogonek;
position = "{323, 0}";
},
{
name = top;
position = "{205, 576}";
}
);
layerId = "EE746D13-63D7-48F9-B77E-C723CA6A668B";
paths = (
{
closed = 1;
nodes = (
"379 512 LINE",
"379 576 LINE",
"30 576 LINE",
"30 512 LINE",
"151 512 LINE",
"151 64 LINE",
"30 64 LINE",
"30 0 LINE",
"378 0 LINE",
"378 64 LINE",
"258 64 LINE",
"258 512 LINE"
);
}
);
width = 409;
}
);
note = I;
},
{
glyphname = j.sc;
layers = (
{
anchors = (
{
name = top;
position = "{282, 576}";
}
);
layerId = "EE746D13-63D7-48F9-B77E-C723CA6A668B";
paths = (
{
closed = 1;
nodes = (
"277 -196 OFFCURVE",
"333 -132 OFFCURVE",
"333 7 CURVE SMOOTH",
"333 506 LINE",
"455 506 LINE",
"455 576 LINE",
"92 576 LINE",
"92 506 LINE",
"231 506 LINE",
"231 -6 LINE SMOOTH",
"231 -90 OFFCURVE",
"205 -141 OFFCURVE",
"140 -141 CURVE SMOOTH",
"109 -141 OFFCURVE",
"82 -133 OFFCURVE",
"70 -118 CURVE",
"102 -107 OFFCURVE",
"124 -76 OFFCURVE",
"124 -41 CURVE SMOOTH",
"124 -2 OFFCURVE",
"90 29 OFFCURVE",
"51 29 CURVE SMOOTH",
"10 29 OFFCURVE",
"-24 -3 OFFCURVE",
"-24 -50 CURVE SMOOTH",
"-24 -137 OFFCURVE",
"52 -196 OFFCURVE",
"143 -196 CURVE SMOOTH"
);
}
);
width = 455;
}
);
note = J;
rightKerningGroup = J;
},
{
glyphname = k.sc;
layers = (
{
anchors = (
{
name = bottom;
position = "{372, 0}";
},
{
name = top;
position = "{372, 576}";
}
);
guideLines = (
{
angle = 128.6851;
position = "{393, 202}";
},
{
angle = 128.6851;
position = "{519, 202}";
},
{
angle = 40.2841;
position = "{394, 398}";
},
{
angle = 40.2841;
position = "{492, 398}";
},
{
angle = 90;
position = "{336, 32}";
},
{
angle = 90;
position = "{409, 544}";
}
);
layerId = "EE746D13-63D7-48F9-B77E-C723CA6A668B";
paths = (
{
closed = 1;
nodes = (
"336 0 LINE",
"336 64 LINE",
"259 64 LINE",
"259 203 LINE",
"340 269 LINE",
"503 64 LINE",
"409 64 LINE",
"409 0 LINE",
"728 0 LINE",
"728 64 LINE",
"629 64 LINE",
"415 332 LINE",
"626 512 LINE",
"722 512 LINE",
"722 576 LINE",
"409 576 LINE",
"409 512 LINE",
"528 512 LINE",
"259 284 LINE",
"259 512 LINE",
"336 512 LINE",
"336 576 LINE",
"30 576 LINE",
"30 512 LINE",
"152 512 LINE",
"152 64 LINE",
"30 64 LINE",
"30 0 LINE"
);
}
);
width = 736;
}
);
leftMetricsKey = h.sc;
note = K;
rightKerningGroup = K;
},
{
glyphname = kgreenlandic.sc;
layers = (
{
layerId = "EE746D13-63D7-48F9-B77E-C723CA6A668B";
paths = (
{
closed = 1;
nodes = (
"336 0 LINE",
"336 64 LINE",
"259 64 LINE",
"259 203 LINE",
"340 269 LINE",
"503 64 LINE",
"409 64 LINE",
"409 0 LINE",
"728 0 LINE",
"728 64 LINE",
"629 64 LINE",
"415 332 LINE",
"626 512 LINE",
"722 512 LINE",
"722 576 LINE",
"409 576 LINE",
"409 512 LINE",
"528 512 LINE",
"259 284 LINE",
"259 576 LINE",
"30 576 LINE",
"30 512 LINE",
"152 512 LINE",
"152 64 LINE",
"30 64 LINE",
"30 0 LINE"
);
}
);
width = 600;
}
);
},
{
glyphname = l.sc;
layers = (
{
anchors = (
{
name = bottom;
position = "{308, 0}";
},
{
name = caron;
position = "{518, 314}";
},
{
name = slashshort;
position = "{204, 263}";
},
{
name = top;
position = "{204, 576}";
}
);
layerId = "EE746D13-63D7-48F9-B77E-C723CA6A668B";
paths = (
{
closed = 1;
nodes = (
"30 0 LINE",
"585 0 LINE",
"585 230 LINE",
"509 230 LINE",
"509 64 LINE",
"258 64 LINE",
"258 512 LINE",
"372 512 LINE",
"372 576 LINE",
"30 576 LINE",
"30 512 LINE",
"151 512 LINE",
"151 64 LINE",
"30 64 LINE"
);
}
);
width = 619;
}
);
},
{
glyphname = lj.sc;
layers = (
{
anchors = (
{
name = bottom;
position = "{308, 0}";
},
{
name = caron;
position = "{517, 271}";
},
{
name = top;
position = "{204, 576}";
}
);
layerId = "EE746D13-63D7-48F9-B77E-C723CA6A668B";
paths = (
{
closed = 1;
nodes = (
"585 0 LINE",
"585 230 LINE",
"509 230 LINE",
"509 64 LINE",
"258 64 LINE",
"258 512 LINE",
"372 512 LINE",
"372 576 LINE",
"30 576 LINE",
"30 512 LINE",
"151 512 LINE",
"151 64 LINE",
"30 64 LINE",
"30 0 LINE"
);
},
{
closed = 1;
nodes = (
"806 -281 OFFCURVE",
"862 -217 OFFCURVE",
"862 -78 CURVE SMOOTH",
"862 506 LINE",
"984 506 LINE",
"984 576 LINE",
"621 576 LINE",
"621 506 LINE",
"760 506 LINE",
"760 -91 LINE SMOOTH",
"760 -175 OFFCURVE",
"734 -226 OFFCURVE",
"669 -226 CURVE SMOOTH",
"638 -226 OFFCURVE",
"611 -218 OFFCURVE",
"599 -203 CURVE",
"631 -192 OFFCURVE",
"653 -161 OFFCURVE",
"653 -126 CURVE SMOOTH",
"653 -87 OFFCURVE",
"619 -56 OFFCURVE",
"580 -56 CURVE SMOOTH",
"539 -56 OFFCURVE",
"505 -88 OFFCURVE",
"505 -135 CURVE SMOOTH",
"505 -222 OFFCURVE",
"581 -281 OFFCURVE",
"672 -281 CURVE SMOOTH"
);
}
);
width = 984;
}
);
leftMetricsKey = l.sc;
rightMetricsKey = j.sc;
},
{
glyphname = lslash.sc;
layers = (
{
components = (
{
name = l.sc;
}
);
layerId = "EE746D13-63D7-48F9-B77E-C723CA6A668B";
paths = (
{
closed = 1;
nodes = (
"182 220 LINE",
"250 265 LINE",
"415 382 LINE",
"369 440 LINE",
"241 352 LINE",
"181 310 LINE",
"16 196 LINE",
"61 137 LINE"
);
}
);
width = 619;
}
);
},
{
glyphname = m.sc;
layers = (
{
anchors = (
{
name = bottom;
position = "{490, 0}";
},
{
name = top;
position = "{495, 576}";
}
);
guideLines = (
{
position = "{405, 106}";
},
{
angle = 115.3102;
position = "{326, 336}";
},
{
angle = 115.3102;
position = "{438, 336}";
},
{
angle = 63.0543;
position = "{611, 336}";
},
{
angle = 63.0542;
position = "{533, 336}";
}
);
layerId = "EE746D13-63D7-48F9-B77E-C723CA6A668B";
paths = (
{
closed = 1;
nodes = (
"356 0 LINE",
"356 64 LINE",
"233 64 LINE",
"233 512 LINE",
"243 512 LINE",
"439 96 LINE",
"489 96 LINE",
"695 502 LINE",
"701 502 LINE",
"701 64 LINE",
"594 64 LINE",
"594 0 LINE",
"934 0 LINE",
"934 64 LINE",
"808 64 LINE",
"808 512 LINE",
"927 512 LINE",
"927 576 LINE",
"733 576 LINE",
"655 576 LINE",
"484 239 LINE",
"324 576 LINE",
"212 576 LINE",
"37 576 LINE",
"37 512 LINE",
"158 512 LINE",
"158 64 LINE",
"46 64 LINE",
"46 0 LINE"
);
}
);
width = 969;
}
);
note = M;
rightKerningGroup = H;
},
{
glyphname = n.sc;
layers = (
{
anchors = (
{
name = bottom;
position = "{394, 0}";
},
{
name = top;
position = "{395, 576}";
}
);
layerId = "EE746D13-63D7-48F9-B77E-C723CA6A668B";
paths = (
{
closed = 1;
nodes = (
"353 0 LINE",
"353 64 LINE",
"228 64 LINE",
"228 494 LINE",
"518 0 LINE",
"644 0 LINE",
"644 512 LINE",
"759 512 LINE",
"759 576 LINE",
"436 576 LINE",
"436 512 LINE",
"567 512 LINE",
"567 103 LINE",
"290 576 LINE",
"30 576 LINE",
"30 512 LINE",
"151 512 LINE",
"151 64 LINE",
"30 64 LINE",
"30 0 LINE"
);
}
);
width = 784;
}
);
leftMetricsKey = h.sc;
note = N;
rightKerningGroup = H;
},
{
glyphname = eng.sc;
layers = (
{
anchors = (
{
name = bottom;
position = "{394, 0}";
},
{
name = top;
position = "{395, 576}";
}
);
layerId = "EE746D13-63D7-48F9-B77E-C723CA6A668B";
paths = (
{
closed = 1;
nodes = (
"436 512 LINE",
"567 512 LINE",
"567 103 LINE",
"290 576 LINE",
"30 576 LINE",
"30 512 LINE",
"151 512 LINE",
"151 64 LINE",
"30 64 LINE",
"30 0 LINE",
"353 0 LINE",
"353 64 LINE",
"228 64 LINE",
"228 494 LINE",
"518 0 LINE",
"542 0 LINE",
"542 -91 LINE SMOOTH",
"542 -175 OFFCURVE",
"516 -226 OFFCURVE",
"451 -226 CURVE SMOOTH",
"420 -226 OFFCURVE",
"393 -218 OFFCURVE",
"381 -203 CURVE",
"413 -192 OFFCURVE",
"435 -161 OFFCURVE",
"435 -126 CURVE SMOOTH",
"435 -87 OFFCURVE",
"401 -56 OFFCURVE",
"362 -56 CURVE SMOOTH",
"321 -56 OFFCURVE",
"287 -88 OFFCURVE",
"287 -135 CURVE SMOOTH",
"287 -222 OFFCURVE",
"363 -281 OFFCURVE",
"454 -281 CURVE SMOOTH",
"588 -281 OFFCURVE",
"644 -217 OFFCURVE",
"644 -78 CURVE SMOOTH",
"644 512 LINE",
"759 512 LINE",
"759 576 LINE",
"436 576 LINE"
);
}
);
width = 784;
}
);
leftMetricsKey = n.sc;
rightMetricsKey = n.sc;
},
{
glyphname = o.sc;
layers = (
{
anchors = (
{
name = bottom;
position = "{357, 0}";
},
{
name = horn;
position = "{460, 576}";
},
{
name = ogonek;
position = "{404, 0}";
},
{
name = slashlong;
position = "{357, 288}";
},
{
name = top;
position = "{357, 576}";
}
);
guideLines = (
{
position = "{-29, 591}";
},
{
angle = 90;
position = "{357, 289}";
},
{
angle = 179.7135;
position = "{357, 288}";
}
);
layerId = "EE746D13-63D7-48F9-B77E-C723CA6A668B";
paths = (
{
closed = 1;
nodes = (
"546 -13 OFFCURVE",
"675 119 OFFCURVE",
"675 288 CURVE SMOOTH",
"675 459 OFFCURVE",
"544 591 OFFCURVE",
"357 591 CURVE SMOOTH",
"168 591 OFFCURVE",
"39 457 OFFCURVE",
"39 288 CURVE SMOOTH",
"39 121 OFFCURVE",
"167 -13 OFFCURVE",
"357 -13 CURVE SMOOTH"
);
},
{
closed = 1;
nodes = (
"230 51 OFFCURVE",
"157 171 OFFCURVE",
"157 289 CURVE SMOOTH",
"157 404 OFFCURVE",
"230 527 OFFCURVE",
"357 527 CURVE SMOOTH",
"486 527 OFFCURVE",
"557 404 OFFCURVE",
"557 287 CURVE SMOOTH",
"557 171 OFFCURVE",
"486 51 OFFCURVE",
"357 51 CURVE SMOOTH"
);
}
);
width = 714;
}
);
leftKerningGroup = O;
note = O;
rightKerningGroup = O;
},
{
glyphname = p.sc;
layers = (
{
anchors = (
{
name = top;
position = "{308, 576}";
}
);
layerId = "EE746D13-63D7-48F9-B77E-C723CA6A668B";
paths = (
{
closed = 1;
nodes = (
"384 0 LINE",
"384 64 LINE",
"259 64 LINE",
"259 194 LINE",
"282 194 LINE SMOOTH",
"437 194 OFFCURVE",
"587 238 OFFCURVE",
"587 386 CURVE SMOOTH",
"587 533 OFFCURVE",
"470 576 OFFCURVE",
"311 576 CURVE SMOOTH",
"30 576 LINE",
"30 512 LINE",
"152 512 LINE",
"152 64 LINE",
"30 64 LINE",
"30 0 LINE"
);
},
{
closed = 1;
nodes = (
"259 512 LINE",
"311 512 LINE SMOOTH",
"411 512 OFFCURVE",
"480 478 OFFCURVE",
"480 380 CURVE SMOOTH",
"480 288 OFFCURVE",
"401 254 OFFCURVE",
"282 254 CURVE SMOOTH",
"259 254 LINE"
);
}
);
width = 618;
}
);
leftMetricsKey = h.sc;
note = P;
rightKerningGroup = P;
},
{
glyphname = thorn.sc;
layers = (
{
layerId = "EE746D13-63D7-48F9-B77E-C723CA6A668B";
paths = (
{
closed = 1;
nodes = (
"30 0 LINE",
"387 0 LINE",
"387 61 LINE",
"262 61 LINE",
"262 127 LINE",
"294 127 LINE SMOOTH",
"416 127 OFFCURVE",
"577 132 OFFCURVE",
"577 289 CURVE SMOOTH",
"577 446 OFFCURVE",
"416 450 OFFCURVE",
"294 450 CURVE SMOOTH",
"262 450 LINE",
"262 511 LINE",
"377 511 LINE",
"377 575 LINE",
"30 575 LINE",
"30 511 LINE",
"155 511 LINE",
"155 61 LINE",
"30 61 LINE"
);
},
{
closed = 1;
nodes = (
"262 184 LINE",
"262 386 LINE",
"304 386 LINE SMOOTH",
"386 386 OFFCURVE",
"470 372 OFFCURVE",
"470 285 CURVE SMOOTH",
"470 198 OFFCURVE",
"386 184 OFFCURVE",
"306 184 CURVE SMOOTH"
);
}
);
width = 608;
}
);
leftMetricsKey = h.sc;
rightMetricsKey = p.sc;
},
{
glyphname = q.sc;
layers = (
{
layerId = "EE746D13-63D7-48F9-B77E-C723CA6A668B";
paths = (
{
closed = 1;
nodes = (
"668 12 OFFCURVE",
"644 -21 OFFCURVE",
"607 -21 CURVE SMOOTH",
"581 -21 OFFCURVE",
"554 -6 OFFCURVE",
"534 52 CURVE",
"598 106 OFFCURVE",
"635 188 OFFCURVE",
"635 288 CURVE SMOOTH",
"635 469 OFFCURVE",
"514 591 OFFCURVE",
"337 591 CURVE SMOOTH",
"158 591 OFFCURVE",
"39 467 OFFCURVE",
"39 288 CURVE SMOOTH",
"39 111 OFFCURVE",
"157 -13 OFFCURVE",
"337 -13 CURVE SMOOTH",
"378 -13 OFFCURVE",
"416 -7 OFFCURVE",
"450 5 CURVE",
"489 -68 OFFCURVE",
"527 -107 OFFCURVE",
"596 -107 CURVE SMOOTH",
"678 -107 OFFCURVE",
"721 -46 OFFCURVE",
"721 67 CURVE",
"668 67 LINE"
);
},
{
closed = 1;
nodes = (
"456 527 OFFCURVE",
"517 414 OFFCURVE",
"517 287 CURVE SMOOTH",
"517 229 OFFCURVE",
"504 175 OFFCURVE",
"479 133 CURVE",
"443 190 OFFCURVE",
"380 224 OFFCURVE",
"316 224 CURVE SMOOTH",
"242 224 OFFCURVE",
"198 185 OFFCURVE",
"186 150 CURVE",
"167 190 OFFCURVE",
"157 238 OFFCURVE",
"157 289 CURVE SMOOTH",
"157 414 OFFCURVE",
"220 527 OFFCURVE",
"337 527 CURVE SMOOTH"
);
},
{
closed = 1;
nodes = (
"216 145 OFFCURVE",
"260 167 OFFCURVE",
"291 167 CURVE SMOOTH",
"343 167 OFFCURVE",
"384 134 OFFCURVE",
"412 68 CURVE",
"390 57 OFFCURVE",
"365 51 OFFCURVE",
"337 51 CURVE SMOOTH",
"267 51 OFFCURVE",
"218 76 OFFCURVE",
"218 103 CURVE"
);
}
);
width = 705;
}
);
leftKerningGroup = O;
leftMetricsKey = o.sc;
note = Q;
rightKerningGroup = D;
},
{
glyphname = r.sc;
layers = (
{
anchors = (
{
name = bottom;
position = "{356, 0}";
},
{
name = top;
position = "{356, 576}";
}
);
layerId = "EE746D13-63D7-48F9-B77E-C723CA6A668B";
paths = (
{
closed = 1;
nodes = (
"651 -13 OFFCURVE",
"682 34 OFFCURVE",
"682 149 CURVE",
"624 149 LINE",
"624 84 OFFCURVE",
"614 57 OFFCURVE",
"587 57 CURVE SMOOTH",
"560 57 OFFCURVE",
"555 84 OFFCURVE",
"550 119 CURVE SMOOTH",
"542 178 OFFCURVE",
"508 236 OFFCURVE",
"443 248 CURVE",
"520 259 OFFCURVE",
"601 311 OFFCURVE",
"601 403 CURVE SMOOTH",
"601 556 OFFCURVE",
"465 576 OFFCURVE",
"310 576 CURVE SMOOTH",
"30 576 LINE",
"30 512 LINE",
"152 512 LINE",
"152 64 LINE",
"30 64 LINE",
"30 0 LINE",
"373 0 LINE",
"373 64 LINE",
"259 64 LINE",
"259 221 LINE",
"348 221 LINE",
"397 221 OFFCURVE",
"435 185 OFFCURVE",
"444 109 CURVE SMOOTH",
"451 50 OFFCURVE",
"479 -13 OFFCURVE",
"563 -13 CURVE SMOOTH"
);
},
{
closed = 1;
nodes = (
"259 512 LINE",
"340 512 LINE SMOOTH",
"406 512 OFFCURVE",
"494 487 OFFCURVE",
"494 403 CURVE SMOOTH",
"494 303 OFFCURVE",
"386 287 OFFCURVE",
"340 287 CURVE SMOOTH",
"259 287 LINE"
);
}
);
width = 677;
}
);
leftMetricsKey = h.sc;
note = R;
rightKerningGroup = R;
},
{
glyphname = s.sc;
layers = (
{
anchors = (
{
name = bottom;
position = "{331, 0}";
},
{
name = top;
position = "{319, 576}";
}
);
guideLines = (
{
angle = 90;
position = "{319, 562}";
},
{
angle = 90;
position = "{576, 157}";
},
{
angle = 90;
position = "{61, 139}";
},
{
position = "{0, 595}";
},
{
position = "{0, 288}";
},
{
position = "{0, 442}";
}
);
layerId = "EE746D13-63D7-48F9-B77E-C723CA6A668B";
paths = (
{
closed = 1;
nodes = (
"467 -13 OFFCURVE",
"576 35 OFFCURVE",
"576 159 CURVE SMOOTH",
"576 289 OFFCURVE",
"439 324 OFFCURVE",
"319 350 CURVE SMOOTH",
"202 375 OFFCURVE",
"171 394 OFFCURVE",
"171 435 CURVE SMOOTH",
"171 480 OFFCURVE",
"225 523 OFFCURVE",
"319 523 CURVE SMOOTH",
"398 523 OFFCURVE",
"426 509 OFFCURVE",
"450 495 CURVE",
"441 493 OFFCURVE",
"422 468 OFFCURVE",
"422 438 CURVE SMOOTH",
"422 395 OFFCURVE",
"455 368 OFFCURVE",
"496 368 CURVE SMOOTH",
"533 368 OFFCURVE",
"565 395 OFFCURVE",
"565 438 CURVE SMOOTH",
"565 524 OFFCURVE",
"461 591 OFFCURVE",
"319 591 CURVE SMOOTH",
"204 591 OFFCURVE",
"71 542 OFFCURVE",
"71 418 CURVE SMOOTH",
"71 292 OFFCURVE",
"202 272 OFFCURVE",
"319 248 CURVE SMOOTH",
"439 223 OFFCURVE",
"473 190 OFFCURVE",
"473 144 CURVE SMOOTH",
"473 86 OFFCURVE",
"411 55 OFFCURVE",
"319 55 CURVE SMOOTH",
"226 55 OFFCURVE",
"169 78 OFFCURVE",
"163 95 CURVE",
"176 100 OFFCURVE",
"207 117 OFFCURVE",
"207 158 CURVE SMOOTH",
"207 201 OFFCURVE",
"175 223 OFFCURVE",
"134 223 CURVE SMOOTH",
"96 223 OFFCURVE",
"61 190 OFFCURVE",
"61 144 CURVE SMOOTH",
"61 47 OFFCURVE",
"174 -13 OFFCURVE",
"319 -13 CURVE SMOOTH"
);
}
);
width = 619;
}
);
},
{
glyphname = germandbls.sc;
layers = (
{
layerId = "EE746D13-63D7-48F9-B77E-C723CA6A668B";
paths = (
{
closed = 1;
nodes = (
"417 520 OFFCURVE",
"475 487 OFFCURVE",
"475 439 CURVE",
"328 309 LINE",
"360 274 LINE",
"470 274 OFFCURVE",
"526 225 OFFCURVE",
"526 159 CURVE SMOOTH",
"526 110 OFFCURVE",
"491 50 OFFCURVE",
"420 50 CURVE SMOOTH",
"370 50 OFFCURVE",
"329 66 OFFCURVE",
"324 94 CURVE",
"343 99 OFFCURVE",
"357 121 OFFCURVE",
"357 146 CURVE SMOOTH",
"357 179 OFFCURVE",
"336 201 OFFCURVE",
"302 201 CURVE SMOOTH",
"260 201 OFFCURVE",
"247 166 OFFCURVE",
"247 146 CURVE SMOOTH",
"247 67 OFFCURVE",
"311 -11 OFFCURVE",
"440 -11 CURVE SMOOTH",
"546 -11 OFFCURVE",
"633 56 OFFCURVE",
"633 159 CURVE SMOOTH",
"633 241 OFFCURVE",
"556 320 OFFCURVE",
"433 323 CURVE",
"563 431 LINE",
"563 502 OFFCURVE",
"498 584 OFFCURVE",
"346 584 CURVE SMOOTH",
"209 584 OFFCURVE",
"93 505 OFFCURVE",
"93 356 CURVE SMOOTH",
"93 64 LINE",
"19 64 LINE",
"19 0 LINE",
"200 0 LINE",
"200 356 LINE SMOOTH",
"200 471 OFFCURVE",
"269 520 OFFCURVE",
"354 520 CURVE SMOOTH"
);
}
);
width = 679;
}
);
leftMetricsKey = u.sc;
rightMetricsKey = three;
},
{
glyphname = t.sc;
layers = (
{
anchors = (
{
name = bottom;
position = "{337, 0}";
},
{
name = strokeshort;
position = "{508, 244}";
},
{
name = top;
position = "{338, 576}";
}
);
layerId = "EE746D13-63D7-48F9-B77E-C723CA6A668B";
paths = (
{
closed = 1;
nodes = (
"512 0 LINE",
"512 64 LINE",
"391 64 LINE",
"391 512 LINE",
"552 512 LINE",
"552 341 LINE",
"628 341 LINE",
"628 576 LINE",
"47 576 LINE",
"47 341 LINE",
"123 341 LINE",
"123 512 LINE",
"284 512 LINE",
"284 64 LINE",
"163 64 LINE",
"163 0 LINE"
);
}
);
width = 675;
}
);
leftKerningGroup = T;
note = T;
rightKerningGroup = T;
},
{
glyphname = u.sc;
layers = (
{
anchors = (
{
name = bottom;
position = "{370, 0}";
},
{
name = horn;
position = "{504, 558}";
},
{
name = ogonek;
position = "{415, 0}";
},
{
name = top;
position = "{370, 576}";
}
);
layerId = "EE746D13-63D7-48F9-B77E-C723CA6A668B";
paths = (
{
closed = 1;
nodes = (
"541 -13 OFFCURVE",
"615 75 OFFCURVE",
"615 237 CURVE SMOOTH",
"615 512 LINE",
"720 512 LINE",
"720 576 LINE",
"411 576 LINE",
"411 512 LINE",
"538 512 LINE",
"538 218 LINE SMOOTH",
"538 120 OFFCURVE",
"478 55 OFFCURVE",
"386 55 CURVE SMOOTH",
"291 55 OFFCURVE",
"233 119 OFFCURVE",
"233 215 CURVE SMOOTH",
"233 512 LINE",
"341 512 LINE",
"341 576 LINE",
"19 576 LINE",
"19 512 LINE",
"126 512 LINE",
"126 222 LINE SMOOTH",
"126 82 OFFCURVE",
"204 -13 OFFCURVE",
"367 -13 CURVE SMOOTH"
);
}
);
width = 737;
}
);
leftKerningGroup = U;
note = U;
rightKerningGroup = U;
},
{
glyphname = v.sc;
layers = (
{
guideLines = (
{
angle = 111.8207;
position = "{191, 256}";
},
{
angle = 248.5661;
position = "{493, 256}";
},
{
angle = 111.8207;
position = "{301, 256}";
},
{
angle = 248.5661;
position = "{416, 256}";
}
);
layerId = "EE746D13-63D7-48F9-B77E-C723CA6A668B";
paths = (
{
closed = 1;
nodes = (
"392 0 LINE",
"593 512 LINE",
"683 512 LINE",
"683 576 LINE",
"392 576 LINE",
"392 512 LINE",
"516 512 LINE",
"359 111 LINE",
"199 512 LINE",
"307 512 LINE",
"307 576 LINE",
"-12 576 LINE",
"-12 512 LINE",
"88 512 LINE",
"293 0 LINE"
);
}
);
width = 671;
}
);
leftKerningGroup = V;
rightKerningGroup = V;
},
{
glyphname = w.sc;
layers = (
{
anchors = (
{
name = bottom;
position = "{492, 0}";
},
{
name = top;
position = "{522, 576}";
}
);
guideLines = (
{
angle = 107.9637;
position = "{164, 256}";
},
{
angle = 107.9637;
position = "{275, 256}";
},
{
angle = 248.1465;
position = "{391, 324}";
},
{
angle = 248.1465;
position = "{468, 324}";
},
{
angle = 107.9637;
position = "{535, 256}";
},
{
angle = 107.9637;
position = "{646, 256}";
}
);
layerId = "EE746D13-63D7-48F9-B77E-C723CA6A668B";
paths = (
{
closed = 1;
nodes = (
"725 512 LINE",
"822 512 LINE",
"698 131 LINE",
"563 513 LINE",
"467 513 LINE",
"322 134 LINE",
"199 512 LINE",
"320 512 LINE",
"320 576 LINE",
"-12 576 LINE",
"-12 512 LINE",
"88 512 LINE",
"254 0 LINE",
"345 0 LINE",
"493 385 LINE",
"630 0 LINE",
"732 0 LINE",
"899 512 LINE",
"995 512 LINE",
"995 576 LINE",
"725 576 LINE"
);
}
);
width = 982;
}
);
},
{
glyphname = x.sc;
layers = (
{
anchors = (
{
name = top;
position = "{346, 576}";
}
);
guideLines = (
{
angle = 90;
position = "{684, 549}";
},
{
angle = 90;
position = "{22, 549}";
},
{
angle = 130.3871;
position = "{200, 402}";
},
{
angle = 130.3871;
position = "{321, 402}";
},
{
angle = 228.0587;
position = "{470, 409}";
},
{
angle = 228.0587;
position = "{394, 409}";
}
);
layerId = "EE746D13-63D7-48F9-B77E-C723CA6A668B";
paths = (
{
closed = 1;
nodes = (
"261 0 LINE",
"261 64 LINE",
"160 64 LINE",
"328 251 LINE",
"488 64 LINE",
"388 64 LINE",
"388 0 LINE",
"684 0 LINE",
"684 64 LINE",
"609 64 LINE",
"404 305 LINE",
"590 512 LINE",
"667 512 LINE",
"667 576 LINE",
"417 576 LINE",
"417 512 LINE",
"514 512 LINE",
"362 343 LINE",
"219 512 LINE",
"319 512 LINE",
"319 576 LINE",
"22 576 LINE",
"22 512 LINE",
"97 512 LINE",
"285 288 LINE",
"84 64 LINE",
"7 64 LINE",
"7 0 LINE"
);
}
);
width = 691;
}
);
leftKerningGroup = X;
note = X;
},
{
glyphname = y.sc;
layers = (
{
anchors = (
{
name = bottom;
position = "{336, 0}";
},
{
name = top;
position = "{352, 576}";
}
);
guideLines = (
{
angle = 123.4434;
position = "{283, 405}";
},
{
angle = 123.4434;
position = "{172, 405}";
},
{
angle = 235.6421;
position = "{407, 375}";
}
);
layerId = "EE746D13-63D7-48F9-B77E-C723CA6A668B";
paths = (
{
closed = 1;
nodes = (
"502 0 LINE",
"502 64 LINE",
"390 64 LINE",
"390 237 LINE",
"578 512 LINE",
"672 512 LINE",
"672 576 LINE",
"403 576 LINE",
"403 512 LINE",
"501 512 LINE",
"354 297 LINE",
"212 512 LINE",
"301 512 LINE",
"301 576 LINE",
"0 576 LINE",
"0 512 LINE",
"101 512 LINE",
"283 237 LINE",
"283 64 LINE",
"164 64 LINE",
"164 0 LINE"
);
}
);
width = 672;
}
);
leftKerningGroup = Y;
note = Y;
rightKerningGroup = Y;
},
{
glyphname = z.sc;
layers = (
{
anchors = (
{
name = bottom;
position = "{291, 0}";
},
{
name = top;
position = "{291, 576}";
}
);
guideLines = (
{
angle = 229.5599;
position = "{345, 296}";
},
{
angle = 229.56;
position = "{235, 296}";
}
);
layerId = "EE746D13-63D7-48F9-B77E-C723CA6A668B";
paths = (
{
closed = 1;
nodes = (
"540 0 LINE",
"540 228 LINE",
"464 228 LINE",
"464 63 LINE",
"154 63 LINE",
"534 505 LINE",
"534 576 LINE",
"55 576 LINE",
"55 360 LINE",
"131 360 LINE",
"131 516 LINE",
"422 516 LINE",
"42 65 LINE",
"42 0 LINE"
);
}
);
width = 582;
}
);
},
{
glyphname = ordfeminine;
layers = (
{
layerId = "EE746D13-63D7-48F9-B77E-C723CA6A668B";
paths = (
{
closed = 1;
nodes = (
"252 261 OFFCURVE",
"318 305 OFFCURVE",
"342 365 CURVE",
"346 311 OFFCURVE",
"384 261 OFFCURVE",
"442 261 CURVE SMOOTH",
"517 261 OFFCURVE",
"540 316 OFFCURVE",
"540 389 CURVE",
"540 432 LINE",
"495 432 LINE",
"495 390 LINE",
"495 350 OFFCURVE",
"489 320 OFFCURVE",
"459 320 CURVE SMOOTH",
"428 320 OFFCURVE",
"422 350 OFFCURVE",
"422 390 CURVE SMOOTH",
"422 582 LINE SMOOTH",
"422 637 OFFCURVE",
"405 677 OFFCURVE",
"375 700 CURVE SMOOTH",
"344 723 OFFCURVE",
"307 732 OFFCURVE",
"261 732 CURVE SMOOTH",
"205 732 OFFCURVE",
"155 714 OFFCURVE",
"127 688 CURVE SMOOTH",
"101 663 OFFCURVE",
"84 636 OFFCURVE",
"84 613 CURVE SMOOTH",
"84 570 OFFCURVE",
"113 546 OFFCURVE",
"146 546 CURVE SMOOTH",
"178 546 OFFCURVE",
"204 570 OFFCURVE",
"204 605 CURVE SMOOTH",
"204 631 OFFCURVE",
"181 653 OFFCURVE",
"146 653 CURVE",
"166 675 OFFCURVE",
"204 688 OFFCURVE",
"243 688 CURVE SMOOTH",
"300 688 OFFCURVE",
"332 658 OFFCURVE",
"332 594 CURVE SMOOTH",
"332 569 OFFCURVE",
"316 547 OFFCURVE",
"291 533 CURVE SMOOTH",
"266 519 OFFCURVE",
"234 504 OFFCURVE",
"202 492 CURVE SMOOTH",
"169 480 OFFCURVE",
"136 462 OFFCURVE",
"111 444 CURVE SMOOTH",
"86 426 OFFCURVE",
"70 397 OFFCURVE",
"70 364 CURVE SMOOTH",
"70 299 OFFCURVE",
"118 261 OFFCURVE",
"186 261 CURVE SMOOTH"
);
},
{
closed = 1;
nodes = (
"176 321 OFFCURVE",
"159 340 OFFCURVE",
"159 368 CURVE SMOOTH",
"159 401 OFFCURVE",
"184 424 OFFCURVE",
"214 438 CURVE SMOOTH",
"243 451 OFFCURVE",
"300 481 OFFCURVE",
"335 516 CURVE",
"335 427 LINE SMOOTH",
"335 411 OFFCURVE",
"329 396 OFFCURVE",
"316 379 CURVE SMOOTH",
"290 346 OFFCURVE",
"247 321 OFFCURVE",
"208 321 CURVE SMOOTH"
);
}
);
width = 610;
}
);
note = ordfeminine;
unicode = 00AA;
},
{
glyphname = ordmasculine;
layers = (
{
layerId = "EE746D13-63D7-48F9-B77E-C723CA6A668B";
paths = (
{
closed = 1;
nodes = (
"422 279 OFFCURVE",
"505 379 OFFCURVE",
"505 514 CURVE SMOOTH",
"505 648 OFFCURVE",
"425 750 OFFCURVE",
"288 750 CURVE SMOOTH",
"155 750 OFFCURVE",
"70 653 OFFCURVE",
"70 514 CURVE SMOOTH",
"70 378 OFFCURVE",
"155 279 OFFCURVE",
"289 279 CURVE SMOOTH"
);
},
{
closed = 1;
nodes = (
"213 332 OFFCURVE",
"166 402 OFFCURVE",
"166 509 CURVE SMOOTH",
"166 612 OFFCURVE",
"201 700 OFFCURVE",
"288 700 CURVE SMOOTH",
"375 700 OFFCURVE",
"409 615 OFFCURVE",
"409 509 CURVE SMOOTH",
"409 402 OFFCURVE",
"363 332 OFFCURVE",
"289 332 CURVE SMOOTH"
);
}
);
width = 575;
}
);
note = ordmasculine;
unicode = 00BA;
},
{
glyphname = Omega;
layers = (
{
layerId = "EE746D13-63D7-48F9-B77E-C723CA6A668B";
paths = (
{
closed = 1;
nodes = (
"531 0 LINE",
"856 0 LINE",
"856 192 LINE",
"785 192 LINE",
"785 66 LINE",
"600 62 LINE",
"694 125 OFFCURVE",
"777 286 OFFCURVE",
"779 427 CURVE SMOOTH",
"782 631 OFFCURVE",
"677 752 OFFCURVE",
"476 752 CURVE SMOOTH",
"303 752 OFFCURVE",
"160 651 OFFCURVE",
"156 422 CURVE SMOOTH",
"154 267 OFFCURVE",
"260 109 OFFCURVE",
"347 61 CURVE",
"156 66 LINE",
"153 192 LINE",
"83 192 LINE",
"83 0 LINE",
"416 0 LINE",
"418 99 LINE",
"335 143 OFFCURVE",
"246 245 OFFCURVE",
"246 403 CURVE SMOOTH",
"246 606 OFFCURVE",
"321 679 OFFCURVE",
"476 679 CURVE SMOOTH",
"624 679 OFFCURVE",
"689 597 OFFCURVE",
"689 416 CURVE SMOOTH",
"689 257 OFFCURVE",
"628 159 OFFCURVE",
"528 99 CURVE"
);
}
);
width = 946;
}
);
unicode = 03A9;
},
{
glyphname = uni03BC;
layers = (
{
layerId = "EE746D13-63D7-48F9-B77E-C723CA6A668B";
paths = (
{
closed = 1;
nodes = (
"531 524 LINE",
"337 524 LINE",
"337 469 LINE",
"425 469 LINE",
"425 239 LINE SMOOTH",
"425 144 OFFCURVE",
"384 54 OFFCURVE",
"290 54 CURVE SMOOTH",
"232 54 OFFCURVE",
"196 93 OFFCURVE",
"196 178 CURVE SMOOTH",
"196 524 LINE",
"-8 524 LINE",
"-8 469 LINE",
"91 469 LINE",
"91 -141 LINE",
"-8 -141 LINE",
"-8 -196 LINE",
"191 -196 LINE",
"191 10 LINE",
"213 -7 OFFCURVE",
"242 -13 OFFCURVE",
"273 -13 CURVE SMOOTH",
"340 -13 OFFCURVE",
"396 26 OFFCURVE",
"428 99 CURVE",
"448 0 LINE",
"626 0 LINE",
"626 55 LINE",
"531 55 LINE"
);
}
);
width = 642;
}
);
leftMetricsKey = p;
note = uni03BC;
rightMetricsKey = u;
unicode = 03BC;
},
{
glyphname = pi;
layers = (
{
layerId = "EE746D13-63D7-48F9-B77E-C723CA6A668B";
paths = (
{
closed = 1;
nodes = (
"141 -8 LINE",
"177 0 OFFCURVE",
"212 22 OFFCURVE",
"233 40 CURVE SMOOTH",
"278 79 OFFCURVE",
"288 144 OFFCURVE",
"300 210 CURVE",
"334 480 LINE",
"467 480 LINE",
"447 147 LINE SMOOTH",
"440 34 OFFCURVE",
"477 -8 OFFCURVE",
"545 -8 CURVE SMOOTH",
"620 -8 OFFCURVE",
"658 42 OFFCURVE",
"681 93 CURVE",
"630 125 LINE",
"606 80 OFFCURVE",
"586 59 OFFCURVE",
"560 59 CURVE SMOOTH",
"526 59 OFFCURVE",
"516 80 OFFCURVE",
"519 162 CURVE SMOOTH",
"532 480 LINE",
"550 480 LINE SMOOTH",
"682 480 OFFCURVE",
"687 509 OFFCURVE",
"694 591 CURVE",
"630 591 LINE",
"625 566 OFFCURVE",
"612 554 OFFCURVE",
"587 554 CURVE SMOOTH",
"223 554 LINE SMOOTH",
"137 554 OFFCURVE",
"65 493 OFFCURVE",
"73 401 CURVE",
"137 394 LINE",
"144 436 OFFCURVE",
"153 480 OFFCURVE",
"209 480 CURVE SMOOTH",
"263 480 LINE",
"230 233 LINE SMOOTH",
"221 164 OFFCURVE",
"213 108 OFFCURVE",
"156 69 CURVE SMOOTH",
"128 50 OFFCURVE",
"98 42 OFFCURVE",
"89 41 CURVE"
);
}
);
width = 777;
}
);
unicode = 03C0;
},
{
glyphname = zero;
layers = (
{
guideLines = (
{
position = "{619, 745}";
}
);
layerId = "EE746D13-63D7-48F9-B77E-C723CA6A668B";
paths = (
{
closed = 1;
nodes = (
"509 -11 OFFCURVE",
"602 142 OFFCURVE",
"602 312 CURVE SMOOTH",
"602 482 OFFCURVE",
"509 634 OFFCURVE",
"326 634 CURVE SMOOTH",
"143 634 OFFCURVE",
"50 482 OFFCURVE",
"50 312 CURVE SMOOTH",
"50 142 OFFCURVE",
"143 -11 OFFCURVE",
"326 -11 CURVE SMOOTH"
);
},
{
closed = 1;
nodes = (
"214 59 OFFCURVE",
"171 189 OFFCURVE",
"171 312 CURVE SMOOTH",
"171 436 OFFCURVE",
"214 568 OFFCURVE",
"326 568 CURVE SMOOTH",
"438 568 OFFCURVE",
"481 436 OFFCURVE",
"481 312 CURVE SMOOTH",
"481 187 OFFCURVE",
"438 59 OFFCURVE",
"326 59 CURVE SMOOTH"
);
}
);
width = 652;
}
);
note = zero;
unicode = 0030;
},
{
glyphname = zero.lf;
layers = (
{
guideLines = (
{
angle = 270;
position = "{1056, 539}";
},
{
angle = 270;
position = "{90, 541}";
}
);
layerId = "EE746D13-63D7-48F9-B77E-C723CA6A668B";
paths = (
{
closed = 1;
nodes = (
"521 -11 OFFCURVE",
"602 184 OFFCURVE",
"602 367 CURVE SMOOTH",
"602 550 OFFCURVE",
"521 745 OFFCURVE",
"326 745 CURVE SMOOTH",
"130 745 OFFCURVE",
"50 550 OFFCURVE",
"50 367 CURVE SMOOTH",
"50 184 OFFCURVE",
"130 -11 OFFCURVE",
"326 -11 CURVE SMOOTH"
);
},
{
closed = 1;
nodes = (
"201 59 OFFCURVE",
"171 231 OFFCURVE",
"171 367 CURVE SMOOTH",
"171 504 OFFCURVE",
"201 679 OFFCURVE",
"326 679 CURVE SMOOTH",
"450 679 OFFCURVE",
"481 504 OFFCURVE",
"481 367 CURVE SMOOTH",
"481 229 OFFCURVE",
"450 59 OFFCURVE",
"326 59 CURVE SMOOTH"
);
}
);
width = 652;
}
);
},
{
glyphname = zero.osf;
layers = (
{
layerId = "EE746D13-63D7-48F9-B77E-C723CA6A668B";
paths = (
{
closed = 1;
nodes = (
"509 -11 OFFCURVE",
"602 142 OFFCURVE",
"602 312 CURVE SMOOTH",
"602 482 OFFCURVE",
"509 634 OFFCURVE",
"326 634 CURVE SMOOTH",
"143 634 OFFCURVE",
"50 482 OFFCURVE",
"50 312 CURVE SMOOTH",
"50 142 OFFCURVE",
"143 -11 OFFCURVE",
"326 -11 CURVE SMOOTH"
);
},
{
closed = 1;
nodes = (
"214 59 OFFCURVE",
"171 189 OFFCURVE",
"171 312 CURVE SMOOTH",
"171 436 OFFCURVE",
"214 568 OFFCURVE",
"326 568 CURVE SMOOTH",
"438 568 OFFCURVE",
"481 436 OFFCURVE",
"481 312 CURVE SMOOTH",
"481 187 OFFCURVE",
"438 59 OFFCURVE",
"326 59 CURVE SMOOTH"
);
}
);
width = 652;
}
);
},
{
glyphname = zero.tf;
layers = (
{
layerId = "EE746D13-63D7-48F9-B77E-C723CA6A668B";
paths = (
{
closed = 1;
nodes = (
"475 -11 OFFCURVE",
"546 184 OFFCURVE",
"546 367 CURVE SMOOTH",
"546 550 OFFCURVE",
"475 745 OFFCURVE",
"290 745 CURVE SMOOTH",
"104 745 OFFCURVE",
"34 550 OFFCURVE",
"34 367 CURVE SMOOTH",
"34 184 OFFCURVE",
"104 -11 OFFCURVE",
"290 -11 CURVE SMOOTH"
);
},
{
closed = 1;
nodes = (
"175 59 OFFCURVE",
"153 231 OFFCURVE",
"153 367 CURVE SMOOTH",
"153 504 OFFCURVE",
"175 679 OFFCURVE",
"290 679 CURVE SMOOTH",
"404 679 OFFCURVE",
"427 504 OFFCURVE",
"427 367 CURVE SMOOTH",
"427 229 OFFCURVE",
"404 59 OFFCURVE",
"290 59 CURVE SMOOTH"
);
}
);
width = 580;
}
);
},
{
glyphname = zero.tosf;
layers = (
{
guideLines = (
{
position = "{250, 265}";
}
);
layerId = "EE746D13-63D7-48F9-B77E-C723CA6A668B";
paths = (
{
closed = 1;
nodes = (
"463 -11 OFFCURVE",
"542 142 OFFCURVE",
"542 312 CURVE SMOOTH",
"542 482 OFFCURVE",
"463 634 OFFCURVE",
"290 634 CURVE SMOOTH",
"117 634 OFFCURVE",
"39 482 OFFCURVE",
"39 312 CURVE SMOOTH",
"39 142 OFFCURVE",
"117 -11 OFFCURVE",
"290 -11 CURVE SMOOTH"
);
},
{
closed = 1;
nodes = (
"188 59 OFFCURVE",
"155 189 OFFCURVE",
"155 312 CURVE SMOOTH",
"155 436 OFFCURVE",
"188 568 OFFCURVE",
"290 568 CURVE SMOOTH",
"392 568 OFFCURVE",
"425 436 OFFCURVE",
"425 312 CURVE SMOOTH",
"425 187 OFFCURVE",
"392 59 OFFCURVE",
"290 59 CURVE SMOOTH"
);
}
);
width = 580;
}
);
},
{
glyphname = one;
layers = (
{
guideLines = (
{
angle = 90;
position = "{82, 55}";
},
{
angle = 180;
position = "{515, 145}";
},
{
position = "{287, 620}";
}
);
layerId = "EE746D13-63D7-48F9-B77E-C723CA6A668B";
paths = (
{
closed = 1;
nodes = (
"245 620 LINE",
"225 554 OFFCURVE",
"160 507 OFFCURVE",
"54 502 CURVE",
"54 447 LINE",
"105 438 OFFCURVE",
"161 439 OFFCURVE",
"213 462 CURVE",
"213 55 LINE",
"55 55 LINE",
"55 0 LINE",
"478 0 LINE",
"478 55 LINE",
"319 55 LINE",
"320 620 LINE"
);
}
);
width = 500;
}
);
note = one;
unicode = 0031;
},
{
glyphname = one.lf;
layers = (
{
layerId = "EE746D13-63D7-48F9-B77E-C723CA6A668B";
paths = (
{
closed = 1;
nodes = (
"249 735 LINE",
"229 669 OFFCURVE",
"160 622 OFFCURVE",
"54 617 CURVE",
"54 562 LINE",
"105 553 OFFCURVE",
"165 554 OFFCURVE",
"217 577 CURVE",
"217 55 LINE",
"55 55 LINE",
"55 0 LINE",
"485 0 LINE",
"485 55 LINE",
"323 55 LINE",
"324 735 LINE"
);
}
);
width = 507;
}
);
},
{
glyphname = one.osf;
layers = (
{
layerId = "EE746D13-63D7-48F9-B77E-C723CA6A668B";
paths = (
{
closed = 1;
nodes = (
"245 620 LINE",
"225 554 OFFCURVE",
"160 507 OFFCURVE",
"54 502 CURVE",
"54 447 LINE",
"105 438 OFFCURVE",
"161 439 OFFCURVE",
"213 462 CURVE",
"213 55 LINE",
"55 55 LINE",
"55 0 LINE",
"478 0 LINE",
"478 55 LINE",
"319 55 LINE",
"320 620 LINE"
);
}
);
width = 500;
}
);
},
{
glyphname = one.tf;
layers = (
{
layerId = "EE746D13-63D7-48F9-B77E-C723CA6A668B";
paths = (
{
closed = 1;
nodes = (
"294 735 LINE",
"274 669 OFFCURVE",
"183 622 OFFCURVE",
"60 617 CURVE",
"60 562 LINE",
"111 553 OFFCURVE",
"210 554 OFFCURVE",
"262 577 CURVE",
"262 55 LINE",
"61 55 LINE",
"61 0 LINE",
"570 0 LINE",
"570 55 LINE",
"368 55 LINE",
"369 735 LINE"
);
}
);
width = 580;
}
);
},
{
glyphname = one.tosf;
layers = (
{
guideLines = (
{
angle = 180;
position = "{332, 620}";
}
);
layerId = "EE746D13-63D7-48F9-B77E-C723CA6A668B";
paths = (
{
closed = 1;
nodes = (
"294 620 LINE",
"265 537 OFFCURVE",
"188 507 OFFCURVE",
"60 502 CURVE",
"60 447 LINE",
"111 438 OFFCURVE",
"210 439 OFFCURVE",
"262 462 CURVE",
"262 55 LINE",
"61 55 LINE",
"61 0 LINE",
"570 0 LINE",
"570 55 LINE",
"368 55 LINE",
"369 620 LINE"
);
}
);
width = 580;
}
);
},
{
glyphname = two;
layers = (
{
layerId = "EE746D13-63D7-48F9-B77E-C723CA6A668B";
paths = (
{
closed = 1;
nodes = (
"494 119 OFFCURVE",
"457 91 OFFCURVE",
"416 91 CURVE SMOOTH",
"341 91 OFFCURVE",
"314 130 OFFCURVE",
"232 130 CURVE SMOOTH",
"185 130 OFFCURVE",
"151 118 OFFCURVE",
"129 96 CURVE",
"149 146 OFFCURVE",
"190 169 OFFCURVE",
"256 197 CURVE SMOOTH",
"366 243 OFFCURVE",
"516 313 OFFCURVE",
"516 441 CURVE SMOOTH",
"516 549 OFFCURVE",
"431 634 OFFCURVE",
"281 634 CURVE SMOOTH",
"144 634 OFFCURVE",
"54 533 OFFCURVE",
"54 452 CURVE SMOOTH",
"54 407 OFFCURVE",
"81 374 OFFCURVE",
"132 374 CURVE SMOOTH",
"177 374 OFFCURVE",
"209 408 OFFCURVE",
"209 445 CURVE SMOOTH",
"209 483 OFFCURVE",
"175 509 OFFCURVE",
"140 512 CURVE",
"151 532 OFFCURVE",
"195 568 OFFCURVE",
"265 568 CURVE SMOOTH",
"351 568 OFFCURVE",
"400 511 OFFCURVE",
"400 437 CURVE SMOOTH",
"400 333 OFFCURVE",
"293 290 OFFCURVE",
"221 254 CURVE SMOOTH",
"124 205 OFFCURVE",
"38 150 OFFCURVE",
"38 0 CURVE",
"120 0 LINE",
"120 43 OFFCURVE",
"149 65 OFFCURVE",
"181 65 CURVE SMOOTH",
"263 65 OFFCURVE",
"290 -14 OFFCURVE",
"401 -14 CURVE SMOOTH",
"497 -14 OFFCURVE",
"548 63 OFFCURVE",
"548 201 CURVE",
"494 201 LINE"
);
}
);
width = 607;
}
);
unicode = 0032;
},
{
glyphname = two.lf;
layers = (
{
layerId = "EE746D13-63D7-48F9-B77E-C723CA6A668B";
paths = (
{
closed = 1;
nodes = (
"524 119 OFFCURVE",
"487 91 OFFCURVE",
"446 91 CURVE SMOOTH",
"371 91 OFFCURVE",
"314 130 OFFCURVE",
"232 130 CURVE SMOOTH",
"185 130 OFFCURVE",
"151 118 OFFCURVE",
"129 96 CURVE",
"149 146 OFFCURVE",
"189 199 OFFCURVE",
"256 237 CURVE SMOOTH",
"359 296 OFFCURVE",
"546 380 OFFCURVE",
"546 548 CURVE SMOOTH",
"546 666 OFFCURVE",
"444 751 OFFCURVE",
"294 751 CURVE SMOOTH",
"157 751 OFFCURVE",
"54 650 OFFCURVE",
"54 569 CURVE SMOOTH",
"54 524 OFFCURVE",
"81 491 OFFCURVE",
"132 491 CURVE SMOOTH",
"177 491 OFFCURVE",
"209 525 OFFCURVE",
"209 562 CURVE SMOOTH",
"209 600 OFFCURVE",
"175 626 OFFCURVE",
"140 629 CURVE",
"151 649 OFFCURVE",
"208 685 OFFCURVE",
"278 685 CURVE SMOOTH",
"364 685 OFFCURVE",
"430 628 OFFCURVE",
"430 544 CURVE SMOOTH",
"430 400 OFFCURVE",
"290 341 OFFCURVE",
"221 299 CURVE SMOOTH",
"122 239 OFFCURVE",
"38 150 OFFCURVE",
"38 0 CURVE",
"120 0 LINE",
"120 43 OFFCURVE",
"149 65 OFFCURVE",
"181 65 CURVE SMOOTH",
"263 65 OFFCURVE",
"320 -14 OFFCURVE",
"431 -14 CURVE SMOOTH",
"527 -14 OFFCURVE",
"578 63 OFFCURVE",
"578 201 CURVE",
"524 201 LINE"
);
}
);
width = 637;
}
);
},
{
glyphname = two.osf;
layers = (
{
layerId = "EE746D13-63D7-48F9-B77E-C723CA6A668B";
paths = (
{
closed = 1;
nodes = (
"494 119 OFFCURVE",
"457 91 OFFCURVE",
"416 91 CURVE SMOOTH",
"341 91 OFFCURVE",
"314 130 OFFCURVE",
"232 130 CURVE SMOOTH",
"185 130 OFFCURVE",
"151 118 OFFCURVE",
"129 96 CURVE",
"149 146 OFFCURVE",
"190 169 OFFCURVE",
"256 197 CURVE SMOOTH",
"366 243 OFFCURVE",
"516 313 OFFCURVE",
"516 441 CURVE SMOOTH",
"516 549 OFFCURVE",
"431 634 OFFCURVE",
"281 634 CURVE SMOOTH",
"144 634 OFFCURVE",
"54 533 OFFCURVE",
"54 452 CURVE SMOOTH",
"54 407 OFFCURVE",
"81 374 OFFCURVE",
"132 374 CURVE SMOOTH",
"177 374 OFFCURVE",
"209 408 OFFCURVE",
"209 445 CURVE SMOOTH",
"209 483 OFFCURVE",
"175 509 OFFCURVE",
"140 512 CURVE",
"151 532 OFFCURVE",
"195 568 OFFCURVE",
"265 568 CURVE SMOOTH",
"351 568 OFFCURVE",
"400 511 OFFCURVE",
"400 437 CURVE SMOOTH",
"400 333 OFFCURVE",
"293 290 OFFCURVE",
"221 254 CURVE SMOOTH",
"124 205 OFFCURVE",
"38 150 OFFCURVE",
"38 0 CURVE",
"120 0 LINE",
"120 43 OFFCURVE",
"149 65 OFFCURVE",
"181 65 CURVE SMOOTH",
"263 65 OFFCURVE",
"290 -14 OFFCURVE",
"401 -14 CURVE SMOOTH",
"497 -14 OFFCURVE",
"548 63 OFFCURVE",
"548 201 CURVE",
"494 201 LINE"
);
}
);
width = 607;
}
);
},
{
glyphname = two.tf;
layers = (
{
layerId = "EE746D13-63D7-48F9-B77E-C723CA6A668B";
paths = (
{
closed = 1;
nodes = (
"486 119 OFFCURVE",
"449 91 OFFCURVE",
"408 91 CURVE SMOOTH",
"343 91 OFFCURVE",
"306 130 OFFCURVE",
"234 130 CURVE SMOOTH",
"187 130 OFFCURVE",
"153 118 OFFCURVE",
"131 96 CURVE",
"151 146 OFFCURVE",
"193 196 OFFCURVE",
"258 237 CURVE SMOOTH",
"351 296 OFFCURVE",
"508 390 OFFCURVE",
"508 548 CURVE SMOOTH",
"508 666 OFFCURVE",
"409 751 OFFCURVE",
"271 751 CURVE SMOOTH",
"136 751 OFFCURVE",
"46 650 OFFCURVE",
"46 569 CURVE SMOOTH",
"46 524 OFFCURVE",
"73 491 OFFCURVE",
"124 491 CURVE SMOOTH",
"169 491 OFFCURVE",
"201 525 OFFCURVE",
"201 562 CURVE SMOOTH",
"201 600 OFFCURVE",
"167 626 OFFCURVE",
"132 629 CURVE",
"143 649 OFFCURVE",
"192 685 OFFCURVE",
"250 685 CURVE SMOOTH",
"324 685 OFFCURVE",
"392 628 OFFCURVE",
"392 544 CURVE SMOOTH",
"392 400 OFFCURVE",
"282 341 OFFCURVE",
"223 299 CURVE SMOOTH",
"129 232 OFFCURVE",
"40 150 OFFCURVE",
"40 0 CURVE",
"122 0 LINE",
"122 43 OFFCURVE",
"151 65 OFFCURVE",
"183 65 CURVE SMOOTH",
"255 65 OFFCURVE",
"292 -14 OFFCURVE",
"393 -14 CURVE SMOOTH",
"489 -14 OFFCURVE",
"540 63 OFFCURVE",
"540 201 CURVE",
"486 201 LINE"
);
}
);
width = 580;
}
);
},
{
glyphname = two.tosf;
layers = (
{
layerId = "EE746D13-63D7-48F9-B77E-C723CA6A668B";
paths = (
{
closed = 1;
nodes = (
"481 119 OFFCURVE",
"444 91 OFFCURVE",
"403 91 CURVE SMOOTH",
"328 91 OFFCURVE",
"321 130 OFFCURVE",
"239 130 CURVE SMOOTH",
"192 130 OFFCURVE",
"158 118 OFFCURVE",
"136 96 CURVE",
"156 146 OFFCURVE",
"198 167 OFFCURVE",
"263 197 CURVE SMOOTH",
"363 243 OFFCURVE",
"503 313 OFFCURVE",
"503 441 CURVE SMOOTH",
"503 549 OFFCURVE",
"423 634 OFFCURVE",
"278 634 CURVE SMOOTH",
"146 634 OFFCURVE",
"61 533 OFFCURVE",
"61 452 CURVE SMOOTH",
"61 407 OFFCURVE",
"88 374 OFFCURVE",
"139 374 CURVE SMOOTH",
"184 374 OFFCURVE",
"216 408 OFFCURVE",
"216 445 CURVE SMOOTH",
"216 483 OFFCURVE",
"182 509 OFFCURVE",
"147 512 CURVE",
"158 532 OFFCURVE",
"197 568 OFFCURVE",
"262 568 CURVE SMOOTH",
"343 568 OFFCURVE",
"387 511 OFFCURVE",
"387 437 CURVE SMOOTH",
"387 333 OFFCURVE",
"300 290 OFFCURVE",
"228 254 CURVE SMOOTH",
"131 205 OFFCURVE",
"45 150 OFFCURVE",
"45 0 CURVE",
"127 0 LINE",
"127 43 OFFCURVE",
"156 65 OFFCURVE",
"188 65 CURVE SMOOTH",
"270 65 OFFCURVE",
"277 -14 OFFCURVE",
"388 -14 CURVE SMOOTH",
"484 -14 OFFCURVE",
"535 63 OFFCURVE",
"535 201 CURVE",
"481 201 LINE"
);
}
);
width = 580;
}
);
},
{
glyphname = three;
layers = (
{
guideLines = (
{
angle = 180;
position = "{137, 56}";
},
{
angle = 180;
position = "{108, 395}";
},
{
angle = 180;
position = "{114, -120}";
},
{
angle = 180;
position = "{114, -134}";
},
{
angle = 180;
position = "{281, 620}";
}
);
layerId = "EE746D13-63D7-48F9-B77E-C723CA6A668B";
paths = (
{
closed = 1;
nodes = (
"419 -134 OFFCURVE",
"531 -48 OFFCURVE",
"531 74 CURVE SMOOTH",
"531 190 OFFCURVE",
"455 256 OFFCURVE",
"336 270 CURVE",
"435 290 OFFCURVE",
"501 358 OFFCURVE",
"501 446 CURVE SMOOTH",
"501 548 OFFCURVE",
"430 634 OFFCURVE",
"286 634 CURVE SMOOTH",
"139 634 OFFCURVE",
"63 542 OFFCURVE",
"63 454 CURVE SMOOTH",
"63 425 OFFCURVE",
"80 383 OFFCURVE",
"134 383 CURVE SMOOTH",
"178 383 OFFCURVE",
"205 411 OFFCURVE",
"205 454 CURVE SMOOTH",
"205 486 OFFCURVE",
"178 511 OFFCURVE",
"152 515 CURVE",
"161 538 OFFCURVE",
"201 568 OFFCURVE",
"263 568 CURVE SMOOTH",
"322 568 OFFCURVE",
"380 535 OFFCURVE",
"380 446 CURVE SMOOTH",
"380 338 OFFCURVE",
"302 291 OFFCURVE",
"196 286 CURVE",
"204 233 LINE",
"357 233 OFFCURVE",
"410 169 OFFCURVE",
"410 74 CURVE SMOOTH",
"410 -28 OFFCURVE",
"342 -68 OFFCURVE",
"263 -68 CURVE SMOOTH",
"199 -68 OFFCURVE",
"143 -35 OFFCURVE",
"136 1 CURVE",
"161 8 OFFCURVE",
"179 36 OFFCURVE",
"179 68 CURVE SMOOTH",
"179 110 OFFCURVE",
"152 139 OFFCURVE",
"108 139 CURVE SMOOTH",
"54 139 OFFCURVE",
"37 93 OFFCURVE",
"37 68 CURVE SMOOTH",
"37 -44 OFFCURVE",
"127 -134 OFFCURVE",
"282 -134 CURVE SMOOTH"
);
}
);
width = 577;
}
);
note = three;
unicode = 0033;
},
{
glyphname = three.lf;
layers = (
{
layerId = "EE746D13-63D7-48F9-B77E-C723CA6A668B";
paths = (
{
closed = 1;
nodes = (
"419 -14 OFFCURVE",
"531 72 OFFCURVE",
"531 194 CURVE SMOOTH",
"531 310 OFFCURVE",
"455 376 OFFCURVE",
"336 390 CURVE",
"435 410 OFFCURVE",
"501 478 OFFCURVE",
"501 566 CURVE SMOOTH",
"501 668 OFFCURVE",
"430 754 OFFCURVE",
"286 754 CURVE SMOOTH",
"139 754 OFFCURVE",
"63 662 OFFCURVE",
"63 574 CURVE SMOOTH",
"63 545 OFFCURVE",
"80 503 OFFCURVE",
"134 503 CURVE SMOOTH",
"178 503 OFFCURVE",
"205 531 OFFCURVE",
"205 574 CURVE SMOOTH",
"205 606 OFFCURVE",
"178 631 OFFCURVE",
"152 635 CURVE",
"161 658 OFFCURVE",
"201 688 OFFCURVE",
"263 688 CURVE SMOOTH",
"322 688 OFFCURVE",
"380 655 OFFCURVE",
"380 566 CURVE SMOOTH",
"380 458 OFFCURVE",
"302 411 OFFCURVE",
"196 406 CURVE",
"204 353 LINE",
"357 353 OFFCURVE",
"410 289 OFFCURVE",
"410 194 CURVE SMOOTH",
"410 92 OFFCURVE",
"342 52 OFFCURVE",
"263 52 CURVE SMOOTH",
"199 52 OFFCURVE",
"143 85 OFFCURVE",
"136 121 CURVE",
"161 128 OFFCURVE",
"179 156 OFFCURVE",
"179 188 CURVE SMOOTH",
"179 230 OFFCURVE",
"152 259 OFFCURVE",
"108 259 CURVE SMOOTH",
"54 259 OFFCURVE",
"37 213 OFFCURVE",
"37 188 CURVE SMOOTH",
"37 76 OFFCURVE",
"127 -14 OFFCURVE",
"282 -14 CURVE SMOOTH"
);
}
);
width = 577;
}
);
},
{
glyphname = three.osf;
layers = (
{
layerId = "EE746D13-63D7-48F9-B77E-C723CA6A668B";
paths = (
{
closed = 1;
nodes = (
"419 -134 OFFCURVE",
"531 -48 OFFCURVE",
"531 74 CURVE SMOOTH",
"531 190 OFFCURVE",
"455 256 OFFCURVE",
"336 270 CURVE",
"435 290 OFFCURVE",
"501 358 OFFCURVE",
"501 446 CURVE SMOOTH",
"501 548 OFFCURVE",
"430 634 OFFCURVE",
"286 634 CURVE SMOOTH",
"139 634 OFFCURVE",
"63 542 OFFCURVE",
"63 454 CURVE SMOOTH",
"63 425 OFFCURVE",
"80 383 OFFCURVE",
"134 383 CURVE SMOOTH",
"178 383 OFFCURVE",
"205 411 OFFCURVE",
"205 454 CURVE SMOOTH",
"205 486 OFFCURVE",
"178 511 OFFCURVE",
"152 515 CURVE",
"161 538 OFFCURVE",
"201 568 OFFCURVE",
"263 568 CURVE SMOOTH",
"322 568 OFFCURVE",
"380 535 OFFCURVE",
"380 446 CURVE SMOOTH",
"380 338 OFFCURVE",
"302 291 OFFCURVE",
"196 286 CURVE",
"204 233 LINE",
"357 233 OFFCURVE",
"410 169 OFFCURVE",
"410 74 CURVE SMOOTH",
"410 -28 OFFCURVE",
"342 -68 OFFCURVE",
"263 -68 CURVE SMOOTH",
"199 -68 OFFCURVE",
"143 -35 OFFCURVE",
"136 1 CURVE",
"161 8 OFFCURVE",
"179 36 OFFCURVE",
"179 68 CURVE SMOOTH",
"179 110 OFFCURVE",
"152 139 OFFCURVE",
"108 139 CURVE SMOOTH",
"54 139 OFFCURVE",
"37 93 OFFCURVE",
"37 68 CURVE SMOOTH",
"37 -44 OFFCURVE",
"127 -134 OFFCURVE",
"282 -134 CURVE SMOOTH"
);
}
);
width = 577;
}
);
},
{
glyphname = three.tf;
layers = (
{
layerId = "EE746D13-63D7-48F9-B77E-C723CA6A668B";
paths = (
{
closed = 1;
nodes = (
"420 -14 OFFCURVE",
"537 72 OFFCURVE",
"537 194 CURVE SMOOTH",
"537 310 OFFCURVE",
"456 376 OFFCURVE",
"337 390 CURVE",
"436 410 OFFCURVE",
"507 478 OFFCURVE",
"507 566 CURVE SMOOTH",
"507 668 OFFCURVE",
"435 754 OFFCURVE",
"287 754 CURVE SMOOTH",
"136 754 OFFCURVE",
"60 662 OFFCURVE",
"60 574 CURVE SMOOTH",
"60 545 OFFCURVE",
"77 503 OFFCURVE",
"131 503 CURVE SMOOTH",
"175 503 OFFCURVE",
"202 531 OFFCURVE",
"202 574 CURVE SMOOTH",
"202 606 OFFCURVE",
"175 631 OFFCURVE",
"149 635 CURVE",
"158 658 OFFCURVE",
"198 688 OFFCURVE",
"264 688 CURVE SMOOTH",
"327 688 OFFCURVE",
"388 655 OFFCURVE",
"388 566 CURVE SMOOTH",
"388 458 OFFCURVE",
"303 411 OFFCURVE",
"197 406 CURVE",
"205 353 LINE",
"358 353 OFFCURVE",
"418 289 OFFCURVE",
"418 194 CURVE SMOOTH",
"418 92 OFFCURVE",
"343 52 OFFCURVE",
"264 52 CURVE SMOOTH",
"200 52 OFFCURVE",
"140 85 OFFCURVE",
"133 121 CURVE",
"158 128 OFFCURVE",
"176 156 OFFCURVE",
"176 188 CURVE SMOOTH",
"176 230 OFFCURVE",
"149 259 OFFCURVE",
"105 259 CURVE SMOOTH",
"51 259 OFFCURVE",
"34 213 OFFCURVE",
"34 188 CURVE SMOOTH",
"34 76 OFFCURVE",
"128 -14 OFFCURVE",
"283 -14 CURVE SMOOTH"
);
}
);
width = 580;
}
);
},
{
glyphname = three.tosf;
layers = (
{
layerId = "EE746D13-63D7-48F9-B77E-C723CA6A668B";
paths = (
{
closed = 1;
nodes = (
"421 -134 OFFCURVE",
"533 -48 OFFCURVE",
"533 74 CURVE SMOOTH",
"533 190 OFFCURVE",
"457 256 OFFCURVE",
"338 270 CURVE",
"437 290 OFFCURVE",
"503 358 OFFCURVE",
"503 446 CURVE SMOOTH",
"503 548 OFFCURVE",
"432 634 OFFCURVE",
"288 634 CURVE SMOOTH",
"141 634 OFFCURVE",
"65 542 OFFCURVE",
"65 454 CURVE SMOOTH",
"65 425 OFFCURVE",
"82 383 OFFCURVE",
"136 383 CURVE SMOOTH",
"180 383 OFFCURVE",
"207 411 OFFCURVE",
"207 454 CURVE SMOOTH",
"207 486 OFFCURVE",
"180 511 OFFCURVE",
"154 515 CURVE",
"163 538 OFFCURVE",
"203 568 OFFCURVE",
"265 568 CURVE SMOOTH",
"324 568 OFFCURVE",
"384 535 OFFCURVE",
"384 446 CURVE SMOOTH",
"384 338 OFFCURVE",
"304 291 OFFCURVE",
"198 286 CURVE",
"206 233 LINE",
"359 233 OFFCURVE",
"414 169 OFFCURVE",
"414 74 CURVE SMOOTH",
"414 -28 OFFCURVE",
"344 -68 OFFCURVE",
"265 -68 CURVE SMOOTH",
"201 -68 OFFCURVE",
"145 -35 OFFCURVE",
"138 1 CURVE",
"163 8 OFFCURVE",
"181 36 OFFCURVE",
"181 68 CURVE SMOOTH",
"181 110 OFFCURVE",
"154 139 OFFCURVE",
"110 139 CURVE SMOOTH",
"56 139 OFFCURVE",
"39 93 OFFCURVE",
"39 68 CURVE SMOOTH",
"39 -44 OFFCURVE",
"129 -134 OFFCURVE",
"284 -134 CURVE SMOOTH"
);
}
);
width = 580;
}
);
},
{
glyphname = four;
layers = (
{
guideLines = (
{
angle = -7.1019;
position = "{786, 1068}";
},
{
angle = 180;
position = "{124, -120}";
},
{
angle = 180;
position = "{124, -134}";
},
{
angle = 180;
position = "{291, 620}";
},
{
angle = 57.3287;
position = "{188, 385}";
}
);
layerId = "EE746D13-63D7-48F9-B77E-C723CA6A668B";
paths = (
{
closed = 1;
nodes = (
"581 -118 LINE",
"581 -65 LINE",
"469 -65 LINE",
"469 101 LINE",
"622 101 LINE",
"622 160 LINE",
"469 160 LINE",
"469 621 LINE",
"348 634 LINE",
"28 152 LINE",
"40 101 LINE",
"364 101 LINE",
"364 -63 LINE",
"252 -63 LINE",
"252 -118 LINE"
);
},
{
closed = 1;
nodes = (
"364 547 LINE",
"364 160 LINE",
"108 160 LINE"
);
}
);
width = 639;
}
);
note = four;
unicode = 0034;
},
{
glyphname = four.lf;
layers = (
{
layerId = "EE746D13-63D7-48F9-B77E-C723CA6A668B";
paths = (
{
closed = 1;
nodes = (
"581 0 LINE",
"581 53 LINE",
"469 53 LINE",
"469 219 LINE",
"622 219 LINE",
"622 278 LINE",
"469 278 LINE",
"469 739 LINE",
"348 752 LINE",
"28 270 LINE",
"40 219 LINE",
"364 219 LINE",
"364 55 LINE",
"252 55 LINE",
"252 0 LINE"
);
},
{
closed = 1;
nodes = (
"364 665 LINE",
"364 278 LINE",
"108 278 LINE"
);
}
);
width = 639;
}
);
},
{
glyphname = four.osf;
layers = (
{
guideLines = (
{
angle = 180;
position = "{417, -118}";
}
);
layerId = "EE746D13-63D7-48F9-B77E-C723CA6A668B";
paths = (
{
closed = 1;
nodes = (
"581 -118 LINE",
"581 -65 LINE",
"469 -65 LINE",
"469 101 LINE",
"622 101 LINE",
"622 160 LINE",
"469 160 LINE",
"469 621 LINE",
"348 634 LINE",
"28 152 LINE",
"40 101 LINE",
"364 101 LINE",
"364 -63 LINE",
"252 -63 LINE",
"252 -118 LINE"
);
},
{
closed = 1;
nodes = (
"364 547 LINE",
"364 160 LINE",
"108 160 LINE"
);
}
);
width = 639;
}
);
},
{
glyphname = four.tf;
layers = (
{
guideLines = (
{
angle = 270;
position = "{441, 113}";
}
);
layerId = "EE746D13-63D7-48F9-B77E-C723CA6A668B";
paths = (
{
closed = 1;
nodes = (
"554 0 LINE",
"554 53 LINE",
"442 53 LINE",
"442 219 LINE",
"554 219 LINE",
"554 278 LINE",
"442 278 LINE",
"442 739 LINE",
"321 752 LINE",
"16 270 LINE",
"28 219 LINE",
"337 219 LINE",
"337 55 LINE",
"225 55 LINE",
"225 0 LINE"
);
},
{
closed = 1;
nodes = (
"337 665 LINE",
"337 278 LINE",
"96 278 LINE"
);
}
);
width = 580;
}
);
},
{
glyphname = four.tosf;
layers = (
{
guideLines = (
{
angle = 180;
position = "{415, -118}";
}
);
layerId = "EE746D13-63D7-48F9-B77E-C723CA6A668B";
paths = (
{
closed = 1;
nodes = (
"554 -118 LINE",
"554 -65 LINE",
"439 -65 LINE",
"439 101 LINE",
"554 101 LINE",
"554 160 LINE",
"439 160 LINE",
"439 621 LINE",
"321 634 LINE",
"16 152 LINE",
"28 101 LINE",
"337 101 LINE",
"337 -63 LINE",
"225 -63 LINE",
"225 -118 LINE"
);
},
{
closed = 1;
nodes = (
"337 547 LINE",
"337 160 LINE",
"96 160 LINE"
);
}
);
width = 580;
}
);
},
{
glyphname = five;
layers = (
{
guideLines = (
{
angle = 86.8202;
position = "{173, 400}";
},
{
angle = -8.584;
position = "{121, 195}";
},
{
angle = 266.9059;
position = "{140, 399}";
},
{
angle = 180;
position = "{111, -120}";
},
{
angle = 180;
position = "{111, -134}";
},
{
angle = 180;
position = "{278, 620}";
}
);
layerId = "EE746D13-63D7-48F9-B77E-C723CA6A668B";
paths = (
{
closed = 1;
nodes = (
"415 26 OFFCURVE",
"366 -68 OFFCURVE",
"256 -68 CURVE SMOOTH",
"185 -68 OFFCURVE",
"138 -33 OFFCURVE",
"130 1 CURVE",
"165 8 OFFCURVE",
"188 36 OFFCURVE",
"188 68 CURVE SMOOTH",
"188 110 OFFCURVE",
"161 139 OFFCURVE",
"117 139 CURVE SMOOTH",
"63 139 OFFCURVE",
"46 93 OFFCURVE",
"46 58 CURVE SMOOTH",
"46 -34 OFFCURVE",
"113 -134 OFFCURVE",
"274 -134 CURVE SMOOTH",
"432 -134 OFFCURVE",
"536 -24 OFFCURVE",
"536 127 CURVE SMOOTH",
"536 279 OFFCURVE",
"440 375 OFFCURVE",
"304 375 CURVE SMOOTH",
"216 375 OFFCURVE",
"160 345 OFFCURVE",
"146 335 CURVE",
"171 558 LINE",
"208 544 OFFCURVE",
"276 524 OFFCURVE",
"329 524 CURVE SMOOTH",
"394 524 OFFCURVE",
"458 549 OFFCURVE",
"510 606 CURVE",
"498 634 LINE",
"464 624 OFFCURVE",
"375 614 OFFCURVE",
"329 614 CURVE SMOOTH",
"243 614 OFFCURVE",
"201 623 OFFCURVE",
"140 634 CURVE",
"113 614 LINE",
"71 250 LINE",
"121 240 LINE",
"129 265 OFFCURVE",
"184 320 OFFCURVE",
"269 320 CURVE SMOOTH",
"366 320 OFFCURVE",
"415 244 OFFCURVE",
"415 121 CURVE SMOOTH"
);
}
);
width = 573;
}
);
note = five;
unicode = 0035;
},
{
glyphname = five.lf;
layers = (
{
layerId = "EE746D13-63D7-48F9-B77E-C723CA6A668B";
paths = (
{
closed = 1;
nodes = (
"415 146 OFFCURVE",
"366 52 OFFCURVE",
"256 52 CURVE SMOOTH",
"185 52 OFFCURVE",
"138 87 OFFCURVE",
"130 121 CURVE",
"165 128 OFFCURVE",
"188 156 OFFCURVE",
"188 188 CURVE SMOOTH",
"188 230 OFFCURVE",
"161 259 OFFCURVE",
"117 259 CURVE SMOOTH",
"63 259 OFFCURVE",
"46 213 OFFCURVE",
"46 178 CURVE SMOOTH",
"46 86 OFFCURVE",
"113 -14 OFFCURVE",
"274 -14 CURVE SMOOTH",
"432 -14 OFFCURVE",
"536 96 OFFCURVE",
"536 247 CURVE SMOOTH",
"536 399 OFFCURVE",
"440 495 OFFCURVE",
"304 495 CURVE SMOOTH",
"216 495 OFFCURVE",
"160 465 OFFCURVE",
"146 455 CURVE",
"171 678 LINE",
"208 664 OFFCURVE",
"276 644 OFFCURVE",
"329 644 CURVE SMOOTH",
"394 644 OFFCURVE",
"458 669 OFFCURVE",
"510 726 CURVE",
"498 754 LINE",
"464 744 OFFCURVE",
"375 734 OFFCURVE",
"329 734 CURVE SMOOTH",
"243 734 OFFCURVE",
"201 743 OFFCURVE",
"140 754 CURVE",
"113 734 LINE",
"71 370 LINE",
"121 360 LINE",
"129 385 OFFCURVE",
"184 440 OFFCURVE",
"269 440 CURVE SMOOTH",
"366 440 OFFCURVE",
"415 364 OFFCURVE",
"415 241 CURVE SMOOTH"
);
}
);
width = 573;
}
);
},
{
glyphname = five.osf;
layers = (
{
layerId = "EE746D13-63D7-48F9-B77E-C723CA6A668B";
paths = (
{
closed = 1;
nodes = (
"415 26 OFFCURVE",
"366 -68 OFFCURVE",
"256 -68 CURVE SMOOTH",
"185 -68 OFFCURVE",
"138 -33 OFFCURVE",
"130 1 CURVE",
"165 8 OFFCURVE",
"188 36 OFFCURVE",
"188 68 CURVE SMOOTH",
"188 110 OFFCURVE",
"161 139 OFFCURVE",
"117 139 CURVE SMOOTH",
"63 139 OFFCURVE",
"46 93 OFFCURVE",
"46 58 CURVE SMOOTH",
"46 -34 OFFCURVE",
"113 -134 OFFCURVE",
"274 -134 CURVE SMOOTH",
"432 -134 OFFCURVE",
"536 -24 OFFCURVE",
"536 127 CURVE SMOOTH",
"536 279 OFFCURVE",
"440 375 OFFCURVE",
"304 375 CURVE SMOOTH",
"216 375 OFFCURVE",
"160 345 OFFCURVE",
"146 335 CURVE",
"171 558 LINE",
"208 544 OFFCURVE",
"276 524 OFFCURVE",
"329 524 CURVE SMOOTH",
"394 524 OFFCURVE",
"458 549 OFFCURVE",
"510 606 CURVE",
"498 634 LINE",
"464 624 OFFCURVE",
"375 614 OFFCURVE",
"329 614 CURVE SMOOTH",
"243 614 OFFCURVE",
"201 623 OFFCURVE",
"140 634 CURVE",
"113 614 LINE",
"71 250 LINE",
"121 240 LINE",
"129 265 OFFCURVE",
"184 320 OFFCURVE",
"269 320 CURVE SMOOTH",
"366 320 OFFCURVE",
"415 244 OFFCURVE",
"415 121 CURVE SMOOTH"
);
}
);
width = 573;
}
);
},
{
glyphname = five.tf;
layers = (
{
layerId = "EE746D13-63D7-48F9-B77E-C723CA6A668B";
paths = (
{
closed = 1;
nodes = (
"425 146 OFFCURVE",
"369 52 OFFCURVE",
"259 52 CURVE SMOOTH",
"188 52 OFFCURVE",
"135 87 OFFCURVE",
"127 121 CURVE",
"162 128 OFFCURVE",
"185 156 OFFCURVE",
"185 188 CURVE SMOOTH",
"185 230 OFFCURVE",
"158 259 OFFCURVE",
"114 259 CURVE SMOOTH",
"60 259 OFFCURVE",
"43 213 OFFCURVE",
"43 178 CURVE SMOOTH",
"43 86 OFFCURVE",
"116 -14 OFFCURVE",
"277 -14 CURVE SMOOTH",
"435 -14 OFFCURVE",
"546 96 OFFCURVE",
"546 247 CURVE SMOOTH",
"546 399 OFFCURVE",
"443 495 OFFCURVE",
"307 495 CURVE SMOOTH",
"219 495 OFFCURVE",
"157 465 OFFCURVE",
"143 455 CURVE",
"168 678 LINE",
"205 664 OFFCURVE",
"279 644 OFFCURVE",
"332 644 CURVE SMOOTH",
"397 644 OFFCURVE",
"468 669 OFFCURVE",
"520 726 CURVE",
"508 754 LINE",
"474 744 OFFCURVE",
"378 734 OFFCURVE",
"332 734 CURVE SMOOTH",
"246 734 OFFCURVE",
"198 743 OFFCURVE",
"137 754 CURVE",
"110 734 LINE",
"68 370 LINE",
"118 360 LINE",
"126 385 OFFCURVE",
"187 440 OFFCURVE",
"272 440 CURVE SMOOTH",
"369 440 OFFCURVE",
"425 364 OFFCURVE",
"425 241 CURVE SMOOTH"
);
}
);
width = 580;
}
);
},
{
glyphname = five.tosf;
layers = (
{
guideLines = (
{
angle = 180;
position = "{108, -134}";
}
);
layerId = "EE746D13-63D7-48F9-B77E-C723CA6A668B";
paths = (
{
closed = 1;
nodes = (
"425 26 OFFCURVE",
"369 -68 OFFCURVE",
"259 -68 CURVE SMOOTH",
"188 -68 OFFCURVE",
"135 -33 OFFCURVE",
"127 1 CURVE",
"162 8 OFFCURVE",
"185 36 OFFCURVE",
"185 68 CURVE SMOOTH",
"185 110 OFFCURVE",
"158 139 OFFCURVE",
"114 139 CURVE SMOOTH",
"60 139 OFFCURVE",
"43 93 OFFCURVE",
"43 58 CURVE SMOOTH",
"43 -34 OFFCURVE",
"116 -134 OFFCURVE",
"277 -134 CURVE SMOOTH",
"435 -134 OFFCURVE",
"546 -24 OFFCURVE",
"546 127 CURVE SMOOTH",
"546 279 OFFCURVE",
"443 375 OFFCURVE",
"307 375 CURVE SMOOTH",
"219 375 OFFCURVE",
"157 345 OFFCURVE",
"143 335 CURVE",
"168 558 LINE",
"205 544 OFFCURVE",
"279 524 OFFCURVE",
"332 524 CURVE SMOOTH",
"397 524 OFFCURVE",
"468 549 OFFCURVE",
"520 606 CURVE",
"508 634 LINE",
"474 624 OFFCURVE",
"378 614 OFFCURVE",
"332 614 CURVE SMOOTH",
"246 614 OFFCURVE",
"198 623 OFFCURVE",
"137 634 CURVE",
"110 614 LINE",
"68 250 LINE",
"118 240 LINE",
"126 265 OFFCURVE",
"187 320 OFFCURVE",
"272 320 CURVE SMOOTH",
"369 320 OFFCURVE",
"425 244 OFFCURVE",
"425 121 CURVE SMOOTH"
);
}
);
width = 580;
}
);
},
{
glyphname = six;
layers = (
{
guideLines = (
{
angle = 270;
position = "{18, 336}";
}
);
layerId = "EE746D13-63D7-48F9-B77E-C723CA6A668B";
paths = (
{
closed = 1;
nodes = (
"429 -13 OFFCURVE",
"537 85 OFFCURVE",
"537 216 CURVE SMOOTH",
"537 359 OFFCURVE",
"442 448 OFFCURVE",
"313 448 CURVE SMOOTH",
"245 448 OFFCURVE",
"184 409 OFFCURVE",
"161 364 CURVE",
"161 493 OFFCURVE",
"209 685 OFFCURVE",
"349 685 CURVE SMOOTH",
"397 685 OFFCURVE",
"429 660 OFFCURVE",
"442 628 CURVE",
"411 626 OFFCURVE",
"376 598 OFFCURVE",
"376 560 CURVE SMOOTH",
"376 525 OFFCURVE",
"397 493 OFFCURVE",
"446 493 CURVE SMOOTH",
"491 493 OFFCURVE",
"518 534 OFFCURVE",
"518 572 CURVE SMOOTH",
"518 651 OFFCURVE",
"460 751 OFFCURVE",
"339 751 CURVE SMOOTH",
"155 751 OFFCURVE",
"46 551 OFFCURVE",
"46 324 CURVE SMOOTH",
"46 81 OFFCURVE",
"169 -13 OFFCURVE",
"293 -13 CURVE SMOOTH"
);
},
{
closed = 1;
nodes = (
"380 384 OFFCURVE",
"422 299 OFFCURVE",
"422 216 CURVE SMOOTH",
"422 122 OFFCURVE",
"370 53 OFFCURVE",
"298 53 CURVE SMOOTH",
"217 53 OFFCURVE",
"169 127 OFFCURVE",
"169 216 CURVE SMOOTH",
"169 295 OFFCURVE",
"222 384 OFFCURVE",
"303 384 CURVE SMOOTH"
);
}
);
width = 583;
}
);
note = six;
unicode = 0036;
},
{
glyphname = six.lf;
layers = (
{
layerId = "EE746D13-63D7-48F9-B77E-C723CA6A668B";
paths = (
{
closed = 1;
nodes = (
"429 -13 OFFCURVE",
"537 85 OFFCURVE",
"537 216 CURVE SMOOTH",
"537 359 OFFCURVE",
"442 448 OFFCURVE",
"313 448 CURVE SMOOTH",
"245 448 OFFCURVE",
"184 409 OFFCURVE",
"161 364 CURVE",
"161 493 OFFCURVE",
"209 685 OFFCURVE",
"349 685 CURVE SMOOTH",
"397 685 OFFCURVE",
"429 660 OFFCURVE",
"442 628 CURVE",
"411 626 OFFCURVE",
"376 598 OFFCURVE",
"376 560 CURVE SMOOTH",
"376 525 OFFCURVE",
"397 493 OFFCURVE",
"446 493 CURVE SMOOTH",
"491 493 OFFCURVE",
"518 534 OFFCURVE",
"518 572 CURVE SMOOTH",
"518 651 OFFCURVE",
"460 751 OFFCURVE",
"339 751 CURVE SMOOTH",
"155 751 OFFCURVE",
"46 551 OFFCURVE",
"46 324 CURVE SMOOTH",
"46 81 OFFCURVE",
"169 -13 OFFCURVE",
"293 -13 CURVE SMOOTH"
);
},
{
closed = 1;
nodes = (
"380 384 OFFCURVE",
"422 299 OFFCURVE",
"422 216 CURVE SMOOTH",
"422 122 OFFCURVE",
"370 53 OFFCURVE",
"298 53 CURVE SMOOTH",
"217 53 OFFCURVE",
"169 127 OFFCURVE",
"169 216 CURVE SMOOTH",
"169 295 OFFCURVE",
"222 384 OFFCURVE",
"303 384 CURVE SMOOTH"
);
}
);
width = 583;
}
);
},
{
glyphname = six.osf;
layers = (
{
layerId = "EE746D13-63D7-48F9-B77E-C723CA6A668B";
paths = (
{
closed = 1;
nodes = (
"429 -13 OFFCURVE",
"537 85 OFFCURVE",
"537 216 CURVE SMOOTH",
"537 359 OFFCURVE",
"442 448 OFFCURVE",
"313 448 CURVE SMOOTH",
"245 448 OFFCURVE",
"184 409 OFFCURVE",
"161 364 CURVE",
"161 493 OFFCURVE",
"209 685 OFFCURVE",
"349 685 CURVE SMOOTH",
"397 685 OFFCURVE",
"429 660 OFFCURVE",
"442 628 CURVE",
"411 626 OFFCURVE",
"376 598 OFFCURVE",
"376 560 CURVE SMOOTH",
"376 525 OFFCURVE",
"397 493 OFFCURVE",
"446 493 CURVE SMOOTH",
"491 493 OFFCURVE",
"518 534 OFFCURVE",
"518 572 CURVE SMOOTH",
"518 651 OFFCURVE",
"460 751 OFFCURVE",
"339 751 CURVE SMOOTH",
"155 751 OFFCURVE",
"46 551 OFFCURVE",
"46 324 CURVE SMOOTH",
"46 81 OFFCURVE",
"169 -13 OFFCURVE",
"293 -13 CURVE SMOOTH"
);
},
{
closed = 1;
nodes = (
"380 384 OFFCURVE",
"422 299 OFFCURVE",
"422 216 CURVE SMOOTH",
"422 122 OFFCURVE",
"370 53 OFFCURVE",
"298 53 CURVE SMOOTH",
"217 53 OFFCURVE",
"169 127 OFFCURVE",
"169 216 CURVE SMOOTH",
"169 295 OFFCURVE",
"222 384 OFFCURVE",
"303 384 CURVE SMOOTH"
);
}
);
width = 583;
}
);
},
{
glyphname = six.tf;
layers = (
{
layerId = "EE746D13-63D7-48F9-B77E-C723CA6A668B";
paths = (
{
closed = 1;
nodes = (
"427 -13 OFFCURVE",
"535 85 OFFCURVE",
"535 216 CURVE SMOOTH",
"535 359 OFFCURVE",
"440 448 OFFCURVE",
"311 448 CURVE SMOOTH",
"243 448 OFFCURVE",
"182 409 OFFCURVE",
"159 364 CURVE",
"159 493 OFFCURVE",
"207 685 OFFCURVE",
"347 685 CURVE SMOOTH",
"395 685 OFFCURVE",
"427 660 OFFCURVE",
"440 628 CURVE",
"409 626 OFFCURVE",
"374 598 OFFCURVE",
"374 560 CURVE SMOOTH",
"374 525 OFFCURVE",
"395 493 OFFCURVE",
"444 493 CURVE SMOOTH",
"489 493 OFFCURVE",
"516 534 OFFCURVE",
"516 572 CURVE SMOOTH",
"516 651 OFFCURVE",
"458 751 OFFCURVE",
"337 751 CURVE SMOOTH",
"153 751 OFFCURVE",
"44 551 OFFCURVE",
"44 324 CURVE SMOOTH",
"44 81 OFFCURVE",
"167 -13 OFFCURVE",
"291 -13 CURVE SMOOTH"
);
},
{
closed = 1;
nodes = (
"378 384 OFFCURVE",
"420 299 OFFCURVE",
"420 216 CURVE SMOOTH",
"420 122 OFFCURVE",
"368 53 OFFCURVE",
"296 53 CURVE SMOOTH",
"215 53 OFFCURVE",
"167 127 OFFCURVE",
"167 216 CURVE SMOOTH",
"167 295 OFFCURVE",
"220 384 OFFCURVE",
"301 384 CURVE SMOOTH"
);
}
);
width = 580;
}
);
},
{
glyphname = six.tosf;
layers = (
{
layerId = "EE746D13-63D7-48F9-B77E-C723CA6A668B";
paths = (
{
closed = 1;
nodes = (
"427 -13 OFFCURVE",
"533 89 OFFCURVE",
"533 220 CURVE SMOOTH",
"533 363 OFFCURVE",
"440 448 OFFCURVE",
"311 448 CURVE SMOOTH",
"243 448 OFFCURVE",
"182 409 OFFCURVE",
"159 364 CURVE",
"159 493 OFFCURVE",
"207 685 OFFCURVE",
"347 685 CURVE SMOOTH",
"395 685 OFFCURVE",
"427 660 OFFCURVE",
"440 628 CURVE",
"409 626 OFFCURVE",
"374 598 OFFCURVE",
"374 560 CURVE SMOOTH",
"374 525 OFFCURVE",
"395 493 OFFCURVE",
"444 493 CURVE SMOOTH",
"489 493 OFFCURVE",
"516 534 OFFCURVE",
"516 572 CURVE SMOOTH",
"516 651 OFFCURVE",
"458 751 OFFCURVE",
"337 751 CURVE SMOOTH",
"153 751 OFFCURVE",
"46 551 OFFCURVE",
"46 324 CURVE SMOOTH",
"46 81 OFFCURVE",
"167 -13 OFFCURVE",
"291 -13 CURVE SMOOTH"
);
},
{
closed = 1;
nodes = (
"378 384 OFFCURVE",
"420 299 OFFCURVE",
"420 216 CURVE SMOOTH",
"420 122 OFFCURVE",
"368 53 OFFCURVE",
"296 53 CURVE SMOOTH",
"215 53 OFFCURVE",
"167 127 OFFCURVE",
"167 216 CURVE SMOOTH",
"167 295 OFFCURVE",
"220 384 OFFCURVE",
"301 384 CURVE SMOOTH"
);
}
);
width = 580;
}
);
},
{
glyphname = seven;
layers = (
{
guideLines = (
{
angle = 180;
position = "{132, -120}";
},
{
angle = 180;
position = "{132, -134}";
},
{
angle = 180;
position = "{299, 620}";
},
{
angle = 98.0171;
position = "{408, -49}";
}
);
layerId = "EE746D13-63D7-48F9-B77E-C723CA6A668B";
paths = (
{
closed = 1;
nodes = (
"480 601 OFFCURVE",
"462 579 OFFCURVE",
"420 579 CURVE SMOOTH",
"346 579 OFFCURVE",
"332 634 OFFCURVE",
"233 634 CURVE SMOOTH",
"171 634 OFFCURVE",
"127 604 OFFCURVE",
"100 561 CURVE",
"100 620 LINE",
"46 620 LINE",
"46 362 LINE",
"100 362 LINE",
"100 515 OFFCURVE",
"167 539 OFFCURVE",
"208 539 CURVE SMOOTH",
"263 539 OFFCURVE",
"282 504 OFFCURVE",
"354 504 CURVE SMOOTH",
"405 504 OFFCURVE",
"432 520 OFFCURVE",
"454 535 CURVE",
"422 462 OFFCURVE",
"337 377 OFFCURVE",
"276 285 CURVE SMOOTH",
"196 165 OFFCURVE",
"166 52 OFFCURVE",
"166 -73 CURVE SMOOTH",
"166 -117 OFFCURVE",
"192 -138 OFFCURVE",
"231 -138 CURVE SMOOTH",
"270 -138 OFFCURVE",
"296 -117 OFFCURVE",
"296 -73 CURVE SMOOTH",
"296 50 OFFCURVE",
"310 153 OFFCURVE",
"363 259 CURVE SMOOTH",
"402 338 OFFCURVE",
"493 462 OFFCURVE",
"524 539 CURVE SMOOTH",
"538 575 OFFCURVE",
"542 611 OFFCURVE",
"542 620 CURVE",
"487 620 LINE"
);
}
);
width = 551;
}
);
unicode = 0037;
},
{
glyphname = seven.lf;
layers = (
{
layerId = "EE746D13-63D7-48F9-B77E-C723CA6A668B";
paths = (
{
closed = 1;
nodes = (
"480 725 OFFCURVE",
"462 703 OFFCURVE",
"420 703 CURVE SMOOTH",
"346 703 OFFCURVE",
"332 758 OFFCURVE",
"233 758 CURVE SMOOTH",
"171 758 OFFCURVE",
"127 728 OFFCURVE",
"100 685 CURVE",
"100 744 LINE",
"46 744 LINE",
"46 486 LINE",
"100 486 LINE",
"100 639 OFFCURVE",
"167 663 OFFCURVE",
"208 663 CURVE SMOOTH",
"263 663 OFFCURVE",
"282 628 OFFCURVE",
"354 628 CURVE SMOOTH",
"405 628 OFFCURVE",
"432 644 OFFCURVE",
"454 659 CURVE",
"422 586 OFFCURVE",
"337 501 OFFCURVE",
"276 409 CURVE SMOOTH",
"196 289 OFFCURVE",
"166 176 OFFCURVE",
"166 51 CURVE SMOOTH",
"166 7 OFFCURVE",
"192 -14 OFFCURVE",
"231 -14 CURVE SMOOTH",
"270 -14 OFFCURVE",
"296 7 OFFCURVE",
"296 51 CURVE SMOOTH",
"296 174 OFFCURVE",
"311 277 OFFCURVE",
"363 383 CURVE SMOOTH",
"402 462 OFFCURVE",
"494 586 OFFCURVE",
"524 663 CURVE SMOOTH",
"538 699 OFFCURVE",
"542 735 OFFCURVE",
"542 744 CURVE",
"487 744 LINE"
);
}
);
width = 551;
}
);
},
{
glyphname = seven.osf;
layers = (
{
layerId = "EE746D13-63D7-48F9-B77E-C723CA6A668B";
paths = (
{
closed = 1;
nodes = (
"480 601 OFFCURVE",
"462 579 OFFCURVE",
"420 579 CURVE SMOOTH",
"346 579 OFFCURVE",
"332 634 OFFCURVE",
"233 634 CURVE SMOOTH",
"171 634 OFFCURVE",
"127 604 OFFCURVE",
"100 561 CURVE",
"100 620 LINE",
"46 620 LINE",
"46 362 LINE",
"100 362 LINE",
"100 515 OFFCURVE",
"167 539 OFFCURVE",
"208 539 CURVE SMOOTH",
"263 539 OFFCURVE",
"282 504 OFFCURVE",
"354 504 CURVE SMOOTH",
"405 504 OFFCURVE",
"432 520 OFFCURVE",
"454 535 CURVE",
"422 462 OFFCURVE",
"337 377 OFFCURVE",
"276 285 CURVE SMOOTH",
"196 165 OFFCURVE",
"166 52 OFFCURVE",
"166 -73 CURVE SMOOTH",
"166 -117 OFFCURVE",
"192 -138 OFFCURVE",
"231 -138 CURVE SMOOTH",
"270 -138 OFFCURVE",
"296 -117 OFFCURVE",
"296 -73 CURVE SMOOTH",
"296 50 OFFCURVE",
"310 153 OFFCURVE",
"363 259 CURVE SMOOTH",
"402 338 OFFCURVE",
"493 462 OFFCURVE",
"524 539 CURVE SMOOTH",
"538 575 OFFCURVE",
"542 611 OFFCURVE",
"542 620 CURVE",
"487 620 LINE"
);
}
);
width = 551;
}
);
},
{
glyphname = seven.tf;
layers = (
{
layerId = "EE746D13-63D7-48F9-B77E-C723CA6A668B";
paths = (
{
closed = 1;
nodes = (
"509 725 OFFCURVE",
"491 703 OFFCURVE",
"449 703 CURVE SMOOTH",
"375 703 OFFCURVE",
"329 758 OFFCURVE",
"230 758 CURVE SMOOTH",
"168 758 OFFCURVE",
"124 728 OFFCURVE",
"97 685 CURVE",
"97 744 LINE",
"43 744 LINE",
"43 486 LINE",
"97 486 LINE",
"97 639 OFFCURVE",
"164 663 OFFCURVE",
"205 663 CURVE SMOOTH",
"260 663 OFFCURVE",
"311 628 OFFCURVE",
"383 628 CURVE SMOOTH",
"434 628 OFFCURVE",
"461 644 OFFCURVE",
"483 659 CURVE",
"451 586 OFFCURVE",
"358 501 OFFCURVE",
"297 409 CURVE SMOOTH",
"217 289 OFFCURVE",
"179 176 OFFCURVE",
"179 51 CURVE SMOOTH",
"179 7 OFFCURVE",
"205 -14 OFFCURVE",
"244 -14 CURVE SMOOTH",
"283 -14 OFFCURVE",
"309 7 OFFCURVE",
"309 51 CURVE SMOOTH",
"309 174 OFFCURVE",
"332 277 OFFCURVE",
"384 383 CURVE SMOOTH",
"423 462 OFFCURVE",
"523 586 OFFCURVE",
"553 663 CURVE SMOOTH",
"567 699 OFFCURVE",
"571 735 OFFCURVE",
"571 744 CURVE",
"516 744 LINE"
);
}
);
width = 580;
}
);
},
{
glyphname = seven.tosf;
layers = (
{
guideLines = (
{
angle = 180;
position = "{296, 620}";
},
{
position = "{244, -138}";
}
);
layerId = "EE746D13-63D7-48F9-B77E-C723CA6A668B";
paths = (
{
closed = 1;
nodes = (
"509 601 OFFCURVE",
"491 579 OFFCURVE",
"449 579 CURVE SMOOTH",
"375 579 OFFCURVE",
"329 634 OFFCURVE",
"230 634 CURVE SMOOTH",
"168 634 OFFCURVE",
"124 604 OFFCURVE",
"97 561 CURVE",
"97 620 LINE",
"43 620 LINE",
"43 362 LINE",
"97 362 LINE",
"97 515 OFFCURVE",
"164 539 OFFCURVE",
"205 539 CURVE SMOOTH",
"260 539 OFFCURVE",
"311 504 OFFCURVE",
"383 504 CURVE SMOOTH",
"434 504 OFFCURVE",
"461 520 OFFCURVE",
"483 535 CURVE",
"451 462 OFFCURVE",
"358 377 OFFCURVE",
"297 285 CURVE SMOOTH",
"217 165 OFFCURVE",
"179 52 OFFCURVE",
"179 -73 CURVE SMOOTH",
"179 -117 OFFCURVE",
"205 -138 OFFCURVE",
"244 -138 CURVE SMOOTH",
"283 -138 OFFCURVE",
"309 -117 OFFCURVE",
"309 -73 CURVE SMOOTH",
"309 50 OFFCURVE",
"332 153 OFFCURVE",
"384 259 CURVE SMOOTH",
"423 338 OFFCURVE",
"523 462 OFFCURVE",
"553 539 CURVE SMOOTH",
"567 575 OFFCURVE",
"571 611 OFFCURVE",
"571 620 CURVE",
"516 620 LINE"
);
}
);
width = 580;
}
);
},
{
glyphname = eight;
layers = (
{
guideLines = (
{
position = "{675, 1153}";
},
{
position = "{458, 355}";
},
{
angle = 180;
position = "{314, 717}";
}
);
layerId = "EE746D13-63D7-48F9-B77E-C723CA6A668B";
paths = (
{
closed = 1;
nodes = (
"135 362 OFFCURVE",
"63 279 OFFCURVE",
"63 193 CURVE SMOOTH",
"63 94 OFFCURVE",
"147 -14 OFFCURVE",
"320 -14 CURVE SMOOTH",
"487 -14 OFFCURVE",
"567 98 OFFCURVE",
"567 193 CURVE SMOOTH",
"567 286 OFFCURVE",
"510 360 OFFCURVE",
"406 390 CURVE",
"473 422 OFFCURVE",
"535 476 OFFCURVE",
"535 569 CURVE SMOOTH",
"535 673 OFFCURVE",
"450 750 OFFCURVE",
"312 750 CURVE SMOOTH",
"182 750 OFFCURVE",
"97 662 OFFCURVE",
"97 559 CURVE SMOOTH",
"97 463 OFFCURVE",
"150 411 OFFCURVE",
"224 380 CURVE"
);
},
{
closed = 1;
nodes = (
"382 320 OFFCURVE",
"446 265 OFFCURVE",
"446 173 CURVE SMOOTH",
"446 112 OFFCURVE",
"404 41 OFFCURVE",
"322 41 CURVE SMOOTH",
"235 41 OFFCURVE",
"184 100 OFFCURVE",
"184 173 CURVE SMOOTH",
"184 275 OFFCURVE",
"248 327 OFFCURVE",
"288 344 CURVE"
);
},
{
closed = 1;
nodes = (
"269 443 OFFCURVE",
"207 493 OFFCURVE",
"207 579 CURVE SMOOTH",
"207 647 OFFCURVE",
"252 695 OFFCURVE",
"312 695 CURVE SMOOTH",
"389 695 OFFCURVE",
"427 637 OFFCURVE",
"427 569 CURVE SMOOTH",
"427 492 OFFCURVE",
"384 442 OFFCURVE",
"350 422 CURVE"
);
}
);
width = 617;
}
);
note = eight;
unicode = 0038;
},
{
glyphname = eight.lf;
layers = (
{
layerId = "EE746D13-63D7-48F9-B77E-C723CA6A668B";
paths = (
{
closed = 1;
nodes = (
"137 362 OFFCURVE",
"67 279 OFFCURVE",
"67 193 CURVE SMOOTH",
"67 94 OFFCURVE",
"149 -14 OFFCURVE",
"322 -14 CURVE SMOOTH",
"489 -14 OFFCURVE",
"569 98 OFFCURVE",
"569 193 CURVE SMOOTH",
"569 286 OFFCURVE",
"512 360 OFFCURVE",
"408 390 CURVE",
"475 422 OFFCURVE",
"537 476 OFFCURVE",
"537 569 CURVE SMOOTH",
"537 673 OFFCURVE",
"452 750 OFFCURVE",
"314 750 CURVE SMOOTH",
"184 750 OFFCURVE",
"99 662 OFFCURVE",
"99 559 CURVE SMOOTH",
"99 463 OFFCURVE",
"152 411 OFFCURVE",
"226 380 CURVE"
);
},
{
closed = 1;
nodes = (
"384 320 OFFCURVE",
"448 265 OFFCURVE",
"448 173 CURVE SMOOTH",
"448 112 OFFCURVE",
"406 41 OFFCURVE",
"324 41 CURVE SMOOTH",
"237 41 OFFCURVE",
"186 100 OFFCURVE",
"186 173 CURVE SMOOTH",
"186 275 OFFCURVE",
"250 327 OFFCURVE",
"290 344 CURVE"
);
},
{
closed = 1;
nodes = (
"271 443 OFFCURVE",
"209 493 OFFCURVE",
"209 579 CURVE SMOOTH",
"209 647 OFFCURVE",
"254 695 OFFCURVE",
"314 695 CURVE SMOOTH",
"391 695 OFFCURVE",
"429 637 OFFCURVE",
"429 569 CURVE SMOOTH",
"429 492 OFFCURVE",
"386 442 OFFCURVE",
"352 422 CURVE"
);
}
);
width = 619;
}
);
},
{
glyphname = eight.osf;
layers = (
{
layerId = "EE746D13-63D7-48F9-B77E-C723CA6A668B";
paths = (
{
closed = 1;
nodes = (
"135 362 OFFCURVE",
"63 279 OFFCURVE",
"63 193 CURVE SMOOTH",
"63 94 OFFCURVE",
"147 -14 OFFCURVE",
"320 -14 CURVE SMOOTH",
"487 -14 OFFCURVE",
"567 98 OFFCURVE",
"567 193 CURVE SMOOTH",
"567 286 OFFCURVE",
"510 360 OFFCURVE",
"406 390 CURVE",
"473 422 OFFCURVE",
"535 476 OFFCURVE",
"535 569 CURVE SMOOTH",
"535 673 OFFCURVE",
"450 750 OFFCURVE",
"312 750 CURVE SMOOTH",
"182 750 OFFCURVE",
"97 662 OFFCURVE",
"97 559 CURVE SMOOTH",
"97 463 OFFCURVE",
"150 411 OFFCURVE",
"224 380 CURVE"
);
},
{
closed = 1;
nodes = (
"382 320 OFFCURVE",
"446 265 OFFCURVE",
"446 173 CURVE SMOOTH",
"446 112 OFFCURVE",
"404 41 OFFCURVE",
"322 41 CURVE SMOOTH",
"235 41 OFFCURVE",
"184 100 OFFCURVE",
"184 173 CURVE SMOOTH",
"184 275 OFFCURVE",
"248 327 OFFCURVE",
"288 344 CURVE"
);
},
{
closed = 1;
nodes = (
"269 443 OFFCURVE",
"207 493 OFFCURVE",
"207 579 CURVE SMOOTH",
"207 647 OFFCURVE",
"252 695 OFFCURVE",
"312 695 CURVE SMOOTH",
"389 695 OFFCURVE",
"427 637 OFFCURVE",
"427 569 CURVE SMOOTH",
"427 492 OFFCURVE",
"384 442 OFFCURVE",
"350 422 CURVE"
);
}
);
width = 617;
}
);
},
{
glyphname = eight.tf;
layers = (
{
layerId = "EE746D13-63D7-48F9-B77E-C723CA6A668B";
paths = (
{
closed = 1;
nodes = (
"115 362 OFFCURVE",
"47 279 OFFCURVE",
"47 193 CURVE SMOOTH",
"47 94 OFFCURVE",
"127 -14 OFFCURVE",
"300 -14 CURVE SMOOTH",
"467 -14 OFFCURVE",
"542 98 OFFCURVE",
"542 193 CURVE SMOOTH",
"542 286 OFFCURVE",
"490 360 OFFCURVE",
"386 390 CURVE",
"453 422 OFFCURVE",
"515 476 OFFCURVE",
"515 569 CURVE SMOOTH",
"515 673 OFFCURVE",
"430 750 OFFCURVE",
"292 750 CURVE SMOOTH",
"162 750 OFFCURVE",
"77 662 OFFCURVE",
"77 559 CURVE SMOOTH",
"77 463 OFFCURVE",
"130 411 OFFCURVE",
"204 380 CURVE"
);
},
{
closed = 1;
nodes = (
"362 320 OFFCURVE",
"429 265 OFFCURVE",
"429 173 CURVE SMOOTH",
"429 112 OFFCURVE",
"384 41 OFFCURVE",
"302 41 CURVE SMOOTH",
"215 41 OFFCURVE",
"162 100 OFFCURVE",
"162 173 CURVE SMOOTH",
"162 275 OFFCURVE",
"204 317 OFFCURVE",
"268 344 CURVE"
);
},
{
closed = 1;
nodes = (
"249 443 OFFCURVE",
"183 493 OFFCURVE",
"183 579 CURVE SMOOTH",
"183 647 OFFCURVE",
"232 697 OFFCURVE",
"292 697 CURVE SMOOTH",
"369 697 OFFCURVE",
"407 637 OFFCURVE",
"407 569 CURVE SMOOTH",
"407 492 OFFCURVE",
"364 442 OFFCURVE",
"330 422 CURVE"
);
}
);
width = 580;
}
);
},
{
glyphname = eight.tosf;
layers = (
{
layerId = "EE746D13-63D7-48F9-B77E-C723CA6A668B";
paths = (
{
closed = 1;
nodes = (
"115 362 OFFCURVE",
"47 279 OFFCURVE",
"47 193 CURVE SMOOTH",
"47 94 OFFCURVE",
"127 -14 OFFCURVE",
"300 -14 CURVE SMOOTH",
"467 -14 OFFCURVE",
"542 98 OFFCURVE",
"542 193 CURVE SMOOTH",
"542 286 OFFCURVE",
"490 360 OFFCURVE",
"386 390 CURVE",
"453 422 OFFCURVE",
"515 476 OFFCURVE",
"515 569 CURVE SMOOTH",
"515 673 OFFCURVE",
"430 750 OFFCURVE",
"292 750 CURVE SMOOTH",
"162 750 OFFCURVE",
"77 662 OFFCURVE",
"77 559 CURVE SMOOTH",
"77 463 OFFCURVE",
"130 411 OFFCURVE",
"204 380 CURVE"
);
},
{
closed = 1;
nodes = (
"362 320 OFFCURVE",
"429 265 OFFCURVE",
"429 173 CURVE SMOOTH",
"429 112 OFFCURVE",
"384 41 OFFCURVE",
"302 41 CURVE SMOOTH",
"215 41 OFFCURVE",
"162 100 OFFCURVE",
"162 173 CURVE SMOOTH",
"162 275 OFFCURVE",
"204 317 OFFCURVE",
"268 344 CURVE"
);
},
{
closed = 1;
nodes = (
"249 443 OFFCURVE",
"183 493 OFFCURVE",
"183 579 CURVE SMOOTH",
"183 647 OFFCURVE",
"232 697 OFFCURVE",
"292 697 CURVE SMOOTH",
"369 697 OFFCURVE",
"407 637 OFFCURVE",
"407 569 CURVE SMOOTH",
"407 492 OFFCURVE",
"364 442 OFFCURVE",
"330 422 CURVE"
);
}
);
width = 580;
}
);
},
{
glyphname = nine;
layers = (
{
guideLines = (
{
angle = 180;
position = "{179, 45}";
},
{
angle = 180;
position = "{150, -120}";
},
{
angle = 180;
position = "{150, -134}";
}
);
layerId = "EE746D13-63D7-48F9-B77E-C723CA6A668B";
paths = (
{
closed = 1;
nodes = (
"171 634 OFFCURVE",
"63 536 OFFCURVE",
"63 405 CURVE SMOOTH",
"63 262 OFFCURVE",
"158 173 OFFCURVE",
"287 173 CURVE SMOOTH",
"355 173 OFFCURVE",
"400 209 OFFCURVE",
"439 257 CURVE",
"439 138 OFFCURVE",
"411 -68 OFFCURVE",
"261 -68 CURVE SMOOTH",
"223 -68 OFFCURVE",
"171 -53 OFFCURVE",
"158 -11 CURVE",
"189 -9 OFFCURVE",
"224 19 OFFCURVE",
"224 57 CURVE SMOOTH",
"224 92 OFFCURVE",
"203 124 OFFCURVE",
"154 124 CURVE SMOOTH",
"109 124 OFFCURVE",
"82 83 OFFCURVE",
"82 45 CURVE SMOOTH",
"82 -34 OFFCURVE",
"140 -134 OFFCURVE",
"271 -134 CURVE SMOOTH",
"465 -134 OFFCURVE",
"552 70 OFFCURVE",
"552 297 CURVE SMOOTH",
"552 540 OFFCURVE",
"431 634 OFFCURVE",
"307 634 CURVE SMOOTH"
);
},
{
closed = 1;
nodes = (
"220 237 OFFCURVE",
"178 322 OFFCURVE",
"178 405 CURVE SMOOTH",
"178 499 OFFCURVE",
"230 568 OFFCURVE",
"302 568 CURVE SMOOTH",
"383 568 OFFCURVE",
"431 494 OFFCURVE",
"431 405 CURVE SMOOTH",
"431 326 OFFCURVE",
"378 237 OFFCURVE",
"297 237 CURVE SMOOTH"
);
}
);
width = 619;
}
);
note = nine;
unicode = 0039;
},
{
glyphname = nine.lf;
layers = (
{
layerId = "EE746D13-63D7-48F9-B77E-C723CA6A668B";
paths = (
{
closed = 1;
nodes = (
"171 754 OFFCURVE",
"63 656 OFFCURVE",
"63 525 CURVE SMOOTH",
"63 382 OFFCURVE",
"158 293 OFFCURVE",
"287 293 CURVE SMOOTH",
"355 293 OFFCURVE",
"400 329 OFFCURVE",
"439 377 CURVE",
"439 258 OFFCURVE",
"411 52 OFFCURVE",
"261 52 CURVE SMOOTH",
"223 52 OFFCURVE",
"171 67 OFFCURVE",
"158 109 CURVE",
"189 111 OFFCURVE",
"224 139 OFFCURVE",
"224 177 CURVE SMOOTH",
"224 212 OFFCURVE",
"203 244 OFFCURVE",
"154 244 CURVE SMOOTH",
"109 244 OFFCURVE",
"82 203 OFFCURVE",
"82 165 CURVE SMOOTH",
"82 86 OFFCURVE",
"140 -14 OFFCURVE",
"271 -14 CURVE SMOOTH",
"465 -14 OFFCURVE",
"552 190 OFFCURVE",
"552 417 CURVE SMOOTH",
"552 660 OFFCURVE",
"431 754 OFFCURVE",
"307 754 CURVE SMOOTH"
);
},
{
closed = 1;
nodes = (
"220 357 OFFCURVE",
"178 442 OFFCURVE",
"178 525 CURVE SMOOTH",
"178 619 OFFCURVE",
"230 688 OFFCURVE",
"302 688 CURVE SMOOTH",
"383 688 OFFCURVE",
"431 614 OFFCURVE",
"431 525 CURVE SMOOTH",
"431 446 OFFCURVE",
"378 357 OFFCURVE",
"297 357 CURVE SMOOTH"
);
}
);
width = 619;
}
);
},
{
glyphname = nine.osf;
layers = (
{
guideLines = (
{
angle = 90;
position = "{607, 1055}";
}
);
layerId = "EE746D13-63D7-48F9-B77E-C723CA6A668B";
paths = (
{
closed = 1;
nodes = (
"171 634 OFFCURVE",
"63 536 OFFCURVE",
"63 405 CURVE SMOOTH",
"63 262 OFFCURVE",
"158 173 OFFCURVE",
"287 173 CURVE SMOOTH",
"355 173 OFFCURVE",
"400 209 OFFCURVE",
"439 257 CURVE",
"439 138 OFFCURVE",
"411 -68 OFFCURVE",
"261 -68 CURVE SMOOTH",
"223 -68 OFFCURVE",
"171 -53 OFFCURVE",
"158 -11 CURVE",
"189 -9 OFFCURVE",
"224 19 OFFCURVE",
"224 57 CURVE SMOOTH",
"224 92 OFFCURVE",
"203 124 OFFCURVE",
"154 124 CURVE SMOOTH",
"109 124 OFFCURVE",
"82 83 OFFCURVE",
"82 45 CURVE SMOOTH",
"82 -34 OFFCURVE",
"140 -134 OFFCURVE",
"271 -134 CURVE SMOOTH",
"465 -134 OFFCURVE",
"552 70 OFFCURVE",
"552 297 CURVE SMOOTH",
"552 540 OFFCURVE",
"431 634 OFFCURVE",
"307 634 CURVE SMOOTH"
);
},
{
closed = 1;
nodes = (
"220 237 OFFCURVE",
"178 322 OFFCURVE",
"178 405 CURVE SMOOTH",
"178 499 OFFCURVE",
"230 568 OFFCURVE",
"302 568 CURVE SMOOTH",
"383 568 OFFCURVE",
"431 494 OFFCURVE",
"431 405 CURVE SMOOTH",
"431 326 OFFCURVE",
"378 237 OFFCURVE",
"297 237 CURVE SMOOTH"
);
}
);
width = 619;
}
);
},
{
glyphname = nine.tf;
layers = (
{
layerId = "EE746D13-63D7-48F9-B77E-C723CA6A668B";
paths = (
{
closed = 1;
nodes = (
"152 754 OFFCURVE",
"49 656 OFFCURVE",
"49 525 CURVE SMOOTH",
"49 382 OFFCURVE",
"139 293 OFFCURVE",
"268 293 CURVE SMOOTH",
"336 293 OFFCURVE",
"383 329 OFFCURVE",
"422 377 CURVE",
"422 258 OFFCURVE",
"392 52 OFFCURVE",
"242 52 CURVE SMOOTH",
"204 52 OFFCURVE",
"152 67 OFFCURVE",
"139 109 CURVE",
"170 111 OFFCURVE",
"205 139 OFFCURVE",
"205 177 CURVE SMOOTH",
"205 212 OFFCURVE",
"184 244 OFFCURVE",
"135 244 CURVE SMOOTH",
"90 244 OFFCURVE",
"63 203 OFFCURVE",
"63 165 CURVE SMOOTH",
"63 86 OFFCURVE",
"121 -14 OFFCURVE",
"252 -14 CURVE SMOOTH",
"446 -14 OFFCURVE",
"533 190 OFFCURVE",
"533 417 CURVE SMOOTH",
"533 660 OFFCURVE",
"412 754 OFFCURVE",
"288 754 CURVE SMOOTH"
);
},
{
closed = 1;
nodes = (
"201 357 OFFCURVE",
"157 442 OFFCURVE",
"157 525 CURVE SMOOTH",
"157 619 OFFCURVE",
"211 688 OFFCURVE",
"283 688 CURVE SMOOTH",
"364 688 OFFCURVE",
"414 614 OFFCURVE",
"414 525 CURVE SMOOTH",
"414 446 OFFCURVE",
"359 357 OFFCURVE",
"278 357 CURVE SMOOTH"
);
}
);
width = 580;
}
);
},
{
glyphname = nine.tosf;
layers = (
{
layerId = "EE746D13-63D7-48F9-B77E-C723CA6A668B";
paths = (
{
closed = 1;
nodes = (
"152 634 OFFCURVE",
"49 536 OFFCURVE",
"49 405 CURVE SMOOTH",
"49 262 OFFCURVE",
"139 173 OFFCURVE",
"268 173 CURVE SMOOTH",
"336 173 OFFCURVE",
"381 209 OFFCURVE",
"420 257 CURVE",
"420 138 OFFCURVE",
"392 -68 OFFCURVE",
"242 -68 CURVE SMOOTH",
"204 -68 OFFCURVE",
"152 -53 OFFCURVE",
"139 -11 CURVE",
"170 -9 OFFCURVE",
"205 19 OFFCURVE",
"205 57 CURVE SMOOTH",
"205 92 OFFCURVE",
"184 124 OFFCURVE",
"135 124 CURVE SMOOTH",
"90 124 OFFCURVE",
"63 83 OFFCURVE",
"63 45 CURVE SMOOTH",
"63 -34 OFFCURVE",
"121 -134 OFFCURVE",
"252 -134 CURVE SMOOTH",
"446 -134 OFFCURVE",
"532 70 OFFCURVE",
"532 297 CURVE SMOOTH",
"532 540 OFFCURVE",
"412 634 OFFCURVE",
"288 634 CURVE SMOOTH"
);
},
{
closed = 1;
nodes = (
"201 237 OFFCURVE",
"159 322 OFFCURVE",
"159 405 CURVE SMOOTH",
"159 499 OFFCURVE",
"211 568 OFFCURVE",
"283 568 CURVE SMOOTH",
"364 568 OFFCURVE",
"412 494 OFFCURVE",
"412 405 CURVE SMOOTH",
"412 326 OFFCURVE",
"359 237 OFFCURVE",
"278 237 CURVE SMOOTH"
);
}
);
width = 580;
}
);
},
